G04 Layer_Color=8388736*
%FSLAX42Y42*%
%MOMM*%
G71*
G01*
G75*
%ADD50C,0.25*%
%ADD107R,1.70X0.80*%
%ADD108R,0.90X0.90*%
%ADD109R,0.90X0.90*%
%ADD110R,1.35X1.20*%
%ADD111R,1.60X1.30*%
%ADD112R,0.90X1.30*%
%ADD113R,1.35X1.20*%
%ADD114R,2.00X1.60*%
%ADD115R,1.60X2.10*%
%ADD116R,1.00X1.70*%
%ADD117R,1.50X1.00*%
%ADD118R,1.50X1.00*%
%ADD119R,3.20X2.30*%
%ADD120R,1.20X1.80*%
%ADD121R,1.80X1.20*%
%ADD122O,0.68X0.45*%
%ADD123R,0.68X0.45*%
%ADD124R,0.45X0.68*%
%ADD125R,0.55X0.50*%
%ADD126R,0.50X0.55*%
G04:AMPARAMS|DCode=127|XSize=0.55mm|YSize=0.5mm|CornerRadius=0.18mm|HoleSize=0mm|Usage=FLASHONLY|Rotation=270.000|XOffset=0mm|YOffset=0mm|HoleType=Round|Shape=RoundedRectangle|*
%AMROUNDEDRECTD127*
21,1,0.55,0.15,0,0,270.0*
21,1,0.20,0.50,0,0,270.0*
1,1,0.35,-0.07,-0.10*
1,1,0.35,-0.07,0.10*
1,1,0.35,0.07,0.10*
1,1,0.35,0.07,-0.10*
%
%ADD127ROUNDEDRECTD127*%
%ADD128R,2.39X2.10*%
%ADD129R,2.00X2.10*%
%ADD130R,0.60X1.55*%
%ADD131R,1.50X1.10*%
%ADD132R,1.10X1.80*%
%ADD133R,1.60X1.85*%
%ADD134R,1.85X1.60*%
%ADD135R,0.80X1.05*%
%ADD136O,0.80X1.05*%
%ADD137R,5.20X5.20*%
%ADD138R,1.10X2.20*%
%ADD139R,2.20X1.10*%
%ADD140O,1.10X2.20*%
%ADD141R,1.70X2.70*%
%ADD142R,0.55X3.00*%
%ADD143R,4.00X0.55*%
%ADD144R,1.15X0.65*%
%ADD145R,1.50X0.97*%
%ADD146C,2.00*%
%ADD147C,0.80*%
%ADD148C,3.40*%
%ADD149C,1.80*%
%ADD150C,0.20*%
%ADD151O,1.10X1.45*%
G36*
X1382Y888D02*
Y788D01*
X1270Y675D01*
X1170D01*
X1057Y788D01*
Y888D01*
X1170Y1000D01*
X1270D01*
X1382Y888D01*
D02*
G37*
G36*
X-5Y3145D02*
Y3045D01*
X-117Y2933D01*
X-217D01*
X-330Y3045D01*
Y3145D01*
X-217Y3258D01*
X-117D01*
X-5Y3145D01*
D02*
G37*
G36*
X3812Y3560D02*
Y3460D01*
X3700Y3347D01*
X3600D01*
X3488Y3460D01*
Y3560D01*
X3600Y3672D01*
X3700D01*
X3812Y3560D01*
D02*
G37*
D50*
X6360Y0D02*
G03*
X6360Y0I-160J0D01*
G01*
Y3550D02*
G03*
X6360Y3550I-160J0D01*
G01*
X160D02*
G03*
X160Y3550I-160J0D01*
G01*
Y0D02*
G03*
X160Y0I-160J0D01*
G01*
X6600Y3550D02*
G03*
X6200Y3950I-400J0D01*
G01*
X0D02*
G03*
X-400Y3550I0J-400D01*
G01*
Y0D02*
G03*
X0Y-400I400J0D01*
G01*
X6200D02*
G03*
X6600Y0I0J400D01*
G01*
X5350Y3950D02*
X5600D01*
X3225D02*
X5350D01*
X5350D02*
X5350Y3950D01*
X2974Y4199D02*
X2975D01*
X2974Y4200D02*
X2974Y4199D01*
X2541Y4200D02*
X2974D01*
X2975Y3950D02*
Y4199D01*
X2975Y3950D02*
X2975Y3950D01*
X5600D02*
X6200D01*
X600Y3950D02*
X2975D01*
X0Y3950D02*
X600Y3950D01*
X6600Y0D02*
Y3550D01*
X-400Y0D02*
Y3550D01*
X0Y-400D02*
X6200D01*
X3225Y3950D02*
Y4200D01*
X2540Y4199D02*
Y5015D01*
X3660D01*
Y4200D02*
Y5015D01*
X3225Y4200D02*
X3660D01*
X2541Y4200D02*
X2541Y4200D01*
D107*
X2015Y358D02*
D03*
X2205Y453D02*
D03*
Y262D02*
D03*
X1457Y2043D02*
D03*
X1647Y2138D02*
D03*
Y1948D02*
D03*
D108*
X1850Y1970D02*
D03*
Y2120D02*
D03*
X2392Y295D02*
D03*
Y445D02*
D03*
X3573Y1301D02*
D03*
Y1151D02*
D03*
X4758Y2650D02*
D03*
Y2800D02*
D03*
X5694Y310D02*
D03*
Y460D02*
D03*
X4675Y124D02*
D03*
Y-26D02*
D03*
X4551Y124D02*
D03*
Y-26D02*
D03*
X4932Y312D02*
D03*
Y462D02*
D03*
X4805Y312D02*
D03*
Y462D02*
D03*
X4552Y312D02*
D03*
Y462D02*
D03*
X4425Y312D02*
D03*
Y462D02*
D03*
X4162Y415D02*
D03*
Y265D02*
D03*
X163Y2615D02*
D03*
Y2465D02*
D03*
X2471Y2248D02*
D03*
Y2398D02*
D03*
X2471Y2702D02*
D03*
Y2552D02*
D03*
X3626Y2001D02*
D03*
Y2151D02*
D03*
X2825Y975D02*
D03*
Y825D02*
D03*
X2962Y825D02*
D03*
Y975D02*
D03*
X4758Y3052D02*
D03*
Y2902D02*
D03*
X3705Y790D02*
D03*
Y940D02*
D03*
X291Y2615D02*
D03*
Y2465D02*
D03*
D109*
X1912Y832D02*
D03*
X2062D02*
D03*
X1912Y957D02*
D03*
X2062D02*
D03*
X1077Y173D02*
D03*
X1227D02*
D03*
X4410Y3661D02*
D03*
X4260D02*
D03*
X5310Y2730D02*
D03*
X5160D02*
D03*
X3205Y1795D02*
D03*
X3355D02*
D03*
X5708Y2730D02*
D03*
X5558D02*
D03*
X544Y700D02*
D03*
X394D02*
D03*
X1075Y50D02*
D03*
X925D02*
D03*
X820Y700D02*
D03*
X670D02*
D03*
X1313Y1748D02*
D03*
X1163D02*
D03*
X925Y289D02*
D03*
X1075D02*
D03*
X2488Y825D02*
D03*
X2638D02*
D03*
X3065Y1480D02*
D03*
X3215D02*
D03*
X5351Y3265D02*
D03*
X5501D02*
D03*
D110*
X1107Y-320D02*
D03*
D111*
X935Y-155D02*
D03*
D112*
X1075Y-170D02*
D03*
X795D02*
D03*
D113*
X770Y-320D02*
D03*
D114*
X2169Y2415D02*
D03*
X1600D02*
D03*
D115*
X2329Y3715D02*
D03*
X1014Y3829D02*
D03*
D116*
X2250Y3445D02*
D03*
X2140D02*
D03*
X2030Y3464D02*
D03*
X1920Y3445D02*
D03*
X1810Y3464D02*
D03*
X1700Y3445D02*
D03*
X1590Y3404D02*
D03*
X1480Y3445D02*
D03*
D117*
X4590Y3176D02*
D03*
D118*
Y3051D02*
D03*
D119*
X4315Y3431D02*
D03*
Y2796D02*
D03*
D120*
X671Y2275D02*
D03*
X544D02*
D03*
X417D02*
D03*
X290D02*
D03*
X163D02*
D03*
X671Y925D02*
D03*
X544D02*
D03*
X417D02*
D03*
X290D02*
D03*
X163D02*
D03*
D121*
X771Y1325D02*
D03*
D122*
X2421Y1125D02*
D03*
D123*
Y1075D02*
D03*
Y1025D02*
D03*
Y975D02*
D03*
X2654D02*
D03*
Y1025D02*
D03*
Y1075D02*
D03*
Y1125D02*
D03*
D124*
X2488Y959D02*
D03*
X2538D02*
D03*
X2588D02*
D03*
Y1141D02*
D03*
X2538D02*
D03*
X2488D02*
D03*
D125*
X2895Y1126D02*
D03*
Y1276D02*
D03*
D126*
X2820Y1151D02*
D03*
Y1251D02*
D03*
X2970D02*
D03*
D127*
Y1151D02*
D03*
D128*
X4852Y3743D02*
D03*
X5591D02*
D03*
D129*
X5336D02*
D03*
X5106D02*
D03*
D130*
X5351Y3463D02*
D03*
X5286D02*
D03*
X5221D02*
D03*
X5156D02*
D03*
X5091D02*
D03*
D131*
X3766Y2171D02*
D03*
Y1981D02*
D03*
D132*
X3383Y1330D02*
D03*
X3073D02*
D03*
D133*
X4933Y3052D02*
D03*
Y2747D02*
D03*
D134*
X5350Y3085D02*
D03*
X5655D02*
D03*
D135*
X4884Y-315D02*
D03*
X5834D02*
D03*
X5719Y63D02*
D03*
X5479D02*
D03*
X5359D02*
D03*
X5239D02*
D03*
X5119D02*
D03*
X5599D02*
D03*
X1282Y1526D02*
D03*
X1402D02*
D03*
X1523D02*
D03*
X1642D02*
D03*
X1762D02*
D03*
X1877Y1149D02*
D03*
X1048D02*
D03*
D136*
X4999Y63D02*
D03*
X1162Y1526D02*
D03*
D137*
X5072Y1695D02*
D03*
D138*
X5822Y745D02*
D03*
X5695D02*
D03*
X5568D02*
D03*
X5441D02*
D03*
X5314D02*
D03*
X5187D02*
D03*
X5060D02*
D03*
X4933D02*
D03*
X4806D02*
D03*
X4679D02*
D03*
X4552D02*
D03*
X4425D02*
D03*
X4298D02*
D03*
X4171D02*
D03*
Y2445D02*
D03*
X4298D02*
D03*
X4425D02*
D03*
X4552D02*
D03*
X4679D02*
D03*
X4806D02*
D03*
X4933D02*
D03*
X5060D02*
D03*
X5187D02*
D03*
X5314D02*
D03*
X5441D02*
D03*
X5568D02*
D03*
X5695D02*
D03*
D139*
X4071Y1024D02*
D03*
Y1151D02*
D03*
Y1278D02*
D03*
Y1405D02*
D03*
Y1532D02*
D03*
Y1659D02*
D03*
Y1786D02*
D03*
Y1913D02*
D03*
Y2040D02*
D03*
Y2167D02*
D03*
D140*
X5822Y2445D02*
D03*
D141*
X4700Y3400D02*
D03*
D142*
X3283Y4550D02*
D03*
X2938D02*
D03*
D143*
X3111Y4672D02*
D03*
Y4427D02*
D03*
D144*
X3178Y4592D02*
D03*
X3043D02*
D03*
X3178Y4507D02*
D03*
X3043D02*
D03*
D145*
X3145Y2017D02*
D03*
X3355Y2112D02*
D03*
Y1923D02*
D03*
D146*
X5692Y3320D02*
D03*
X145Y3190D02*
D03*
X3370Y3133D02*
D03*
X3830Y3061D02*
D03*
X435Y3712D02*
D03*
D147*
X750Y-305D02*
D03*
X1120D02*
D03*
X5310Y2640D02*
D03*
X2167Y1593D02*
D03*
X3354Y2960D02*
D03*
X2817Y228D02*
D03*
X5535Y568D02*
D03*
X2780Y1363D02*
D03*
X4225Y1362D02*
D03*
X3824Y794D02*
D03*
X3900Y725D02*
D03*
X4450Y55D02*
D03*
X5510Y1729D02*
D03*
X1737Y678D02*
D03*
X1626Y671D02*
D03*
X5645Y1729D02*
D03*
X5205Y3085D02*
D03*
X5183Y2975D02*
D03*
X488Y3570D02*
D03*
X3152Y3160D02*
D03*
X4283Y242D02*
D03*
X4167Y177D02*
D03*
X470Y-13D02*
D03*
X430Y585D02*
D03*
X4925Y3D02*
D03*
X5792Y2730D02*
D03*
X3510Y2002D02*
D03*
X4471Y-26D02*
D03*
X3278Y2317D02*
D03*
X565Y1360D02*
D03*
X2430Y3405D02*
D03*
X3583Y-220D02*
D03*
X5645Y1814D02*
D03*
X2748Y-129D02*
D03*
X2883D02*
D03*
Y-214D02*
D03*
X586Y1814D02*
D03*
X3442Y778D02*
D03*
X2685Y447D02*
D03*
X1635D02*
D03*
X1260Y580D02*
D03*
X835Y333D02*
D03*
X3033Y975D02*
D03*
X3065Y1585D02*
D03*
X4260Y-250D02*
D03*
X4116Y-245D02*
D03*
X2575Y2177D02*
D03*
X255Y-242D02*
D03*
X2473Y2103D02*
D03*
X2248Y2167D02*
D03*
X2383Y2398D02*
D03*
X1532Y1148D02*
D03*
X1162Y1845D02*
D03*
X290Y2712D02*
D03*
X162Y2708D02*
D03*
X2070Y2138D02*
D03*
X1248Y3515D02*
D03*
X1160Y3115D02*
D03*
Y2837D02*
D03*
Y2965D02*
D03*
X850Y3830D02*
D03*
X1565Y2837D02*
D03*
X1810Y3592D02*
D03*
X476Y2872D02*
D03*
X923Y185D02*
D03*
X1733Y1007D02*
D03*
X2042Y1223D02*
D03*
X562Y-278D02*
D03*
X1282Y1633D02*
D03*
X2872Y4343D02*
D03*
X3537Y4641D02*
D03*
X2721Y4648D02*
D03*
X2811Y4588D02*
D03*
X3043Y4507D02*
D03*
Y4592D02*
D03*
X3178Y4507D02*
D03*
Y4592D02*
D03*
X4883Y2208D02*
D03*
X4610Y1760D02*
D03*
X4595Y2244D02*
D03*
X4597Y2642D02*
D03*
X4005Y2295D02*
D03*
X3855Y2570D02*
D03*
X3780Y2480D02*
D03*
X3773Y2268D02*
D03*
X3765Y1877D02*
D03*
X3125Y2220D02*
D03*
X4072Y3662D02*
D03*
X4447Y3177D02*
D03*
X3445Y2308D02*
D03*
X3135Y2690D02*
D03*
X3375Y2220D02*
D03*
X2167Y3140D02*
D03*
X3610Y1692D02*
D03*
X3523Y-163D02*
D03*
X3635Y-100D02*
D03*
X1453Y838D02*
D03*
X3508Y1620D02*
D03*
X2845Y1745D02*
D03*
X405Y3252D02*
D03*
X658Y2618D02*
D03*
X4306Y1301D02*
D03*
X4682Y1719D02*
D03*
X2854Y1993D02*
D03*
X3507Y2467D02*
D03*
X3578Y1545D02*
D03*
X5719Y-79D02*
D03*
X4932Y199D02*
D03*
X5048Y192D02*
D03*
X4805Y200D02*
D03*
X2434Y1574D02*
D03*
X4552Y216D02*
D03*
X2881Y2917D02*
D03*
X3356Y426D02*
D03*
X3450Y342D02*
D03*
X2599Y2504D02*
D03*
X4311Y2636D02*
D03*
X3065Y1720D02*
D03*
X3439Y1546D02*
D03*
X1517Y1032D02*
D03*
X1777Y841D02*
D03*
X3369Y1479D02*
D03*
X3343Y921D02*
D03*
X3411Y1200D02*
D03*
X3239Y1161D02*
D03*
X5766Y2055D02*
D03*
X3079Y2806D02*
D03*
X262Y3399D02*
D03*
X4830Y3533D02*
D03*
X2733Y835D02*
D03*
X4298Y984D02*
D03*
X2310Y2010D02*
D03*
X2630Y645D02*
D03*
X2392Y1352D02*
D03*
X2659Y1385D02*
D03*
X2552Y1227D02*
D03*
X2312Y1420D02*
D03*
X2497Y1349D02*
D03*
X3900Y1877D02*
D03*
X3165Y993D02*
D03*
X2890Y1207D02*
D03*
X3692Y1084D02*
D03*
X3795Y1150D02*
D03*
X3728Y643D02*
D03*
X3578Y1060D02*
D03*
X3580Y858D02*
D03*
X3280Y840D02*
D03*
X4065Y303D02*
D03*
X3565Y488D02*
D03*
X3644Y530D02*
D03*
X3933Y358D02*
D03*
X3948Y210D02*
D03*
X2640Y208D02*
D03*
X3100Y805D02*
D03*
X5510Y1814D02*
D03*
X2465Y3030D02*
D03*
X1700Y3175D02*
D03*
X1590Y3173D02*
D03*
X2250Y3160D02*
D03*
X586Y1729D02*
D03*
X451D02*
D03*
X735Y2439D02*
D03*
X704Y2526D02*
D03*
X3805Y1018D02*
D03*
X3612Y985D02*
D03*
X4463Y-235D02*
D03*
X3972Y3278D02*
D03*
X3522Y1923D02*
D03*
X3450Y1720D02*
D03*
X3628Y3090D02*
D03*
X285Y2023D02*
D03*
X163Y2030D02*
D03*
X625Y2015D02*
D03*
X5275Y-312D02*
D03*
X5197Y-123D02*
D03*
X5372Y-120D02*
D03*
X5658Y1060D02*
D03*
X451Y1814D02*
D03*
X5442Y1530D02*
D03*
X2561Y-214D02*
D03*
X2490Y203D02*
D03*
X3179Y624D02*
D03*
X3080Y638D02*
D03*
X3150Y490D02*
D03*
X3053Y465D02*
D03*
X3055Y305D02*
D03*
X2328Y658D02*
D03*
X2241Y895D02*
D03*
X2405Y855D02*
D03*
X2319Y860D02*
D03*
X1457Y1810D02*
D03*
X1850Y1840D02*
D03*
X2015Y195D02*
D03*
X1350Y1850D02*
D03*
X5030Y3055D02*
D03*
X5265Y2198D02*
D03*
X5730Y158D02*
D03*
X5828Y948D02*
D03*
X4880Y2002D02*
D03*
X3090Y-180D02*
D03*
X5625Y-73D02*
D03*
X5117Y-25D02*
D03*
X3380Y-308D02*
D03*
X2748Y-214D02*
D03*
X3497Y-5D02*
D03*
X3588Y-18D02*
D03*
X4565Y1040D02*
D03*
X4630Y1190D02*
D03*
D148*
X6200Y0D02*
D03*
X6200Y3550D02*
D03*
X0Y3550D02*
D03*
Y0D02*
D03*
D149*
X1649Y-140D02*
D03*
X1839D02*
D03*
X2662Y3584D02*
D03*
X2862D02*
D03*
X3062D02*
D03*
X3262D02*
D03*
X3399Y4852D02*
D03*
X3199D02*
D03*
X2999D02*
D03*
X2799D02*
D03*
D150*
X5639Y3743D02*
D03*
X4804D02*
D03*
D151*
X5444Y3438D02*
D03*
X4999D02*
D03*
M02*
