G04 Layer_Physical_Order=3*
G04 Layer_Color=16440176*
%FSLAX42Y42*%
%MOMM*%
G71*
G01*
G75*
%ADD49C,0.20*%
%ADD50C,0.25*%
%ADD51C,0.30*%
%ADD52C,1.80*%
%ADD53C,0.60*%
%ADD55C,1.60*%
%ADD68C,0.40*%
G36*
X2012Y3431D02*
X2006Y3427D01*
X2006Y3427D01*
X1762Y3183D01*
X1749Y3187D01*
X1747Y3195D01*
X1736Y3211D01*
X1720Y3222D01*
X1704Y3225D01*
X1698Y3238D01*
X1904Y3443D01*
X2008D01*
X2012Y3431D01*
D02*
G37*
G36*
X600Y3950D02*
X2975D01*
X2975Y3950D01*
X3225D01*
X3225Y3950D01*
Y3950D01*
X5870D01*
Y995D01*
X5857Y988D01*
X5847Y995D01*
X5828Y998D01*
X5808Y995D01*
X5791Y984D01*
X5780Y967D01*
X5777Y948D01*
X5779Y936D01*
X5777Y928D01*
X5777Y928D01*
Y198D01*
X5765Y195D01*
X5750Y205D01*
X5730Y208D01*
X5711Y205D01*
X5694Y194D01*
X5683Y177D01*
X5679Y158D01*
X5683Y138D01*
X5692Y125D01*
X5434Y-133D01*
X5422Y-126D01*
X5423Y-120D01*
X5420Y-100D01*
X5409Y-84D01*
X5403Y-80D01*
Y930D01*
X5787Y1314D01*
X5787Y1314D01*
X5794Y1324D01*
X5796Y1336D01*
X5796Y1336D01*
Y2016D01*
X5802Y2019D01*
X5813Y2036D01*
X5817Y2055D01*
X5813Y2075D01*
X5802Y2091D01*
X5785Y2102D01*
X5766Y2106D01*
X5746Y2102D01*
X5730Y2091D01*
X5719Y2075D01*
X5715Y2055D01*
X5719Y2036D01*
X5730Y2019D01*
X5735Y2016D01*
Y1348D01*
X5351Y964D01*
X5344Y954D01*
X5342Y943D01*
X5342Y942D01*
Y-80D01*
X5336Y-84D01*
X5325Y-100D01*
X5322Y-120D01*
X5325Y-140D01*
X5336Y-156D01*
X5341Y-159D01*
X5337Y-172D01*
X5236D01*
X5233Y-159D01*
X5234Y-159D01*
X5245Y-142D01*
X5248Y-123D01*
X5245Y-103D01*
X5234Y-86D01*
X5217Y-75D01*
X5197Y-72D01*
X5178Y-75D01*
X5161Y-86D01*
X5150Y-103D01*
X5147Y-123D01*
X5150Y-142D01*
X5161Y-159D01*
X5162Y-159D01*
X5159Y-172D01*
X4873D01*
X4728Y-26D01*
Y207D01*
X4728Y208D01*
X4725Y219D01*
X4719Y229D01*
X4719Y229D01*
X4446Y502D01*
X4436Y508D01*
X4424Y511D01*
X4424Y511D01*
X4043D01*
X4039Y522D01*
X4516Y1000D01*
X4527Y1003D01*
X4534Y1001D01*
X4545Y993D01*
X4565Y989D01*
X4585Y993D01*
X4601Y1004D01*
X4601Y1004D01*
X4841D01*
X4902Y944D01*
Y238D01*
X4896Y235D01*
X4885Y218D01*
X4881Y199D01*
X4885Y179D01*
X4896Y163D01*
X4913Y152D01*
X4932Y148D01*
X4952Y152D01*
X4968Y163D01*
X4979Y179D01*
X4983Y199D01*
X4979Y218D01*
X4968Y235D01*
X4963Y238D01*
Y956D01*
X4963Y956D01*
X4960Y968D01*
X4954Y978D01*
X4954Y978D01*
X4875Y1057D01*
X4865Y1063D01*
X4853Y1066D01*
X4853Y1066D01*
X4608D01*
X4601Y1076D01*
X4585Y1087D01*
X4569Y1090D01*
X4563Y1103D01*
X4564Y1103D01*
X4564Y1103D01*
X4571Y1113D01*
X4573Y1125D01*
X4573Y1125D01*
Y1162D01*
X4586Y1166D01*
X4594Y1154D01*
X4610Y1143D01*
X4630Y1139D01*
X4650Y1143D01*
X4666Y1154D01*
X4677Y1170D01*
X4681Y1190D01*
X4677Y1210D01*
X4666Y1226D01*
X4650Y1237D01*
X4630Y1241D01*
X4610Y1237D01*
X4594Y1226D01*
X4586Y1214D01*
X4573Y1218D01*
Y1709D01*
X4586Y1716D01*
X4590Y1713D01*
X4610Y1709D01*
X4620Y1711D01*
X4634Y1703D01*
X4635Y1700D01*
X4646Y1683D01*
X4662Y1672D01*
X4682Y1669D01*
X4702Y1672D01*
X4718Y1683D01*
X4729Y1700D01*
X4733Y1719D01*
X4729Y1739D01*
X4718Y1756D01*
X4702Y1767D01*
X4682Y1770D01*
X4672Y1768D01*
X4657Y1777D01*
X4657Y1780D01*
X4646Y1796D01*
X4629Y1807D01*
X4610Y1811D01*
X4590Y1807D01*
X4586Y1805D01*
X4573Y1811D01*
Y2058D01*
X4595Y2080D01*
X4785D01*
X4785Y2080D01*
X4797Y2082D01*
X4807Y2089D01*
X4876Y2158D01*
X4883Y2157D01*
X4902Y2160D01*
X4919Y2171D01*
X4930Y2188D01*
X4933Y2208D01*
X4930Y2227D01*
X4919Y2244D01*
X4902Y2255D01*
X4883Y2258D01*
X4863Y2255D01*
X4846Y2244D01*
X4835Y2227D01*
X4832Y2208D01*
X4833Y2201D01*
X4773Y2141D01*
X4616D01*
X4611Y2153D01*
X4617Y2158D01*
X4617Y2158D01*
X4623Y2168D01*
X4626Y2180D01*
Y2205D01*
X4631Y2208D01*
X4642Y2225D01*
X4646Y2244D01*
X4642Y2264D01*
X4631Y2280D01*
X4615Y2291D01*
X4595Y2295D01*
X4575Y2291D01*
X4559Y2280D01*
X4548Y2264D01*
X4544Y2244D01*
X4548Y2225D01*
X4559Y2208D01*
X4564Y2205D01*
X4564Y2193D01*
X4494Y2122D01*
X4482Y2127D01*
Y2201D01*
X4494Y2212D01*
X4494Y2212D01*
X4501Y2222D01*
X4503Y2234D01*
X4503Y2234D01*
Y2572D01*
X4501Y2584D01*
X4494Y2594D01*
X4494Y2594D01*
X4329Y2758D01*
X4319Y2765D01*
X4308Y2767D01*
X4308Y2767D01*
X4022D01*
X4022Y2767D01*
X4010Y2765D01*
X4000Y2758D01*
X4000Y2758D01*
X3861Y2620D01*
X3855Y2621D01*
X3835Y2617D01*
X3819Y2606D01*
X3808Y2590D01*
X3804Y2570D01*
X3808Y2550D01*
X3819Y2534D01*
X3835Y2523D01*
X3855Y2519D01*
X3875Y2523D01*
X3891Y2534D01*
X3902Y2550D01*
X3906Y2570D01*
X3905Y2576D01*
X4034Y2706D01*
X4294D01*
X4302Y2697D01*
X4299Y2684D01*
X4292Y2683D01*
X4275Y2672D01*
X4264Y2656D01*
X4260Y2636D01*
X4264Y2616D01*
X4275Y2600D01*
X4292Y2589D01*
X4311Y2585D01*
X4318Y2586D01*
X4394Y2510D01*
Y2263D01*
X4385Y2254D01*
X4378Y2244D01*
X4376Y2232D01*
X4376Y2232D01*
Y1258D01*
X4168Y1050D01*
X4162Y1040D01*
X4159Y1028D01*
X4159Y1028D01*
Y907D01*
X3961Y708D01*
X3949Y714D01*
X3951Y725D01*
X3947Y745D01*
X3936Y761D01*
X3920Y772D01*
X3900Y776D01*
X3884Y773D01*
X3875Y779D01*
X3873Y782D01*
X3875Y794D01*
X3871Y814D01*
X3860Y830D01*
X3844Y841D01*
X3824Y845D01*
X3804Y841D01*
X3788Y830D01*
X3784Y825D01*
X3726D01*
X3726Y825D01*
X3715Y822D01*
X3705Y816D01*
X3705Y816D01*
X3620Y731D01*
X3484D01*
X3480Y744D01*
X3490Y758D01*
X3493Y778D01*
X3490Y797D01*
X3479Y814D01*
X3462Y825D01*
X3442Y828D01*
X3423Y825D01*
X3406Y814D01*
X3395Y797D01*
X3392Y778D01*
X3395Y758D01*
X3405Y744D01*
X3401Y731D01*
X3060D01*
X2972Y819D01*
Y957D01*
X2985Y959D01*
X2985Y955D01*
X2996Y939D01*
X3013Y928D01*
X3033Y924D01*
X3052Y928D01*
X3069Y939D01*
X3080Y955D01*
X3083Y975D01*
X3080Y995D01*
X3069Y1011D01*
X3052Y1022D01*
X3033Y1026D01*
X3032Y1027D01*
X3026Y1038D01*
X3031Y1044D01*
X3033Y1056D01*
Y1409D01*
X3032Y1414D01*
X3044Y1420D01*
X3240Y1224D01*
X3235Y1211D01*
X3220Y1208D01*
X3203Y1197D01*
X3192Y1181D01*
X3188Y1161D01*
X3192Y1142D01*
X3203Y1125D01*
X3209Y1121D01*
Y1039D01*
X3196Y1032D01*
X3185Y1040D01*
X3165Y1044D01*
X3145Y1040D01*
X3129Y1029D01*
X3118Y1012D01*
X3114Y993D01*
X3118Y973D01*
X3129Y957D01*
X3145Y946D01*
X3165Y942D01*
X3179Y945D01*
X3185Y933D01*
X3107Y855D01*
X3100Y856D01*
X3081Y852D01*
X3064Y841D01*
X3053Y825D01*
X3049Y805D01*
X3053Y786D01*
X3064Y769D01*
X3081Y758D01*
X3100Y754D01*
X3120Y758D01*
X3136Y769D01*
X3147Y786D01*
X3151Y805D01*
X3150Y811D01*
X3261Y923D01*
X3261Y923D01*
X3268Y932D01*
X3270Y944D01*
Y1121D01*
X3275Y1125D01*
X3286Y1142D01*
X3290Y1160D01*
X3291Y1161D01*
X3301Y1170D01*
X3307Y1169D01*
X3307Y1169D01*
X3372D01*
X3375Y1164D01*
X3392Y1153D01*
X3411Y1149D01*
X3431Y1153D01*
X3447Y1164D01*
X3458Y1180D01*
X3462Y1200D01*
X3458Y1219D01*
X3447Y1236D01*
X3431Y1247D01*
X3411Y1251D01*
X3392Y1247D01*
X3375Y1236D01*
X3372Y1230D01*
X3320D01*
X3026Y1525D01*
X3027Y1537D01*
X3037Y1543D01*
X3045Y1538D01*
X3065Y1534D01*
X3085Y1538D01*
X3101Y1549D01*
X3112Y1565D01*
X3116Y1585D01*
X3112Y1605D01*
X3101Y1621D01*
X3085Y1632D01*
X3065Y1636D01*
X3045Y1632D01*
X3037Y1627D01*
X3025Y1634D01*
Y1671D01*
X3037Y1678D01*
X3045Y1673D01*
X3065Y1669D01*
X3084Y1673D01*
X3101Y1684D01*
X3112Y1700D01*
X3115Y1714D01*
X3128Y1719D01*
X3214Y1632D01*
X3214Y1632D01*
X3322Y1525D01*
X3322Y1525D01*
X3324Y1523D01*
X3329Y1509D01*
X3328Y1507D01*
X3322Y1499D01*
X3318Y1479D01*
X3322Y1460D01*
X3333Y1443D01*
X3350Y1432D01*
X3369Y1428D01*
X3389Y1432D01*
X3405Y1443D01*
X3416Y1460D01*
X3420Y1479D01*
X3419Y1486D01*
X3430Y1497D01*
X3439Y1495D01*
X3458Y1499D01*
X3475Y1510D01*
X3486Y1527D01*
X3490Y1546D01*
X3487Y1561D01*
X3495Y1571D01*
X3497Y1572D01*
X3508Y1570D01*
X3520Y1572D01*
X3524Y1570D01*
X3530Y1561D01*
X3527Y1545D01*
X3531Y1526D01*
X3542Y1509D01*
X3558Y1498D01*
X3578Y1495D01*
X3598Y1498D01*
X3614Y1509D01*
X3625Y1526D01*
X3629Y1545D01*
X3625Y1565D01*
X3614Y1582D01*
X3598Y1593D01*
X3578Y1596D01*
X3565Y1594D01*
X3562Y1596D01*
X3555Y1605D01*
X3558Y1620D01*
X3555Y1640D01*
X3544Y1657D01*
X3527Y1668D01*
X3508Y1671D01*
X3488Y1668D01*
X3471Y1657D01*
X3460Y1640D01*
X3457Y1620D01*
X3459Y1606D01*
X3451Y1596D01*
X3450Y1595D01*
X3439Y1597D01*
X3419Y1593D01*
X3403Y1582D01*
X3399Y1577D01*
X3356D01*
X3258Y1676D01*
X3258Y1676D01*
X3065Y1868D01*
Y2201D01*
X3077Y2203D01*
X3078Y2200D01*
X3089Y2184D01*
X3105Y2173D01*
X3125Y2169D01*
X3145Y2173D01*
X3161Y2184D01*
X3172Y2200D01*
X3176Y2220D01*
X3172Y2240D01*
X3161Y2256D01*
X3145Y2267D01*
X3125Y2271D01*
X3105Y2267D01*
X3089Y2256D01*
X3078Y2240D01*
X3077Y2237D01*
X3065Y2239D01*
Y2339D01*
X3376Y2650D01*
X3383Y2660D01*
X3385Y2672D01*
X3385Y2672D01*
Y2920D01*
X3391Y2924D01*
X3402Y2940D01*
X3405Y2960D01*
X3402Y2979D01*
X3391Y2996D01*
X3374Y3007D01*
X3354Y3011D01*
X3335Y3007D01*
X3318Y2996D01*
X3307Y2979D01*
X3303Y2960D01*
X3307Y2940D01*
X3318Y2924D01*
X3324Y2920D01*
Y2685D01*
X3034Y2395D01*
X3007Y2422D01*
X2997Y2429D01*
X2985Y2431D01*
X2985Y2431D01*
X2644D01*
X2629Y2446D01*
Y2464D01*
X2635Y2468D01*
X2646Y2484D01*
X2650Y2504D01*
X2646Y2524D01*
X2635Y2540D01*
X2618Y2551D01*
X2599Y2555D01*
X2579Y2551D01*
X2570Y2545D01*
X2562Y2555D01*
X2875Y2868D01*
X2881Y2866D01*
X2901Y2870D01*
X2917Y2881D01*
X2928Y2898D01*
X2932Y2917D01*
X2928Y2937D01*
X2917Y2953D01*
X2901Y2964D01*
X2881Y2968D01*
X2862Y2964D01*
X2845Y2953D01*
X2834Y2937D01*
X2830Y2917D01*
X2832Y2911D01*
X2481Y2561D01*
X2475Y2551D01*
X2472Y2539D01*
X2472Y2539D01*
Y2457D01*
X2472Y2457D01*
X2475Y2445D01*
X2481Y2436D01*
X2578Y2339D01*
X2578Y2339D01*
X2587Y2333D01*
X2599Y2330D01*
X2956D01*
X2964Y2323D01*
Y1794D01*
X2951Y1789D01*
X2615Y2125D01*
X2612Y2127D01*
X2611Y2141D01*
X2611Y2142D01*
X2622Y2158D01*
X2626Y2177D01*
X2622Y2197D01*
X2611Y2214D01*
X2595Y2225D01*
X2575Y2228D01*
X2555Y2225D01*
X2539Y2214D01*
X2528Y2197D01*
X2524Y2177D01*
X2528Y2158D01*
X2536Y2146D01*
X2530Y2134D01*
X2513D01*
X2509Y2139D01*
X2493Y2150D01*
X2473Y2154D01*
X2453Y2150D01*
X2437Y2139D01*
X2426Y2123D01*
X2422Y2103D01*
X2426Y2083D01*
X2437Y2067D01*
X2453Y2056D01*
X2473Y2052D01*
X2493Y2056D01*
X2509Y2067D01*
X2513Y2072D01*
X2581D01*
X2846Y1808D01*
X2841Y1795D01*
X2826Y1792D01*
X2809Y1781D01*
X2798Y1764D01*
X2794Y1745D01*
X2798Y1725D01*
X2809Y1709D01*
X2826Y1698D01*
X2845Y1694D01*
X2865Y1698D01*
X2881Y1709D01*
X2892Y1725D01*
X2893Y1729D01*
X2907Y1735D01*
X2911Y1732D01*
Y1470D01*
X2911Y1470D01*
X2913Y1458D01*
X2920Y1448D01*
X2972Y1396D01*
Y1069D01*
X2920Y1017D01*
X2913Y1007D01*
X2911Y995D01*
X2911Y995D01*
Y806D01*
X2911Y806D01*
X2913Y795D01*
X2920Y785D01*
X3026Y679D01*
X3026Y679D01*
X3030Y676D01*
X3038Y665D01*
X3033Y657D01*
X3029Y638D01*
X3033Y618D01*
X3044Y601D01*
X3049Y598D01*
X3045Y586D01*
X2733D01*
X2730Y586D01*
X2730Y586D01*
X2661D01*
X2659Y589D01*
X2661Y606D01*
X2666Y609D01*
X2677Y625D01*
X2681Y645D01*
X2677Y665D01*
X2666Y681D01*
X2661Y685D01*
Y1322D01*
X2661Y1325D01*
X2671Y1336D01*
X2679Y1337D01*
X2695Y1348D01*
X2706Y1365D01*
X2710Y1385D01*
X2706Y1404D01*
X2695Y1421D01*
X2679Y1432D01*
X2659Y1435D01*
X2639Y1432D01*
X2638Y1431D01*
X2627Y1437D01*
Y1724D01*
X2625Y1735D01*
X2618Y1745D01*
X2618Y1745D01*
X2360Y2004D01*
X2361Y2010D01*
X2357Y2030D01*
X2346Y2046D01*
X2330Y2057D01*
X2310Y2061D01*
X2290Y2057D01*
X2284Y2053D01*
X2271Y2060D01*
Y2123D01*
X2284Y2131D01*
X2295Y2148D01*
X2298Y2167D01*
X2295Y2187D01*
X2284Y2204D01*
X2267Y2215D01*
X2248Y2218D01*
X2228Y2215D01*
X2211Y2204D01*
X2211Y2203D01*
X2198Y2206D01*
Y2555D01*
X2875Y3232D01*
X3298D01*
X3302Y3219D01*
X3292Y3211D01*
X3274Y3188D01*
X3263Y3161D01*
X3259Y3133D01*
X3263Y3104D01*
X3274Y3077D01*
X3292Y3054D01*
X3315Y3036D01*
X3341Y3025D01*
X3370Y3022D01*
X3399Y3025D01*
X3425Y3036D01*
X3448Y3054D01*
X3466Y3077D01*
X3477Y3104D01*
X3481Y3133D01*
X3477Y3161D01*
X3466Y3188D01*
X3448Y3211D01*
X3438Y3219D01*
X3442Y3232D01*
X3616D01*
X3733Y3115D01*
X3723Y3090D01*
X3719Y3061D01*
X3723Y3033D01*
X3734Y3006D01*
X3752Y2983D01*
X3775Y2965D01*
X3801Y2954D01*
X3830Y2950D01*
X3859Y2954D01*
X3885Y2965D01*
X3908Y2983D01*
X3926Y3006D01*
X3937Y3033D01*
X3941Y3061D01*
X3937Y3090D01*
X3926Y3117D01*
X3908Y3140D01*
X3885Y3158D01*
X3859Y3169D01*
X3830Y3172D01*
X3801Y3169D01*
X3776Y3158D01*
X3651Y3284D01*
X3641Y3291D01*
X3629Y3293D01*
X3629Y3293D01*
X2863D01*
X2862Y3293D01*
X2851Y3291D01*
X2841Y3284D01*
X2146Y2589D01*
X2139Y2579D01*
X2137Y2567D01*
X2137Y2567D01*
Y1632D01*
X2131Y1629D01*
X2120Y1612D01*
X2117Y1593D01*
X2120Y1573D01*
X2131Y1556D01*
X2137Y1553D01*
Y830D01*
X2137Y830D01*
X2139Y818D01*
X2146Y808D01*
X2280Y674D01*
X2277Y658D01*
X2281Y638D01*
X2292Y621D01*
X2308Y610D01*
X2328Y607D01*
X2347Y610D01*
X2364Y621D01*
X2375Y638D01*
X2379Y658D01*
X2375Y677D01*
X2364Y694D01*
X2347Y705D01*
X2333Y707D01*
X2204Y837D01*
X2205Y844D01*
X2218Y850D01*
X2221Y848D01*
X2241Y844D01*
X2260Y848D01*
X2272Y843D01*
X2272Y841D01*
X2283Y824D01*
X2300Y813D01*
X2319Y810D01*
X2339Y813D01*
X2356Y824D01*
X2365D01*
X2369Y819D01*
X2385Y808D01*
X2405Y804D01*
X2425Y808D01*
X2441Y819D01*
X2452Y835D01*
X2456Y855D01*
X2452Y875D01*
X2441Y891D01*
X2425Y902D01*
X2405Y906D01*
X2385Y902D01*
X2373Y894D01*
X2357Y894D01*
X2356Y897D01*
X2339Y908D01*
X2319Y911D01*
X2300Y908D01*
X2288Y912D01*
X2288Y915D01*
X2277Y931D01*
X2271Y935D01*
Y1251D01*
X2284Y1255D01*
X2288Y1248D01*
X2298Y1242D01*
X2310Y1239D01*
X2312D01*
X2324Y1242D01*
X2334Y1248D01*
X2341Y1258D01*
X2343Y1270D01*
X2341Y1282D01*
X2334Y1292D01*
X2324Y1298D01*
X2312Y1301D01*
X2310D01*
X2298Y1298D01*
X2288Y1292D01*
X2284Y1285D01*
X2271Y1289D01*
Y1372D01*
X2284Y1379D01*
X2293Y1373D01*
X2312Y1369D01*
X2332Y1373D01*
X2333Y1373D01*
X2344Y1366D01*
X2342Y1352D01*
X2345Y1333D01*
X2356Y1316D01*
X2373Y1305D01*
X2392Y1302D01*
X2412Y1305D01*
X2429Y1316D01*
X2437Y1329D01*
X2442Y1329D01*
X2451Y1328D01*
X2460Y1313D01*
X2477Y1302D01*
X2497Y1299D01*
X2516Y1302D01*
X2533Y1313D01*
X2544Y1330D01*
X2547Y1349D01*
X2544Y1369D01*
X2533Y1386D01*
X2516Y1397D01*
X2497Y1400D01*
X2477Y1397D01*
X2460Y1386D01*
X2452Y1373D01*
X2447Y1373D01*
X2438Y1374D01*
X2429Y1389D01*
X2412Y1400D01*
X2392Y1403D01*
X2373Y1400D01*
X2372Y1399D01*
X2361Y1407D01*
X2363Y1420D01*
X2360Y1440D01*
X2349Y1456D01*
X2332Y1467D01*
X2312Y1471D01*
X2293Y1467D01*
X2284Y1461D01*
X2271Y1468D01*
Y1960D01*
X2284Y1967D01*
X2290Y1963D01*
X2310Y1959D01*
X2316Y1960D01*
X2566Y1711D01*
Y1359D01*
X2566Y1359D01*
X2568Y1347D01*
X2575Y1337D01*
X2599Y1312D01*
Y1268D01*
X2587Y1265D01*
X2572Y1275D01*
X2552Y1278D01*
X2533Y1275D01*
X2516Y1264D01*
X2505Y1247D01*
X2502Y1227D01*
X2505Y1208D01*
X2516Y1191D01*
X2533Y1180D01*
X2552Y1177D01*
X2572Y1180D01*
X2587Y1190D01*
X2599Y1187D01*
Y685D01*
X2594Y681D01*
X2583Y665D01*
X2579Y645D01*
X2583Y625D01*
X2594Y609D01*
X2610Y598D01*
X2610Y597D01*
X2606Y586D01*
X2295D01*
X1712Y1169D01*
X1702Y1176D01*
X1690Y1178D01*
X1690Y1178D01*
X1572D01*
X1569Y1184D01*
X1552Y1195D01*
X1532Y1198D01*
X1513Y1195D01*
X1496Y1184D01*
X1485Y1167D01*
X1482Y1148D01*
X1485Y1128D01*
X1496Y1111D01*
X1513Y1100D01*
X1532Y1097D01*
X1552Y1100D01*
X1569Y1111D01*
X1572Y1117D01*
X1677D01*
X1724Y1070D01*
X1720Y1056D01*
X1713Y1055D01*
X1696Y1044D01*
X1685Y1027D01*
X1682Y1007D01*
X1683Y1001D01*
X1627Y946D01*
X1393D01*
X1381Y943D01*
X1371Y937D01*
X1371Y937D01*
X893Y458D01*
X887Y448D01*
X884Y437D01*
X884Y437D01*
Y372D01*
X872Y368D01*
X871Y369D01*
X855Y380D01*
X835Y383D01*
X815Y380D01*
X799Y369D01*
X788Y352D01*
X784Y333D01*
X788Y313D01*
X799Y296D01*
X815Y285D01*
X835Y282D01*
X855Y285D01*
X871Y296D01*
X872Y297D01*
X884Y293D01*
Y218D01*
X875Y205D01*
X872Y185D01*
X875Y165D01*
X886Y149D01*
X903Y138D01*
X923Y134D01*
X942Y138D01*
X959Y149D01*
X970Y165D01*
X973Y185D01*
X970Y205D01*
X959Y221D01*
X945Y230D01*
Y424D01*
X1400Y879D01*
X1405Y878D01*
X1410Y863D01*
X1406Y858D01*
X1403Y838D01*
X1406Y818D01*
X1417Y802D01*
X1434Y791D01*
X1453Y787D01*
X1464Y789D01*
X1576Y677D01*
X1575Y671D01*
X1579Y652D01*
X1590Y635D01*
X1607Y624D01*
X1626Y620D01*
X1646Y624D01*
X1662Y635D01*
X1673Y652D01*
X1676Y665D01*
X1689D01*
X1690Y658D01*
X1701Y642D01*
X1718Y631D01*
X1737Y627D01*
X1757Y631D01*
X1773Y642D01*
X1784Y658D01*
X1788Y678D01*
X1784Y697D01*
X1773Y714D01*
X1757Y725D01*
X1737Y729D01*
X1718Y725D01*
X1701Y714D01*
X1690Y697D01*
X1688Y684D01*
X1675D01*
X1673Y691D01*
X1662Y707D01*
X1646Y718D01*
X1626Y722D01*
X1619Y721D01*
X1504Y836D01*
X1504Y838D01*
X1501Y858D01*
X1491Y872D01*
X1495Y884D01*
X1640D01*
X1640Y884D01*
X1652Y887D01*
X1662Y893D01*
X1726Y958D01*
X1733Y957D01*
X1752Y960D01*
X1769Y971D01*
X1780Y988D01*
X1781Y995D01*
X1795Y999D01*
X1911Y883D01*
X1906Y871D01*
X1816D01*
X1813Y877D01*
X1796Y888D01*
X1777Y892D01*
X1757Y888D01*
X1741Y877D01*
X1730Y860D01*
X1726Y841D01*
X1730Y821D01*
X1741Y805D01*
X1757Y794D01*
X1777Y790D01*
X1796Y794D01*
X1813Y805D01*
X1816Y810D01*
X1920D01*
X2239Y491D01*
X2236Y480D01*
X2235Y478D01*
X1675D01*
X1671Y484D01*
X1655Y495D01*
X1635Y498D01*
X1615Y495D01*
X1599Y484D01*
X1588Y467D01*
X1584Y447D01*
X1588Y428D01*
X1599Y411D01*
X1615Y400D01*
X1635Y397D01*
X1655Y400D01*
X1671Y411D01*
X1675Y417D01*
X2645D01*
X2649Y411D01*
X2665Y400D01*
X2685Y397D01*
X2705Y400D01*
X2721Y411D01*
X2732Y428D01*
X2736Y447D01*
X2732Y466D01*
X2732Y469D01*
X2739Y479D01*
X2823D01*
X2956Y346D01*
X2956Y346D01*
X2966Y339D01*
X2977Y337D01*
X3003D01*
X3009Y326D01*
X3008Y325D01*
X3004Y305D01*
X3008Y286D01*
X3019Y269D01*
X3036Y258D01*
X3055Y254D01*
X3075Y258D01*
X3091Y269D01*
X3102Y286D01*
X3106Y305D01*
X3102Y325D01*
X3101Y326D01*
X3107Y337D01*
X3173D01*
X3375Y135D01*
Y-144D01*
X3375Y-144D01*
X3377Y-156D01*
X3384Y-166D01*
X3423Y-205D01*
X3418Y-217D01*
X3355D01*
X3343Y-219D01*
X3334Y-226D01*
X3334Y-226D01*
X3270Y-289D01*
X1872D01*
X1841Y-259D01*
X1846Y-245D01*
X1866Y-243D01*
X1892Y-232D01*
X1914Y-215D01*
X1931Y-193D01*
X1941Y-168D01*
X1943Y-153D01*
X1839D01*
Y-127D01*
X1943D01*
X1941Y-112D01*
X1931Y-87D01*
X1915Y-66D01*
X1916Y-59D01*
X1918Y-53D01*
X1947D01*
X2045Y-151D01*
X2045Y-151D01*
X2055Y-157D01*
X2066Y-159D01*
X2066Y-159D01*
X2530D01*
X2534Y-172D01*
X2525Y-178D01*
X2514Y-194D01*
X2510Y-214D01*
X2514Y-233D01*
X2525Y-250D01*
X2542Y-261D01*
X2561Y-265D01*
X2581Y-261D01*
X2597Y-250D01*
X2608Y-233D01*
X2612Y-214D01*
X2608Y-194D01*
X2597Y-178D01*
X2589Y-172D01*
X2593Y-159D01*
X2708D01*
X2711Y-163D01*
X2712Y-169D01*
Y-178D01*
X2712Y-178D01*
X2701Y-194D01*
X2697Y-214D01*
X2701Y-233D01*
X2712Y-250D01*
X2728Y-261D01*
X2748Y-265D01*
X2767Y-261D01*
X2784Y-250D01*
X2795Y-233D01*
X2799Y-214D01*
X2795Y-194D01*
X2784Y-178D01*
X2784Y-178D01*
Y-165D01*
X2784Y-165D01*
X2795Y-148D01*
X2799Y-129D01*
X2795Y-109D01*
X2784Y-93D01*
X2767Y-82D01*
X2748Y-78D01*
X2728Y-82D01*
X2712Y-93D01*
X2708Y-98D01*
X2079D01*
X1984Y-3D01*
X1987Y6D01*
X1989Y9D01*
X2701D01*
X2833Y-122D01*
X2832Y-129D01*
X2836Y-148D01*
X2847Y-165D01*
X2847Y-165D01*
Y-178D01*
X2847Y-178D01*
X2836Y-194D01*
X2832Y-214D01*
X2836Y-233D01*
X2847Y-250D01*
X2863Y-261D01*
X2883Y-265D01*
X2902Y-261D01*
X2919Y-250D01*
X2930Y-233D01*
X2934Y-214D01*
X2930Y-194D01*
X2919Y-178D01*
X2919Y-178D01*
Y-165D01*
X2919Y-165D01*
X2930Y-148D01*
X2934Y-129D01*
X2930Y-109D01*
X2919Y-93D01*
X2902Y-82D01*
X2883Y-78D01*
X2876Y-79D01*
X2736Y62D01*
X2726Y68D01*
X2714Y71D01*
X2714Y71D01*
X795D01*
X701Y165D01*
Y1729D01*
X701Y1730D01*
X698Y1741D01*
X692Y1751D01*
X692Y1751D01*
X635Y1808D01*
X636Y1814D01*
X633Y1834D01*
X622Y1850D01*
X605Y1861D01*
X586Y1865D01*
X566Y1861D01*
X549Y1850D01*
X538Y1834D01*
X535Y1814D01*
X538Y1794D01*
X549Y1778D01*
X550Y1778D01*
Y1765D01*
X549Y1765D01*
X538Y1749D01*
X535Y1729D01*
X538Y1709D01*
X549Y1693D01*
X566Y1682D01*
X586Y1678D01*
X605Y1682D01*
X622Y1693D01*
X627Y1701D01*
X639Y1697D01*
Y153D01*
X639Y152D01*
X642Y141D01*
X648Y131D01*
X758Y21D01*
X756Y11D01*
X754Y8D01*
X654D01*
X380Y282D01*
Y547D01*
X393Y551D01*
X394Y549D01*
X410Y538D01*
X430Y534D01*
X450Y538D01*
X466Y549D01*
X477Y565D01*
X481Y585D01*
X477Y605D01*
X466Y621D01*
X450Y632D01*
X430Y636D01*
X410Y632D01*
X394Y621D01*
X393Y619D01*
X380Y623D01*
Y1747D01*
X387Y1751D01*
X397Y1746D01*
X397Y1742D01*
X504D01*
X503Y1751D01*
X490Y1769D01*
X491Y1784D01*
X498Y1794D01*
X501Y1814D01*
X498Y1834D01*
X487Y1850D01*
X470Y1861D01*
X451Y1865D01*
X431Y1861D01*
X414Y1850D01*
X411Y1845D01*
X401D01*
X393Y1843D01*
X380Y1850D01*
Y2567D01*
X543Y2729D01*
X1382D01*
X1382Y2729D01*
X1394Y2732D01*
X1404Y2738D01*
X1501Y2836D01*
X1515Y2831D01*
X1518Y2818D01*
X1529Y2801D01*
X1545Y2790D01*
X1565Y2786D01*
X1584Y2790D01*
X1601Y2801D01*
X1612Y2818D01*
X1616Y2837D01*
X1612Y2857D01*
X1601Y2873D01*
X1584Y2884D01*
X1571Y2887D01*
X1566Y2900D01*
X2040Y3374D01*
X2390D01*
X2394Y3369D01*
X2410Y3358D01*
X2430Y3354D01*
X2450Y3358D01*
X2466Y3369D01*
X2477Y3385D01*
X2481Y3405D01*
X2477Y3425D01*
X2473Y3431D01*
X2480Y3443D01*
X3975D01*
X5017Y2401D01*
Y231D01*
X5012Y228D01*
X5001Y211D01*
X4997Y192D01*
X5001Y172D01*
X5012Y156D01*
X5028Y145D01*
X5048Y141D01*
X5068Y145D01*
X5084Y156D01*
X5095Y172D01*
X5099Y192D01*
X5095Y211D01*
X5084Y228D01*
X5079Y231D01*
Y2401D01*
X5091Y2406D01*
X5187Y2311D01*
Y2276D01*
X5166Y2255D01*
X5157Y2242D01*
X5154Y2226D01*
X5154Y2226D01*
Y1778D01*
X5154Y1777D01*
X5157Y1762D01*
X5166Y1749D01*
X5393Y1522D01*
X5395Y1510D01*
X5406Y1494D01*
X5423Y1483D01*
X5442Y1479D01*
X5462Y1483D01*
X5479Y1494D01*
X5490Y1510D01*
X5493Y1530D01*
X5490Y1550D01*
X5479Y1566D01*
X5462Y1577D01*
X5451Y1579D01*
X5236Y1794D01*
Y2143D01*
X5248Y2150D01*
X5265Y2147D01*
X5285Y2150D01*
X5301Y2161D01*
X5312Y2178D01*
X5316Y2198D01*
X5312Y2217D01*
X5301Y2234D01*
X5285Y2245D01*
X5266Y2248D01*
X5268Y2259D01*
Y2327D01*
X5265Y2343D01*
X5256Y2356D01*
X5256Y2356D01*
X5071Y2542D01*
Y3026D01*
X5077Y3035D01*
X5081Y3055D01*
X5077Y3075D01*
X5066Y3091D01*
X5050Y3102D01*
X5030Y3106D01*
X5010Y3102D01*
X4994Y3091D01*
X4983Y3075D01*
X4979Y3055D01*
X4983Y3035D01*
X4989Y3026D01*
Y2534D01*
X4977Y2529D01*
X4010Y3496D01*
X4000Y3502D01*
X3988Y3505D01*
X3988Y3505D01*
X3343D01*
X3337Y3517D01*
X3350Y3534D01*
X3360Y3558D01*
X3363Y3584D01*
X3360Y3610D01*
X3350Y3634D01*
X3334Y3655D01*
X3313Y3671D01*
X3288Y3681D01*
X3262Y3685D01*
X3236Y3681D01*
X3212Y3671D01*
X3191Y3655D01*
X3175Y3634D01*
X3169Y3620D01*
X3155D01*
X3150Y3634D01*
X3134Y3655D01*
X3113Y3671D01*
X3088Y3681D01*
X3062Y3685D01*
X3036Y3681D01*
X3012Y3671D01*
X2991Y3655D01*
X2975Y3634D01*
X2969Y3620D01*
X2955D01*
X2950Y3634D01*
X2934Y3655D01*
X2913Y3671D01*
X2888Y3681D01*
X2862Y3685D01*
X2836Y3681D01*
X2812Y3671D01*
X2791Y3655D01*
X2775Y3634D01*
X2772Y3628D01*
X2758D01*
X2754Y3637D01*
X2737Y3659D01*
X2715Y3676D01*
X2690Y3687D01*
X2675Y3689D01*
Y3584D01*
X2662D01*
Y3571D01*
X2558D01*
X2560Y3556D01*
X2570Y3531D01*
X2581Y3517D01*
X2574Y3505D01*
X1908D01*
X1907Y3506D01*
X1895Y3508D01*
X1883Y3506D01*
X1873Y3499D01*
X1873Y3499D01*
X1596Y3222D01*
X1590Y3223D01*
X1570Y3220D01*
X1554Y3209D01*
X1543Y3192D01*
X1539Y3173D01*
X1543Y3153D01*
X1554Y3136D01*
X1570Y3125D01*
X1590Y3122D01*
X1610Y3125D01*
X1626Y3136D01*
X1637Y3153D01*
X1639Y3161D01*
X1652D01*
X1653Y3155D01*
X1664Y3139D01*
X1680Y3128D01*
X1688Y3126D01*
X1692Y3113D01*
X1370Y2791D01*
X1201D01*
X1197Y2803D01*
X1207Y2818D01*
X1211Y2837D01*
X1207Y2857D01*
X1196Y2873D01*
X1180Y2884D01*
X1160Y2888D01*
X1140Y2884D01*
X1124Y2873D01*
X1113Y2857D01*
X1109Y2837D01*
X1113Y2818D01*
X1123Y2803D01*
X1119Y2791D01*
X530D01*
X530Y2791D01*
X518Y2788D01*
X508Y2782D01*
X328Y2601D01*
X321Y2591D01*
X319Y2580D01*
X319Y2580D01*
Y2073D01*
X308Y2067D01*
X305Y2070D01*
X285Y2073D01*
X265Y2070D01*
X249Y2059D01*
X238Y2042D01*
X234Y2023D01*
X238Y2003D01*
X249Y1986D01*
X265Y1975D01*
X285Y1972D01*
X305Y1975D01*
X308Y1978D01*
X319Y1972D01*
Y1763D01*
X319Y1762D01*
X319Y1762D01*
Y269D01*
X319Y269D01*
X321Y257D01*
X328Y248D01*
X620Y-44D01*
X620Y-44D01*
X630Y-51D01*
X641Y-53D01*
X641Y-53D01*
X1578D01*
X1582Y-65D01*
X1577Y-69D01*
X1561Y-90D01*
X1551Y-114D01*
X1548Y-140D01*
X1551Y-166D01*
X1561Y-190D01*
X1576Y-209D01*
X1573Y-222D01*
X1185D01*
X1152Y-188D01*
X1142Y-182D01*
X1130Y-179D01*
X1130Y-179D01*
X414D01*
X402Y-182D01*
X392Y-188D01*
X392Y-188D01*
X369Y-212D01*
X295D01*
X291Y-206D01*
X275Y-195D01*
X255Y-192D01*
X235Y-195D01*
X219Y-206D01*
X208Y-223D01*
X204Y-242D01*
X208Y-262D01*
X219Y-279D01*
X235Y-290D01*
X255Y-293D01*
X275Y-290D01*
X291Y-279D01*
X295Y-273D01*
X381D01*
X381Y-273D01*
X393Y-271D01*
X403Y-264D01*
X426Y-241D01*
X512D01*
X519Y-253D01*
X515Y-258D01*
X512Y-278D01*
X515Y-297D01*
X526Y-314D01*
X543Y-325D01*
X562Y-328D01*
X582Y-325D01*
X599Y-314D01*
X610Y-297D01*
X613Y-278D01*
X610Y-258D01*
X606Y-253D01*
X613Y-241D01*
X724D01*
X728Y-252D01*
X728Y-253D01*
X710Y-265D01*
X698Y-284D01*
X696Y-292D01*
X750D01*
X804D01*
X802Y-284D01*
X790Y-265D01*
X772Y-253D01*
X772Y-252D01*
X776Y-241D01*
X1094D01*
X1098Y-252D01*
X1098Y-253D01*
X1080Y-265D01*
X1068Y-284D01*
X1066Y-292D01*
X1120D01*
X1178D01*
X1185Y-283D01*
X1695D01*
X1695Y-283D01*
X1696Y-283D01*
X1779D01*
X1838Y-342D01*
X1848Y-348D01*
X1859Y-351D01*
X1859Y-351D01*
X3283D01*
X3283Y-351D01*
X3294Y-348D01*
X3304Y-342D01*
X3321Y-325D01*
X3334Y-329D01*
X3344Y-344D01*
X3360Y-355D01*
X3380Y-358D01*
X3400Y-355D01*
X3416Y-344D01*
X3417Y-342D01*
X3431Y-341D01*
X3434Y-344D01*
X3434Y-344D01*
X3444Y-351D01*
X3456Y-353D01*
X3456Y-353D01*
X4460D01*
X4460Y-353D01*
X4472Y-351D01*
X4481Y-344D01*
X4574Y-252D01*
X4580Y-242D01*
X4583Y-230D01*
X4583Y-230D01*
Y176D01*
X4588Y180D01*
X4599Y196D01*
X4603Y216D01*
X4599Y235D01*
X4588Y252D01*
X4572Y263D01*
X4552Y267D01*
X4533Y263D01*
X4516Y252D01*
X4505Y235D01*
X4501Y216D01*
X4505Y196D01*
X4516Y180D01*
X4522Y176D01*
Y11D01*
X4509Y7D01*
X4507Y10D01*
X4499Y15D01*
X4495Y32D01*
X4497Y35D01*
X4501Y55D01*
X4497Y75D01*
X4486Y91D01*
X4470Y102D01*
X4450Y106D01*
X4431Y102D01*
X4414Y91D01*
X4403Y75D01*
X4399Y55D01*
X4403Y35D01*
X4414Y19D01*
X4422Y14D01*
X4426Y-3D01*
X4424Y-7D01*
X4420Y-26D01*
X4424Y-46D01*
X4435Y-62D01*
X4452Y-73D01*
X4471Y-77D01*
X4491Y-73D01*
X4507Y-62D01*
X4509Y-59D01*
X4522Y-63D01*
Y-205D01*
X4519Y-207D01*
X4504Y-207D01*
X4499Y-199D01*
X4482Y-188D01*
X4463Y-184D01*
X4456Y-185D01*
X4389Y-118D01*
X4379Y-112D01*
X4367Y-109D01*
X4367Y-109D01*
X4125D01*
X4113Y-112D01*
X4103Y-118D01*
X4103Y-118D01*
X4020Y-202D01*
X3704D01*
X3666Y-163D01*
Y-140D01*
X3671Y-136D01*
X3682Y-119D01*
X3686Y-100D01*
X3682Y-80D01*
X3671Y-64D01*
X3655Y-53D01*
X3642Y-50D01*
X3635Y-38D01*
X3635Y-37D01*
X3639Y-18D01*
X3635Y2D01*
X3624Y18D01*
X3619Y22D01*
Y94D01*
X3872Y347D01*
X3884Y344D01*
X3886Y338D01*
X3897Y321D01*
X3913Y310D01*
X3933Y307D01*
X3952Y310D01*
X3969Y321D01*
X3980Y338D01*
X3984Y358D01*
X3980Y377D01*
X3969Y394D01*
X3952Y405D01*
X3947Y406D01*
X3943Y418D01*
X3974Y449D01*
X4412D01*
X4666Y195D01*
Y-39D01*
X4666Y-39D01*
X4669Y-51D01*
X4675Y-60D01*
X4839Y-224D01*
X4839Y-224D01*
X4849Y-231D01*
X4861Y-233D01*
X5407D01*
X5407Y-233D01*
X5419Y-231D01*
X5429Y-224D01*
X5566Y-88D01*
X5576Y-91D01*
X5578Y-93D01*
X5589Y-109D01*
X5605Y-120D01*
X5625Y-123D01*
X5645Y-120D01*
X5661Y-109D01*
X5662Y-107D01*
X5677D01*
X5683Y-115D01*
X5699Y-126D01*
X5719Y-130D01*
X5738Y-126D01*
X5755Y-115D01*
X5766Y-99D01*
X5770Y-79D01*
X5768Y-73D01*
X5829Y-12D01*
X5829Y-12D01*
X5836Y-2D01*
X5838Y10D01*
Y899D01*
X5847Y900D01*
X5857Y907D01*
X5870Y900D01*
Y-400D01*
X-26D01*
X-78Y-393D01*
X-129Y-379D01*
X-177Y-359D01*
X-223Y-333D01*
X-264Y-301D01*
X-301Y-264D01*
X-333Y-223D01*
X-359Y-177D01*
X-379Y-129D01*
X-393Y-78D01*
X-400Y-26D01*
Y0D01*
Y322D01*
X108Y323D01*
X108Y1999D01*
X121Y2003D01*
X126Y1994D01*
X143Y1983D01*
X163Y1979D01*
X182Y1983D01*
X199Y1994D01*
X210Y2011D01*
X213Y2030D01*
X210Y2050D01*
X199Y2066D01*
X182Y2077D01*
X163Y2081D01*
X143Y2077D01*
X126Y2066D01*
X121Y2058D01*
X108Y2061D01*
X108Y2676D01*
X121Y2680D01*
X126Y2671D01*
X143Y2660D01*
X162Y2657D01*
X182Y2660D01*
X199Y2671D01*
X210Y2688D01*
X213Y2708D01*
X210Y2727D01*
X199Y2744D01*
X182Y2755D01*
X162Y2758D01*
X143Y2755D01*
X126Y2744D01*
X121Y2735D01*
X108Y2739D01*
X108Y2870D01*
X-400Y2870D01*
Y3550D01*
X-400Y3576D01*
X-393Y3628D01*
X-379Y3679D01*
X-359Y3727D01*
X-333Y3773D01*
X-301Y3815D01*
X-264Y3852D01*
X-223Y3884D01*
X-177Y3910D01*
X-129Y3930D01*
X-78Y3943D01*
X-26Y3950D01*
X600D01*
X600Y3950D01*
D02*
G37*
G36*
X3359Y257D02*
X3369Y251D01*
X3381Y248D01*
X3606D01*
X3611Y237D01*
X3476Y102D01*
X3469Y92D01*
X3467Y80D01*
X3467Y80D01*
Y35D01*
X3461Y31D01*
X3450Y15D01*
X3449Y6D01*
X3436Y8D01*
Y147D01*
X3434Y159D01*
X3427Y169D01*
X3222Y375D01*
X3226Y388D01*
X3228Y389D01*
X3359Y257D01*
D02*
G37*
G36*
X3788Y758D02*
X3804Y747D01*
X3824Y743D01*
X3840Y746D01*
X3849Y740D01*
X3851Y737D01*
X3849Y725D01*
X3853Y705D01*
X3859Y697D01*
X3862Y686D01*
X3857Y679D01*
X3706Y528D01*
X3694Y534D01*
X3691Y550D01*
X3680Y566D01*
X3663Y577D01*
X3644Y581D01*
X3639Y580D01*
X3633Y592D01*
X3653Y612D01*
X3688D01*
X3691Y606D01*
X3708Y595D01*
X3728Y592D01*
X3747Y595D01*
X3764Y606D01*
X3775Y623D01*
X3778Y643D01*
X3775Y662D01*
X3764Y679D01*
X3747Y690D01*
X3728Y693D01*
X3708Y690D01*
X3691Y679D01*
X3688Y673D01*
X3667D01*
X3661Y686D01*
X3739Y763D01*
X3784D01*
X3788Y758D01*
D02*
G37*
G36*
X3611Y657D02*
X3540Y586D01*
X3229D01*
X3222Y598D01*
X3226Y604D01*
X3230Y624D01*
X3226Y643D01*
X3217Y657D01*
X3221Y670D01*
X3606D01*
X3611Y657D01*
D02*
G37*
G36*
X3521Y512D02*
X3518Y507D01*
X3514Y488D01*
X3518Y468D01*
X3519Y467D01*
X3513Y455D01*
X3396D01*
X3392Y462D01*
X3375Y473D01*
X3356Y477D01*
X3336Y473D01*
X3320Y462D01*
X3309Y445D01*
X3305Y426D01*
X3307Y414D01*
X3295Y408D01*
X3254Y449D01*
X3244Y456D01*
X3233Y458D01*
X3233Y458D01*
X3202D01*
X3196Y469D01*
X3197Y470D01*
X3201Y490D01*
X3197Y510D01*
X3195Y513D01*
X3201Y524D01*
X3514D01*
X3521Y512D01*
D02*
G37*
G36*
X3660Y4200D02*
X2540D01*
Y5015D01*
X3660D01*
Y4200D01*
D02*
G37*
G36*
X4413Y-229D02*
X4412Y-235D01*
X4416Y-255D01*
X4427Y-271D01*
X4439Y-279D01*
X4435Y-292D01*
X4307D01*
X4300Y-279D01*
X4307Y-270D01*
X4311Y-250D01*
X4307Y-230D01*
X4296Y-214D01*
X4280Y-203D01*
X4260Y-199D01*
X4240Y-203D01*
X4224Y-214D01*
X4213Y-230D01*
X4209Y-250D01*
X4213Y-270D01*
X4220Y-279D01*
X4213Y-292D01*
X4158D01*
X4155Y-286D01*
X4153Y-279D01*
X4163Y-264D01*
X4167Y-245D01*
X4163Y-225D01*
X4152Y-209D01*
X4135Y-198D01*
X4129Y-197D01*
X4125Y-183D01*
X4138Y-171D01*
X4355D01*
X4413Y-229D01*
D02*
G37*
%LPC*%
G36*
X504Y1716D02*
X463D01*
Y1675D01*
X472Y1677D01*
X490Y1689D01*
X503Y1707D01*
X504Y1716D01*
D02*
G37*
G36*
X1517Y1083D02*
X1498Y1079D01*
X1481Y1068D01*
X1470Y1051D01*
X1466Y1032D01*
X1470Y1012D01*
X1481Y996D01*
X1498Y985D01*
X1517Y981D01*
X1537Y985D01*
X1553Y996D01*
X1564Y1012D01*
X1568Y1032D01*
X1564Y1051D01*
X1553Y1068D01*
X1537Y1079D01*
X1517Y1083D01*
D02*
G37*
G36*
X3578Y1111D02*
X3558Y1107D01*
X3542Y1096D01*
X3531Y1080D01*
X3527Y1060D01*
X3531Y1041D01*
X3542Y1024D01*
X3558Y1013D01*
X3559Y1000D01*
X3559Y998D01*
X3666D01*
X3665Y1007D01*
X3652Y1025D01*
X3634Y1037D01*
X3632Y1038D01*
X3625Y1041D01*
X3629Y1060D01*
X3625Y1080D01*
X3614Y1096D01*
X3598Y1107D01*
X3578Y1111D01*
D02*
G37*
G36*
X5711Y1047D02*
X5670D01*
Y1006D01*
X5679Y1008D01*
X5697Y1020D01*
X5710Y1038D01*
X5711Y1047D01*
D02*
G37*
G36*
X5645D02*
X5604D01*
X5605Y1038D01*
X5618Y1020D01*
X5636Y1008D01*
X5645Y1006D01*
Y1047D01*
D02*
G37*
G36*
X438Y1716D02*
X397D01*
X398Y1707D01*
X411Y1689D01*
X429Y1677D01*
X438Y1675D01*
Y1716D01*
D02*
G37*
G36*
X5497Y1716D02*
X5456D01*
X5458Y1707D01*
X5470Y1689D01*
X5488Y1677D01*
X5497Y1675D01*
Y1716D01*
D02*
G37*
G36*
X5564D02*
X5523D01*
Y1675D01*
X5532Y1677D01*
X5550Y1689D01*
X5562Y1707D01*
X5564Y1716D01*
D02*
G37*
G36*
X3580Y909D02*
X3561Y905D01*
X3544Y894D01*
X3533Y877D01*
X3529Y858D01*
X3533Y838D01*
X3544Y821D01*
X3561Y810D01*
X3580Y807D01*
X3600Y810D01*
X3616Y821D01*
X3627Y838D01*
X3631Y858D01*
X3627Y877D01*
X3616Y894D01*
X3600Y905D01*
X3580Y909D01*
D02*
G37*
G36*
X3343Y972D02*
X3323Y968D01*
X3307Y957D01*
X3296Y941D01*
X3292Y921D01*
X3296Y902D01*
X3296Y901D01*
X3289Y889D01*
X3280Y891D01*
X3261Y887D01*
X3244Y876D01*
X3233Y860D01*
X3229Y840D01*
X3233Y821D01*
X3244Y804D01*
X3261Y793D01*
X3280Y789D01*
X3300Y793D01*
X3316Y804D01*
X3327Y821D01*
X3331Y840D01*
X3327Y860D01*
X3327Y860D01*
X3334Y872D01*
X3343Y870D01*
X3362Y874D01*
X3379Y885D01*
X3390Y902D01*
X3394Y921D01*
X3390Y941D01*
X3379Y957D01*
X3362Y968D01*
X3343Y972D01*
D02*
G37*
G36*
X3805Y1068D02*
X3785Y1065D01*
X3769Y1054D01*
X3758Y1037D01*
X3754Y1018D01*
X3758Y998D01*
X3769Y981D01*
X3785Y970D01*
X3805Y967D01*
X3825Y970D01*
X3841Y981D01*
X3852Y998D01*
X3856Y1018D01*
X3852Y1037D01*
X3841Y1054D01*
X3825Y1065D01*
X3805Y1068D01*
D02*
G37*
G36*
X3666Y972D02*
X3625D01*
Y931D01*
X3634Y933D01*
X3652Y945D01*
X3665Y963D01*
X3666Y972D01*
D02*
G37*
G36*
X3600D02*
X3559D01*
X3560Y963D01*
X3573Y945D01*
X3591Y933D01*
X3600Y931D01*
Y972D01*
D02*
G37*
G36*
X5645Y1114D02*
X5636Y1112D01*
X5618Y1100D01*
X5605Y1082D01*
X5604Y1073D01*
X5645D01*
Y1114D01*
D02*
G37*
G36*
X565Y1411D02*
X546Y1407D01*
X529Y1396D01*
X518Y1380D01*
X514Y1360D01*
X518Y1341D01*
X529Y1324D01*
X546Y1313D01*
X565Y1309D01*
X585Y1313D01*
X601Y1324D01*
X612Y1341D01*
X616Y1360D01*
X612Y1380D01*
X601Y1396D01*
X585Y1407D01*
X565Y1411D01*
D02*
G37*
G36*
X4225Y1413D02*
X4205Y1410D01*
X4189Y1399D01*
X4178Y1382D01*
X4174Y1362D01*
X4178Y1343D01*
X4189Y1326D01*
X4205Y1315D01*
X4225Y1312D01*
X4245Y1315D01*
X4246Y1316D01*
X4257Y1309D01*
X4256Y1301D01*
X4259Y1281D01*
X4270Y1264D01*
X4287Y1253D01*
X4306Y1250D01*
X4326Y1253D01*
X4343Y1264D01*
X4354Y1281D01*
X4357Y1301D01*
X4354Y1320D01*
X4343Y1337D01*
X4326Y1348D01*
X4306Y1351D01*
X4287Y1348D01*
X4286Y1347D01*
X4274Y1354D01*
X4276Y1362D01*
X4272Y1382D01*
X4261Y1399D01*
X4245Y1410D01*
X4225Y1413D01*
D02*
G37*
G36*
X2903Y1261D02*
Y1220D01*
X2944D01*
X2942Y1229D01*
X2930Y1247D01*
X2912Y1260D01*
X2903Y1261D01*
D02*
G37*
G36*
X1282Y1683D02*
X1263Y1680D01*
X1246Y1669D01*
X1235Y1652D01*
X1232Y1633D01*
X1235Y1613D01*
X1246Y1596D01*
X1263Y1585D01*
X1282Y1582D01*
X1302Y1585D01*
X1319Y1596D01*
X1330Y1613D01*
X1333Y1633D01*
X1330Y1652D01*
X1319Y1669D01*
X1302Y1680D01*
X1282Y1683D01*
D02*
G37*
G36*
X2434Y1625D02*
X2415Y1622D01*
X2398Y1611D01*
X2387Y1594D01*
X2384Y1574D01*
X2387Y1555D01*
X2398Y1538D01*
X2415Y1527D01*
X2434Y1524D01*
X2454Y1527D01*
X2471Y1538D01*
X2482Y1555D01*
X2485Y1574D01*
X2482Y1594D01*
X2471Y1611D01*
X2454Y1622D01*
X2434Y1625D01*
D02*
G37*
G36*
X2780Y1414D02*
X2761Y1410D01*
X2744Y1399D01*
X2733Y1382D01*
X2729Y1363D01*
X2733Y1343D01*
X2744Y1327D01*
X2761Y1315D01*
X2780Y1312D01*
X2800Y1315D01*
X2816Y1327D01*
X2827Y1343D01*
X2831Y1363D01*
X2827Y1382D01*
X2816Y1399D01*
X2800Y1410D01*
X2780Y1414D01*
D02*
G37*
G36*
X2877Y1261D02*
X2868Y1260D01*
X2850Y1247D01*
X2838Y1229D01*
X2836Y1220D01*
X2877D01*
Y1261D01*
D02*
G37*
G36*
Y1195D02*
X2836D01*
X2838Y1186D01*
X2850Y1168D01*
X2868Y1155D01*
X2877Y1154D01*
Y1195D01*
D02*
G37*
G36*
X3795Y1201D02*
X3775Y1197D01*
X3759Y1186D01*
X3748Y1170D01*
X3744Y1150D01*
X3748Y1130D01*
X3759Y1114D01*
X3775Y1103D01*
X3795Y1099D01*
X3815Y1103D01*
X3831Y1114D01*
X3842Y1130D01*
X3846Y1150D01*
X3842Y1170D01*
X3831Y1186D01*
X3815Y1197D01*
X3795Y1201D01*
D02*
G37*
G36*
X5670Y1114D02*
Y1073D01*
X5711D01*
X5710Y1082D01*
X5697Y1100D01*
X5679Y1112D01*
X5670Y1114D01*
D02*
G37*
G36*
X2042Y1273D02*
X2023Y1270D01*
X2006Y1259D01*
X1995Y1242D01*
X1992Y1223D01*
X1995Y1203D01*
X2006Y1186D01*
X2023Y1175D01*
X2042Y1172D01*
X2062Y1175D01*
X2079Y1186D01*
X2090Y1203D01*
X2093Y1223D01*
X2090Y1242D01*
X2079Y1259D01*
X2062Y1270D01*
X2042Y1273D01*
D02*
G37*
G36*
X2944Y1195D02*
X2903D01*
Y1154D01*
X2912Y1155D01*
X2930Y1168D01*
X2942Y1186D01*
X2944Y1195D01*
D02*
G37*
G36*
X3450Y1771D02*
X3430Y1767D01*
X3414Y1756D01*
X3403Y1740D01*
X3399Y1720D01*
X3403Y1700D01*
X3414Y1684D01*
X3430Y1673D01*
X3450Y1669D01*
X3470Y1673D01*
X3486Y1684D01*
X3497Y1700D01*
X3501Y1720D01*
X3497Y1740D01*
X3486Y1756D01*
X3470Y1767D01*
X3450Y1771D01*
D02*
G37*
G36*
X470Y38D02*
X451Y35D01*
X434Y24D01*
X423Y7D01*
X419Y-13D01*
X423Y-32D01*
X434Y-49D01*
X451Y-60D01*
X470Y-63D01*
X490Y-60D01*
X506Y-49D01*
X517Y-32D01*
X521Y-13D01*
X517Y7D01*
X506Y24D01*
X490Y35D01*
X470Y38D01*
D02*
G37*
G36*
X5171Y-38D02*
X5130D01*
Y-79D01*
X5139Y-77D01*
X5157Y-65D01*
X5170Y-47D01*
X5171Y-38D01*
D02*
G37*
G36*
X5105D02*
X5064D01*
X5065Y-47D01*
X5078Y-65D01*
X5096Y-77D01*
X5105Y-79D01*
Y-38D01*
D02*
G37*
G36*
X4925Y53D02*
X4905Y50D01*
X4889Y39D01*
X4878Y22D01*
X4874Y3D01*
X4878Y-17D01*
X4889Y-34D01*
X4905Y-45D01*
X4925Y-48D01*
X4945Y-45D01*
X4961Y-34D01*
X4972Y-17D01*
X4976Y3D01*
X4972Y22D01*
X4961Y39D01*
X4945Y50D01*
X4925Y53D01*
D02*
G37*
G36*
X4167Y228D02*
X4148Y225D01*
X4131Y214D01*
X4120Y197D01*
X4117Y177D01*
X4120Y158D01*
X4131Y141D01*
X4148Y130D01*
X4167Y127D01*
X4187Y130D01*
X4204Y141D01*
X4215Y158D01*
X4218Y177D01*
X4215Y197D01*
X4204Y214D01*
X4187Y225D01*
X4167Y228D01*
D02*
G37*
G36*
X5130Y29D02*
Y-12D01*
X5171D01*
X5170Y-3D01*
X5157Y15D01*
X5139Y27D01*
X5130Y29D01*
D02*
G37*
G36*
X5105D02*
X5096Y27D01*
X5078Y15D01*
X5065Y-3D01*
X5064Y-12D01*
X5105D01*
Y29D01*
D02*
G37*
G36*
X1107Y-318D02*
X1066D01*
X1068Y-327D01*
X1080Y-345D01*
X1098Y-357D01*
X1107Y-359D01*
Y-318D01*
D02*
G37*
G36*
X737D02*
X696D01*
X698Y-327D01*
X710Y-345D01*
X728Y-357D01*
X737Y-359D01*
Y-318D01*
D02*
G37*
G36*
X5275Y-262D02*
X5255Y-265D01*
X5239Y-276D01*
X5228Y-293D01*
X5224Y-312D01*
X5228Y-332D01*
X5239Y-349D01*
X5255Y-360D01*
X5275Y-363D01*
X5295Y-360D01*
X5311Y-349D01*
X5322Y-332D01*
X5326Y-312D01*
X5322Y-293D01*
X5311Y-276D01*
X5295Y-265D01*
X5275Y-262D01*
D02*
G37*
G36*
X804Y-318D02*
X763D01*
Y-359D01*
X772Y-357D01*
X790Y-345D01*
X802Y-327D01*
X804Y-318D01*
D02*
G37*
G36*
X0Y181D02*
X-35Y177D01*
X-69Y167D01*
X-100Y150D01*
X-128Y128D01*
X-150Y100D01*
X-167Y69D01*
X-177Y35D01*
X-181Y0D01*
X-177Y-35D01*
X-167Y-69D01*
X-150Y-100D01*
X-128Y-128D01*
X-100Y-150D01*
X-69Y-167D01*
X-35Y-177D01*
X0Y-181D01*
X35Y-177D01*
X69Y-167D01*
X100Y-150D01*
X128Y-128D01*
X150Y-100D01*
X167Y-69D01*
X177Y-35D01*
X181Y0D01*
X177Y35D01*
X167Y69D01*
X150Y100D01*
X128Y128D01*
X100Y150D01*
X69Y167D01*
X35Y177D01*
X0Y181D01*
D02*
G37*
G36*
X3090Y-129D02*
X3070Y-133D01*
X3054Y-144D01*
X3043Y-160D01*
X3039Y-180D01*
X3043Y-200D01*
X3054Y-216D01*
X3070Y-227D01*
X3090Y-231D01*
X3110Y-227D01*
X3126Y-216D01*
X3137Y-200D01*
X3141Y-180D01*
X3137Y-160D01*
X3126Y-144D01*
X3110Y-133D01*
X3090Y-129D01*
D02*
G37*
G36*
X1174Y-318D02*
X1133D01*
Y-359D01*
X1142Y-357D01*
X1160Y-345D01*
X1172Y-327D01*
X1174Y-318D01*
D02*
G37*
G36*
X5589Y555D02*
X5548D01*
Y514D01*
X5557Y515D01*
X5575Y528D01*
X5587Y546D01*
X5589Y555D01*
D02*
G37*
G36*
X5522D02*
X5481D01*
X5483Y546D01*
X5495Y528D01*
X5513Y515D01*
X5522Y514D01*
Y555D01*
D02*
G37*
G36*
X4065Y353D02*
X4045Y350D01*
X4029Y339D01*
X4018Y322D01*
X4014Y303D01*
X4018Y283D01*
X4029Y266D01*
X4045Y255D01*
X4065Y252D01*
X4085Y255D01*
X4101Y266D01*
X4112Y283D01*
X4116Y303D01*
X4112Y322D01*
X4101Y339D01*
X4085Y350D01*
X4065Y353D01*
D02*
G37*
G36*
X1260Y631D02*
X1241Y627D01*
X1224Y616D01*
X1213Y600D01*
X1209Y580D01*
X1213Y561D01*
X1224Y544D01*
X1241Y533D01*
X1260Y529D01*
X1280Y533D01*
X1296Y544D01*
X1307Y561D01*
X1311Y580D01*
X1307Y600D01*
X1296Y616D01*
X1280Y627D01*
X1260Y631D01*
D02*
G37*
G36*
X2733Y886D02*
X2713Y882D01*
X2696Y871D01*
X2685Y855D01*
X2682Y835D01*
X2685Y815D01*
X2696Y799D01*
X2713Y788D01*
X2733Y784D01*
X2752Y788D01*
X2769Y799D01*
X2780Y815D01*
X2783Y835D01*
X2780Y855D01*
X2769Y871D01*
X2752Y882D01*
X2733Y886D01*
D02*
G37*
G36*
X5548Y622D02*
Y580D01*
X5589D01*
X5587Y589D01*
X5575Y607D01*
X5557Y620D01*
X5548Y622D01*
D02*
G37*
G36*
X5522D02*
X5513Y620D01*
X5495Y607D01*
X5483Y589D01*
X5481Y580D01*
X5522D01*
Y622D01*
D02*
G37*
G36*
X2490Y253D02*
X2470Y250D01*
X2454Y239D01*
X2443Y222D01*
X2439Y203D01*
X2443Y183D01*
X2454Y166D01*
X2470Y155D01*
X2490Y152D01*
X2510Y155D01*
X2526Y166D01*
X2537Y183D01*
X2541Y203D01*
X2537Y222D01*
X2526Y239D01*
X2510Y250D01*
X2490Y253D01*
D02*
G37*
G36*
X4805Y251D02*
X4785Y247D01*
X4769Y236D01*
X4758Y219D01*
X4754Y200D01*
X4758Y180D01*
X4769Y164D01*
X4785Y153D01*
X4805Y149D01*
X4824Y153D01*
X4841Y164D01*
X4852Y180D01*
X4856Y200D01*
X4852Y219D01*
X4841Y236D01*
X4824Y247D01*
X4805Y251D01*
D02*
G37*
G36*
X2015Y246D02*
X1995Y242D01*
X1979Y231D01*
X1968Y215D01*
X1964Y195D01*
X1968Y175D01*
X1979Y159D01*
X1995Y148D01*
X2015Y144D01*
X2035Y148D01*
X2051Y159D01*
X2062Y175D01*
X2066Y195D01*
X2062Y215D01*
X2051Y231D01*
X2035Y242D01*
X2015Y246D01*
D02*
G37*
G36*
X2640Y258D02*
X2620Y255D01*
X2604Y244D01*
X2593Y227D01*
X2589Y208D01*
X2593Y188D01*
X2604Y171D01*
X2620Y160D01*
X2640Y157D01*
X2660Y160D01*
X2676Y171D01*
X2687Y188D01*
X2691Y208D01*
X2687Y227D01*
X2676Y244D01*
X2660Y255D01*
X2640Y258D01*
D02*
G37*
G36*
X4283Y293D02*
X4263Y290D01*
X4246Y279D01*
X4235Y262D01*
X4232Y242D01*
X4235Y223D01*
X4246Y206D01*
X4263Y195D01*
X4283Y192D01*
X4302Y195D01*
X4319Y206D01*
X4330Y223D01*
X4333Y242D01*
X4330Y262D01*
X4319Y279D01*
X4302Y290D01*
X4283Y293D01*
D02*
G37*
G36*
X2817Y278D02*
X2798Y275D01*
X2781Y264D01*
X2770Y247D01*
X2767Y228D01*
X2770Y208D01*
X2781Y191D01*
X2798Y180D01*
X2817Y177D01*
X2837Y180D01*
X2854Y191D01*
X2865Y208D01*
X2868Y228D01*
X2865Y247D01*
X2854Y264D01*
X2837Y275D01*
X2817Y278D01*
D02*
G37*
G36*
X3948Y261D02*
X3928Y257D01*
X3912Y246D01*
X3901Y230D01*
X3897Y210D01*
X3901Y191D01*
X3912Y174D01*
X3928Y163D01*
X3948Y159D01*
X3967Y163D01*
X3984Y174D01*
X3995Y191D01*
X3999Y210D01*
X3995Y230D01*
X3984Y246D01*
X3967Y257D01*
X3948Y261D01*
D02*
G37*
G36*
X5645Y1865D02*
X5625Y1861D01*
X5609Y1850D01*
X5598Y1834D01*
X5594Y1814D01*
X5598Y1795D01*
X5609Y1778D01*
X5609Y1778D01*
Y1765D01*
X5609Y1765D01*
X5598Y1749D01*
X5594Y1729D01*
X5598Y1710D01*
X5609Y1693D01*
X5625Y1682D01*
X5645Y1678D01*
X5665Y1682D01*
X5681Y1693D01*
X5692Y1710D01*
X5696Y1729D01*
X5692Y1749D01*
X5681Y1765D01*
X5681Y1765D01*
Y1778D01*
X5681Y1778D01*
X5692Y1795D01*
X5696Y1814D01*
X5692Y1834D01*
X5681Y1850D01*
X5665Y1861D01*
X5645Y1865D01*
D02*
G37*
G36*
X5692Y3431D02*
X5664Y3427D01*
X5637Y3416D01*
X5614Y3398D01*
X5596Y3375D01*
X5585Y3349D01*
X5582Y3320D01*
X5585Y3291D01*
X5596Y3265D01*
X5614Y3242D01*
X5637Y3224D01*
X5664Y3213D01*
X5692Y3209D01*
X5721Y3213D01*
X5748Y3224D01*
X5771Y3242D01*
X5789Y3265D01*
X5800Y3291D01*
X5803Y3320D01*
X5800Y3349D01*
X5789Y3375D01*
X5771Y3398D01*
X5748Y3416D01*
X5721Y3427D01*
X5692Y3431D01*
D02*
G37*
G36*
X158Y3305D02*
Y3203D01*
X260D01*
X257Y3220D01*
X246Y3248D01*
X227Y3272D01*
X203Y3291D01*
X175Y3302D01*
X158Y3305D01*
D02*
G37*
G36*
X132D02*
X115Y3302D01*
X87Y3291D01*
X63Y3272D01*
X44Y3248D01*
X33Y3220D01*
X30Y3203D01*
X132D01*
Y3305D01*
D02*
G37*
G36*
X262Y3450D02*
X242Y3446D01*
X225Y3435D01*
X214Y3419D01*
X211Y3399D01*
X214Y3379D01*
X225Y3363D01*
X242Y3352D01*
X262Y3348D01*
X281Y3352D01*
X298Y3363D01*
X309Y3379D01*
X312Y3399D01*
X309Y3419D01*
X298Y3435D01*
X281Y3446D01*
X262Y3450D01*
D02*
G37*
G36*
X0Y3731D02*
X-35Y3727D01*
X-69Y3717D01*
X-100Y3700D01*
X-128Y3678D01*
X-150Y3650D01*
X-167Y3619D01*
X-177Y3585D01*
X-181Y3550D01*
X-177Y3515D01*
X-167Y3481D01*
X-150Y3450D01*
X-128Y3422D01*
X-100Y3400D01*
X-69Y3383D01*
X-35Y3373D01*
X0Y3369D01*
X35Y3373D01*
X69Y3383D01*
X100Y3400D01*
X128Y3422D01*
X150Y3450D01*
X167Y3481D01*
X177Y3515D01*
X181Y3550D01*
X177Y3585D01*
X167Y3619D01*
X150Y3650D01*
X128Y3678D01*
X100Y3700D01*
X69Y3717D01*
X35Y3727D01*
X0Y3731D01*
D02*
G37*
G36*
X5444Y3521D02*
X5427Y3518D01*
X5411Y3512D01*
X5397Y3501D01*
X5387Y3488D01*
X5380Y3472D01*
X5378Y3455D01*
Y3420D01*
X5380Y3403D01*
X5387Y3387D01*
X5397Y3374D01*
X5411Y3363D01*
X5427Y3357D01*
X5444Y3354D01*
X5461Y3357D01*
X5477Y3363D01*
X5490Y3374D01*
X5501Y3387D01*
X5507Y3403D01*
X5509Y3420D01*
Y3455D01*
X5507Y3472D01*
X5501Y3488D01*
X5490Y3501D01*
X5477Y3512D01*
X5461Y3518D01*
X5444Y3521D01*
D02*
G37*
G36*
X4999D02*
X4982Y3518D01*
X4966Y3512D01*
X4952Y3501D01*
X4942Y3488D01*
X4935Y3472D01*
X4933Y3455D01*
Y3420D01*
X4935Y3403D01*
X4942Y3387D01*
X4952Y3374D01*
X4966Y3363D01*
X4982Y3357D01*
X4999Y3354D01*
X5016Y3357D01*
X5032Y3363D01*
X5045Y3374D01*
X5056Y3387D01*
X5062Y3403D01*
X5064Y3420D01*
Y3455D01*
X5062Y3472D01*
X5056Y3488D01*
X5045Y3501D01*
X5032Y3512D01*
X5016Y3518D01*
X4999Y3521D01*
D02*
G37*
G36*
X405Y3303D02*
X386Y3299D01*
X369Y3288D01*
X358Y3272D01*
X354Y3252D01*
X358Y3233D01*
X369Y3216D01*
X386Y3205D01*
X405Y3201D01*
X425Y3205D01*
X441Y3216D01*
X452Y3233D01*
X456Y3252D01*
X452Y3272D01*
X441Y3288D01*
X425Y3299D01*
X405Y3303D01*
D02*
G37*
G36*
X132Y3177D02*
X30D01*
X33Y3160D01*
X44Y3132D01*
X63Y3108D01*
X87Y3089D01*
X115Y3078D01*
X132Y3075D01*
Y3177D01*
D02*
G37*
G36*
X1160Y3166D02*
X1140Y3162D01*
X1124Y3151D01*
X1113Y3135D01*
X1109Y3115D01*
X1113Y3095D01*
X1124Y3079D01*
X1140Y3068D01*
X1160Y3064D01*
X1180Y3068D01*
X1196Y3079D01*
X1207Y3095D01*
X1211Y3115D01*
X1207Y3135D01*
X1196Y3151D01*
X1180Y3162D01*
X1160Y3166D01*
D02*
G37*
G36*
X3628Y3141D02*
X3608Y3137D01*
X3591Y3126D01*
X3580Y3110D01*
X3577Y3090D01*
X3580Y3070D01*
X3591Y3054D01*
X3608Y3043D01*
X3628Y3039D01*
X3647Y3043D01*
X3664Y3054D01*
X3675Y3070D01*
X3678Y3090D01*
X3675Y3110D01*
X3664Y3126D01*
X3647Y3137D01*
X3628Y3141D01*
D02*
G37*
G36*
X260Y3177D02*
X158D01*
Y3075D01*
X175Y3078D01*
X203Y3089D01*
X227Y3108D01*
X246Y3132D01*
X257Y3160D01*
X260Y3177D01*
D02*
G37*
G36*
X2250Y3211D02*
X2230Y3207D01*
X2214Y3196D01*
X2203Y3180D01*
X2200Y3178D01*
X2187Y3187D01*
X2167Y3191D01*
X2148Y3187D01*
X2131Y3176D01*
X2120Y3160D01*
X2117Y3140D01*
X2120Y3120D01*
X2131Y3104D01*
X2148Y3093D01*
X2167Y3089D01*
X2187Y3093D01*
X2204Y3104D01*
X2215Y3120D01*
X2217Y3122D01*
X2230Y3113D01*
X2250Y3109D01*
X2270Y3113D01*
X2286Y3124D01*
X2297Y3140D01*
X2301Y3160D01*
X2297Y3180D01*
X2286Y3196D01*
X2270Y3207D01*
X2250Y3211D01*
D02*
G37*
G36*
X4447Y3228D02*
X4428Y3225D01*
X4411Y3214D01*
X4400Y3197D01*
X4397Y3177D01*
X4400Y3158D01*
X4411Y3141D01*
X4428Y3130D01*
X4447Y3127D01*
X4467Y3130D01*
X4484Y3141D01*
X4495Y3158D01*
X4498Y3177D01*
X4495Y3197D01*
X4484Y3214D01*
X4467Y3225D01*
X4447Y3228D01*
D02*
G37*
G36*
X3152Y3211D02*
X3133Y3207D01*
X3116Y3196D01*
X3105Y3180D01*
X3102Y3160D01*
X3105Y3140D01*
X3116Y3124D01*
X3133Y3113D01*
X3152Y3109D01*
X3172Y3113D01*
X3189Y3124D01*
X3200Y3140D01*
X3203Y3160D01*
X3200Y3180D01*
X3189Y3196D01*
X3172Y3207D01*
X3152Y3211D01*
D02*
G37*
G36*
X850Y3881D02*
X830Y3877D01*
X814Y3866D01*
X803Y3850D01*
X799Y3830D01*
X803Y3810D01*
X814Y3794D01*
X830Y3783D01*
X850Y3779D01*
X870Y3783D01*
X886Y3794D01*
X897Y3810D01*
X901Y3830D01*
X897Y3850D01*
X886Y3866D01*
X870Y3877D01*
X850Y3881D01*
D02*
G37*
G36*
X5639Y3839D02*
X5615Y3834D01*
X5595Y3821D01*
X5581Y3801D01*
X5576Y3777D01*
Y3709D01*
X5581Y3685D01*
X5595Y3665D01*
X5615Y3652D01*
X5639Y3647D01*
X5663Y3652D01*
X5683Y3665D01*
X5696Y3685D01*
X5701Y3709D01*
Y3777D01*
X5696Y3801D01*
X5683Y3821D01*
X5663Y3834D01*
X5639Y3839D01*
D02*
G37*
G36*
X435Y3823D02*
X406Y3820D01*
X380Y3809D01*
X357Y3791D01*
X339Y3768D01*
X328Y3741D01*
X324Y3712D01*
X328Y3684D01*
X339Y3657D01*
X357Y3634D01*
X380Y3616D01*
X406Y3605D01*
X433Y3602D01*
X441Y3591D01*
X441Y3591D01*
X440Y3590D01*
X437Y3570D01*
X440Y3550D01*
X451Y3534D01*
X468Y3523D01*
X488Y3519D01*
X507Y3523D01*
X524Y3534D01*
X535Y3550D01*
X538Y3570D01*
X535Y3590D01*
X524Y3606D01*
X510Y3615D01*
X507Y3629D01*
X513Y3634D01*
X531Y3657D01*
X542Y3684D01*
X546Y3712D01*
X542Y3741D01*
X531Y3768D01*
X513Y3791D01*
X490Y3809D01*
X464Y3820D01*
X435Y3823D01*
D02*
G37*
G36*
X4830Y3583D02*
X4810Y3580D01*
X4794Y3569D01*
X4783Y3552D01*
X4779Y3533D01*
X4783Y3513D01*
X4794Y3496D01*
X4810Y3485D01*
X4830Y3482D01*
X4850Y3485D01*
X4866Y3496D01*
X4877Y3513D01*
X4881Y3533D01*
X4877Y3552D01*
X4866Y3569D01*
X4850Y3580D01*
X4830Y3583D01*
D02*
G37*
G36*
X1248Y3566D02*
X1228Y3562D01*
X1211Y3551D01*
X1200Y3535D01*
X1197Y3515D01*
X1200Y3495D01*
X1211Y3479D01*
X1228Y3468D01*
X1248Y3464D01*
X1267Y3468D01*
X1284Y3479D01*
X1295Y3495D01*
X1298Y3515D01*
X1295Y3535D01*
X1284Y3551D01*
X1267Y3562D01*
X1248Y3566D01*
D02*
G37*
G36*
X1810Y3643D02*
X1790Y3640D01*
X1774Y3629D01*
X1763Y3612D01*
X1759Y3592D01*
X1763Y3573D01*
X1774Y3556D01*
X1790Y3545D01*
X1810Y3542D01*
X1830Y3545D01*
X1846Y3556D01*
X1857Y3573D01*
X1861Y3592D01*
X1857Y3612D01*
X1846Y3629D01*
X1830Y3640D01*
X1810Y3643D01*
D02*
G37*
G36*
X4804Y3839D02*
X4780Y3834D01*
X4760Y3821D01*
X4746Y3801D01*
X4741Y3777D01*
Y3709D01*
X4746Y3685D01*
X4760Y3665D01*
X4780Y3652D01*
X4804Y3647D01*
X4828Y3652D01*
X4848Y3665D01*
X4861Y3685D01*
X4866Y3709D01*
Y3777D01*
X4861Y3801D01*
X4848Y3821D01*
X4828Y3834D01*
X4804Y3839D01*
D02*
G37*
G36*
X4072Y3713D02*
X4053Y3710D01*
X4036Y3699D01*
X4025Y3682D01*
X4022Y3662D01*
X4025Y3643D01*
X4036Y3626D01*
X4053Y3615D01*
X4072Y3612D01*
X4092Y3615D01*
X4109Y3626D01*
X4120Y3643D01*
X4123Y3662D01*
X4120Y3682D01*
X4109Y3699D01*
X4092Y3710D01*
X4072Y3713D01*
D02*
G37*
G36*
X2650Y3689D02*
X2635Y3687D01*
X2609Y3676D01*
X2587Y3659D01*
X2570Y3637D01*
X2560Y3611D01*
X2558Y3597D01*
X2650D01*
Y3689D01*
D02*
G37*
G36*
X2854Y2044D02*
X2834Y2040D01*
X2818Y2029D01*
X2807Y2013D01*
X2803Y1993D01*
X2807Y1974D01*
X2818Y1957D01*
X2834Y1946D01*
X2854Y1942D01*
X2873Y1946D01*
X2890Y1957D01*
X2901Y1974D01*
X2905Y1993D01*
X2901Y2013D01*
X2890Y2029D01*
X2873Y2040D01*
X2854Y2044D01*
D02*
G37*
G36*
X3913Y1931D02*
Y1890D01*
X3954D01*
X3952Y1899D01*
X3940Y1917D01*
X3922Y1930D01*
X3913Y1931D01*
D02*
G37*
G36*
X3887D02*
X3878Y1930D01*
X3860Y1917D01*
X3848Y1899D01*
X3846Y1890D01*
X3887D01*
Y1931D01*
D02*
G37*
G36*
X4880Y2053D02*
X4860Y2050D01*
X4844Y2039D01*
X4833Y2022D01*
X4829Y2002D01*
X4833Y1983D01*
X4844Y1966D01*
X4860Y1955D01*
X4880Y1952D01*
X4900Y1955D01*
X4916Y1966D01*
X4927Y1983D01*
X4931Y2002D01*
X4927Y2022D01*
X4916Y2039D01*
X4900Y2050D01*
X4880Y2053D01*
D02*
G37*
G36*
X3972Y3328D02*
X3953Y3325D01*
X3936Y3314D01*
X3925Y3297D01*
X3922Y3278D01*
X3925Y3258D01*
X3936Y3241D01*
X3953Y3230D01*
X3972Y3227D01*
X3973Y3227D01*
X4007Y3193D01*
Y2942D01*
X3650Y2586D01*
X3395D01*
X3381Y2583D01*
X3370Y2575D01*
X3252Y2458D01*
X3245Y2446D01*
X3242Y2433D01*
Y2354D01*
X3241Y2354D01*
X3230Y2337D01*
X3227Y2317D01*
X3230Y2298D01*
X3241Y2281D01*
X3258Y2270D01*
X3278Y2267D01*
X3297Y2270D01*
X3314Y2281D01*
X3325Y2298D01*
X3328Y2317D01*
X3325Y2337D01*
X3314Y2354D01*
X3313Y2354D01*
Y2418D01*
X3410Y2514D01*
X3465D01*
X3468Y2508D01*
X3470Y2502D01*
X3460Y2487D01*
X3456Y2467D01*
X3460Y2447D01*
X3471Y2431D01*
X3487Y2420D01*
X3507Y2416D01*
X3513Y2417D01*
X3655Y2275D01*
Y1735D01*
X3643Y1730D01*
X3629Y1739D01*
X3610Y1743D01*
X3590Y1739D01*
X3574Y1728D01*
X3563Y1711D01*
X3559Y1692D01*
X3563Y1672D01*
X3574Y1656D01*
X3590Y1645D01*
X3610Y1641D01*
X3629Y1645D01*
X3643Y1654D01*
X3655Y1649D01*
Y1119D01*
X3645Y1104D01*
X3641Y1084D01*
X3645Y1065D01*
X3656Y1048D01*
X3673Y1037D01*
X3692Y1033D01*
X3712Y1037D01*
X3728Y1048D01*
X3739Y1065D01*
X3743Y1084D01*
X3739Y1104D01*
X3728Y1120D01*
X3717Y1128D01*
Y1837D01*
X3727Y1841D01*
X3729Y1841D01*
X3745Y1830D01*
X3765Y1827D01*
X3785Y1830D01*
X3801Y1841D01*
X3812Y1858D01*
X3816Y1877D01*
X3812Y1897D01*
X3801Y1914D01*
X3785Y1925D01*
X3765Y1928D01*
X3745Y1925D01*
X3729Y1914D01*
X3727Y1914D01*
X3717Y1918D01*
Y2239D01*
X3729Y2243D01*
X3737Y2232D01*
X3753Y2221D01*
X3773Y2217D01*
X3792Y2221D01*
X3809Y2232D01*
X3820Y2248D01*
X3824Y2268D01*
X3820Y2287D01*
X3809Y2304D01*
X3792Y2315D01*
X3773Y2319D01*
X3753Y2315D01*
X3737Y2304D01*
X3729Y2292D01*
X3715Y2295D01*
X3714Y2300D01*
X3708Y2310D01*
X3708Y2310D01*
X3557Y2461D01*
X3558Y2467D01*
X3554Y2487D01*
X3544Y2502D01*
X3546Y2508D01*
X3549Y2514D01*
X3665D01*
X3679Y2517D01*
X3690Y2525D01*
X4068Y2902D01*
X4075Y2914D01*
X4078Y2927D01*
Y3208D01*
X4075Y3221D01*
X4068Y3233D01*
X4023Y3277D01*
X4023Y3278D01*
X4020Y3297D01*
X4009Y3314D01*
X3992Y3325D01*
X3972Y3328D01*
D02*
G37*
G36*
X2070Y2188D02*
X2050Y2185D01*
X2034Y2174D01*
X2023Y2157D01*
X2019Y2138D01*
X2023Y2118D01*
X2034Y2101D01*
X2050Y2090D01*
X2070Y2087D01*
X2090Y2090D01*
X2106Y2101D01*
X2117Y2118D01*
X2121Y2138D01*
X2117Y2157D01*
X2106Y2174D01*
X2090Y2185D01*
X2070Y2188D01*
D02*
G37*
G36*
X625Y2066D02*
X605Y2062D01*
X589Y2051D01*
X578Y2035D01*
X574Y2015D01*
X578Y1995D01*
X589Y1979D01*
X605Y1968D01*
X625Y1964D01*
X645Y1968D01*
X661Y1979D01*
X672Y1995D01*
X676Y2015D01*
X672Y2035D01*
X661Y2051D01*
X645Y2062D01*
X625Y2066D01*
D02*
G37*
G36*
X3510Y2053D02*
X3490Y2050D01*
X3474Y2039D01*
X3463Y2022D01*
X3459Y2002D01*
X3463Y1983D01*
X3474Y1966D01*
X3486Y1958D01*
X3475Y1942D01*
X3472Y1923D01*
X3475Y1903D01*
X3486Y1886D01*
X3503Y1875D01*
X3522Y1872D01*
X3542Y1875D01*
X3559Y1886D01*
X3570Y1903D01*
X3573Y1923D01*
X3570Y1942D01*
X3559Y1959D01*
X3546Y1967D01*
X3557Y1983D01*
X3561Y2002D01*
X3557Y2022D01*
X3546Y2039D01*
X3530Y2050D01*
X3510Y2053D01*
D02*
G37*
G36*
X1850Y1891D02*
X1830Y1887D01*
X1814Y1876D01*
X1803Y1860D01*
X1799Y1840D01*
X1803Y1820D01*
X1814Y1804D01*
X1830Y1793D01*
X1850Y1789D01*
X1870Y1793D01*
X1886Y1804D01*
X1897Y1820D01*
X1901Y1840D01*
X1897Y1860D01*
X1886Y1876D01*
X1870Y1887D01*
X1850Y1891D01*
D02*
G37*
G36*
X1457Y1861D02*
X1438Y1857D01*
X1421Y1846D01*
X1410Y1830D01*
X1407Y1810D01*
X1410Y1790D01*
X1421Y1774D01*
X1438Y1763D01*
X1457Y1759D01*
X1477Y1763D01*
X1494Y1774D01*
X1505Y1790D01*
X1508Y1810D01*
X1505Y1830D01*
X1494Y1846D01*
X1477Y1857D01*
X1457Y1861D01*
D02*
G37*
G36*
X5510Y1865D02*
X5490Y1861D01*
X5474Y1850D01*
X5463Y1834D01*
X5459Y1814D01*
X5463Y1795D01*
X5470Y1784D01*
X5470Y1769D01*
X5458Y1751D01*
X5456Y1742D01*
X5564D01*
X5562Y1751D01*
X5550Y1769D01*
X5550Y1784D01*
X5557Y1795D01*
X5561Y1814D01*
X5557Y1834D01*
X5546Y1850D01*
X5530Y1861D01*
X5510Y1865D01*
D02*
G37*
G36*
X1162Y1896D02*
X1143Y1892D01*
X1126Y1881D01*
X1115Y1865D01*
X1112Y1845D01*
X1115Y1825D01*
X1126Y1809D01*
X1143Y1798D01*
X1162Y1794D01*
X1182Y1798D01*
X1199Y1809D01*
X1210Y1825D01*
X1213Y1845D01*
X1210Y1865D01*
X1199Y1881D01*
X1182Y1892D01*
X1162Y1896D01*
D02*
G37*
G36*
X3954Y1865D02*
X3913D01*
Y1824D01*
X3922Y1825D01*
X3940Y1838D01*
X3952Y1856D01*
X3954Y1865D01*
D02*
G37*
G36*
X3887D02*
X3846D01*
X3848Y1856D01*
X3860Y1838D01*
X3878Y1825D01*
X3887Y1824D01*
Y1865D01*
D02*
G37*
G36*
X1350Y1901D02*
X1330Y1897D01*
X1314Y1886D01*
X1303Y1870D01*
X1299Y1850D01*
X1303Y1830D01*
X1314Y1814D01*
X1330Y1803D01*
X1350Y1799D01*
X1370Y1803D01*
X1386Y1814D01*
X1397Y1830D01*
X1401Y1850D01*
X1397Y1870D01*
X1386Y1886D01*
X1370Y1897D01*
X1350Y1901D01*
D02*
G37*
G36*
X3079Y2857D02*
X3059Y2853D01*
X3043Y2842D01*
X3032Y2826D01*
X3028Y2806D01*
X3032Y2787D01*
X3043Y2770D01*
X3059Y2759D01*
X3079Y2755D01*
X3098Y2759D01*
X3115Y2770D01*
X3126Y2787D01*
X3130Y2806D01*
X3126Y2826D01*
X3115Y2842D01*
X3098Y2853D01*
X3079Y2857D01*
D02*
G37*
G36*
X5792Y2781D02*
X5773Y2777D01*
X5756Y2766D01*
X5745Y2750D01*
X5742Y2730D01*
X5745Y2710D01*
X5756Y2694D01*
X5773Y2683D01*
X5792Y2679D01*
X5812Y2683D01*
X5829Y2694D01*
X5840Y2710D01*
X5843Y2730D01*
X5840Y2750D01*
X5829Y2766D01*
X5812Y2777D01*
X5792Y2781D01*
D02*
G37*
G36*
X290Y2763D02*
X270Y2760D01*
X254Y2749D01*
X243Y2732D01*
X239Y2712D01*
X243Y2693D01*
X254Y2676D01*
X270Y2665D01*
X290Y2662D01*
X310Y2665D01*
X326Y2676D01*
X337Y2693D01*
X341Y2712D01*
X337Y2732D01*
X326Y2749D01*
X310Y2760D01*
X290Y2763D01*
D02*
G37*
G36*
X476Y2923D02*
X456Y2919D01*
X440Y2908D01*
X429Y2892D01*
X425Y2872D01*
X429Y2852D01*
X440Y2836D01*
X456Y2825D01*
X476Y2821D01*
X496Y2825D01*
X512Y2836D01*
X523Y2852D01*
X527Y2872D01*
X523Y2892D01*
X512Y2908D01*
X496Y2919D01*
X476Y2923D01*
D02*
G37*
G36*
X2465Y3081D02*
X2445Y3077D01*
X2429Y3066D01*
X2418Y3050D01*
X2414Y3030D01*
X2418Y3010D01*
X2429Y2994D01*
X2445Y2983D01*
X2465Y2979D01*
X2485Y2983D01*
X2501Y2994D01*
X2512Y3010D01*
X2516Y3030D01*
X2512Y3050D01*
X2501Y3066D01*
X2485Y3077D01*
X2465Y3081D01*
D02*
G37*
G36*
X5205Y3136D02*
X5185Y3132D01*
X5169Y3121D01*
X5158Y3105D01*
X5154Y3085D01*
X5158Y3065D01*
X5169Y3049D01*
X5185Y3038D01*
X5183Y3026D01*
X5163Y3022D01*
X5146Y3011D01*
X5135Y2995D01*
X5132Y2975D01*
X5135Y2955D01*
X5146Y2939D01*
X5163Y2928D01*
X5183Y2924D01*
X5202Y2928D01*
X5219Y2939D01*
X5230Y2955D01*
X5233Y2975D01*
X5230Y2995D01*
X5219Y3011D01*
X5202Y3022D01*
X5205Y3034D01*
X5225Y3038D01*
X5241Y3049D01*
X5252Y3065D01*
X5256Y3085D01*
X5252Y3105D01*
X5241Y3121D01*
X5225Y3132D01*
X5205Y3136D01*
D02*
G37*
G36*
X1160Y3016D02*
X1140Y3012D01*
X1124Y3001D01*
X1113Y2985D01*
X1109Y2965D01*
X1113Y2946D01*
X1124Y2929D01*
X1140Y2918D01*
X1160Y2914D01*
X1180Y2918D01*
X1196Y2929D01*
X1207Y2946D01*
X1211Y2965D01*
X1207Y2985D01*
X1196Y3001D01*
X1180Y3012D01*
X1160Y3016D01*
D02*
G37*
G36*
X3135Y2741D02*
X3115Y2737D01*
X3099Y2726D01*
X3088Y2710D01*
X3084Y2690D01*
X3088Y2670D01*
X3099Y2654D01*
X3115Y2643D01*
X3135Y2639D01*
X3155Y2643D01*
X3171Y2654D01*
X3182Y2670D01*
X3186Y2690D01*
X3182Y2710D01*
X3171Y2726D01*
X3155Y2737D01*
X3135Y2741D01*
D02*
G37*
G36*
X2383Y2448D02*
X2363Y2445D01*
X2346Y2434D01*
X2335Y2417D01*
X2332Y2398D01*
X2335Y2378D01*
X2346Y2361D01*
X2363Y2350D01*
X2383Y2347D01*
X2402Y2350D01*
X2419Y2361D01*
X2430Y2378D01*
X2433Y2398D01*
X2430Y2417D01*
X2419Y2434D01*
X2402Y2445D01*
X2383Y2448D01*
D02*
G37*
G36*
X3445Y2358D02*
X3425Y2355D01*
X3409Y2344D01*
X3398Y2327D01*
X3394Y2308D01*
X3398Y2288D01*
X3407Y2274D01*
X3398Y2265D01*
X3395Y2267D01*
X3375Y2271D01*
X3355Y2267D01*
X3339Y2256D01*
X3328Y2240D01*
X3324Y2220D01*
X3328Y2200D01*
X3339Y2184D01*
X3355Y2173D01*
X3375Y2169D01*
X3395Y2173D01*
X3411Y2184D01*
X3422Y2200D01*
X3426Y2220D01*
X3422Y2240D01*
X3413Y2254D01*
X3422Y2263D01*
X3425Y2260D01*
X3445Y2257D01*
X3465Y2260D01*
X3481Y2271D01*
X3492Y2288D01*
X3496Y2308D01*
X3492Y2327D01*
X3481Y2344D01*
X3465Y2355D01*
X3445Y2358D01*
D02*
G37*
G36*
X4005Y2346D02*
X3985Y2342D01*
X3969Y2331D01*
X3958Y2315D01*
X3954Y2295D01*
X3958Y2275D01*
X3969Y2259D01*
X3985Y2248D01*
X4005Y2244D01*
X4025Y2248D01*
X4041Y2259D01*
X4052Y2275D01*
X4056Y2295D01*
X4052Y2315D01*
X4041Y2331D01*
X4025Y2342D01*
X4005Y2346D01*
D02*
G37*
G36*
X658Y2669D02*
X639Y2665D01*
X622Y2654D01*
X611Y2638D01*
X607Y2618D01*
X611Y2598D01*
X622Y2582D01*
X639Y2571D01*
X657Y2567D01*
X661Y2561D01*
X664Y2555D01*
X657Y2545D01*
X653Y2526D01*
X657Y2506D01*
X668Y2490D01*
X684Y2479D01*
X686Y2478D01*
X692Y2464D01*
X688Y2459D01*
X684Y2439D01*
X688Y2420D01*
X699Y2403D01*
X716Y2392D01*
X735Y2388D01*
X755Y2392D01*
X771Y2403D01*
X782Y2420D01*
X786Y2439D01*
X782Y2459D01*
X771Y2475D01*
X755Y2486D01*
X753Y2487D01*
X747Y2501D01*
X751Y2506D01*
X755Y2526D01*
X751Y2545D01*
X740Y2562D01*
X724Y2573D01*
X706Y2576D01*
X701Y2583D01*
X699Y2588D01*
X705Y2598D01*
X709Y2618D01*
X705Y2638D01*
X694Y2654D01*
X678Y2665D01*
X658Y2669D01*
D02*
G37*
G36*
X4597Y2693D02*
X4578Y2690D01*
X4561Y2679D01*
X4550Y2662D01*
X4547Y2642D01*
X4550Y2623D01*
X4561Y2606D01*
X4578Y2595D01*
X4597Y2592D01*
X4617Y2595D01*
X4634Y2606D01*
X4645Y2623D01*
X4648Y2642D01*
X4645Y2662D01*
X4634Y2679D01*
X4617Y2690D01*
X4597Y2693D01*
D02*
G37*
G36*
X5310Y2691D02*
X5290Y2687D01*
X5274Y2676D01*
X5263Y2660D01*
X5259Y2640D01*
X5263Y2620D01*
X5274Y2604D01*
X5290Y2593D01*
X5310Y2589D01*
X5330Y2593D01*
X5346Y2604D01*
X5357Y2620D01*
X5361Y2640D01*
X5357Y2660D01*
X5346Y2676D01*
X5330Y2687D01*
X5310Y2691D01*
D02*
G37*
G36*
X3780Y2531D02*
X3760Y2527D01*
X3744Y2516D01*
X3733Y2500D01*
X3729Y2480D01*
X3733Y2460D01*
X3744Y2444D01*
X3760Y2433D01*
X3780Y2429D01*
X3800Y2433D01*
X3816Y2444D01*
X3827Y2460D01*
X3831Y2480D01*
X3827Y2500D01*
X3816Y2516D01*
X3800Y2527D01*
X3780Y2531D01*
D02*
G37*
G36*
X3537Y4692D02*
X3517Y4688D01*
X3501Y4677D01*
X3490Y4661D01*
X3486Y4641D01*
X3490Y4621D01*
X3501Y4605D01*
X3517Y4594D01*
X3537Y4590D01*
X3557Y4594D01*
X3573Y4605D01*
X3584Y4621D01*
X3588Y4641D01*
X3584Y4661D01*
X3573Y4677D01*
X3557Y4688D01*
X3537Y4692D01*
D02*
G37*
G36*
X2872Y4394D02*
X2852Y4390D01*
X2836Y4379D01*
X2825Y4363D01*
X2821Y4343D01*
X2825Y4324D01*
X2836Y4307D01*
X2852Y4296D01*
X2872Y4292D01*
X2891Y4296D01*
X2908Y4307D01*
X2919Y4324D01*
X2923Y4343D01*
X2919Y4363D01*
X2908Y4379D01*
X2891Y4390D01*
X2872Y4394D01*
D02*
G37*
G36*
X3153Y4705D02*
X3153Y4705D01*
X2897D01*
X2885Y4703D01*
X2875Y4696D01*
X2875Y4696D01*
X2816Y4638D01*
X2811Y4639D01*
X2791Y4635D01*
X2781Y4628D01*
X2769Y4635D01*
X2772Y4648D01*
X2768Y4668D01*
X2757Y4685D01*
X2740Y4696D01*
X2721Y4699D01*
X2701Y4696D01*
X2685Y4685D01*
X2674Y4668D01*
X2670Y4648D01*
X2674Y4629D01*
X2685Y4612D01*
X2701Y4601D01*
X2721Y4598D01*
X2740Y4601D01*
X2751Y4608D01*
X2762Y4601D01*
X2760Y4588D01*
X2764Y4568D01*
X2775Y4552D01*
X2791Y4541D01*
X2811Y4537D01*
X2830Y4541D01*
X2847Y4552D01*
X2858Y4568D01*
X2862Y4588D01*
X2860Y4595D01*
X2909Y4644D01*
X3008D01*
X3012Y4631D01*
X3007Y4628D01*
X2996Y4612D01*
X2992Y4592D01*
X2996Y4573D01*
X3007Y4556D01*
X3007Y4556D01*
Y4543D01*
X3007Y4543D01*
X2996Y4527D01*
X2992Y4507D01*
X2996Y4488D01*
X3007Y4471D01*
X3024Y4460D01*
X3043Y4456D01*
X3063Y4460D01*
X3079Y4471D01*
X3090Y4488D01*
X3094Y4507D01*
X3090Y4527D01*
X3079Y4543D01*
X3079Y4543D01*
Y4556D01*
X3079Y4556D01*
X3090Y4573D01*
X3094Y4592D01*
X3090Y4612D01*
X3079Y4628D01*
X3075Y4631D01*
X3079Y4644D01*
X3140D01*
X3141Y4643D01*
X3142Y4628D01*
X3131Y4612D01*
X3127Y4592D01*
X3131Y4573D01*
X3142Y4556D01*
X3142Y4556D01*
Y4543D01*
X3142Y4543D01*
X3131Y4527D01*
X3127Y4507D01*
X3131Y4488D01*
X3142Y4471D01*
X3159Y4460D01*
X3178Y4456D01*
X3198Y4460D01*
X3214Y4471D01*
X3225Y4488D01*
X3229Y4507D01*
X3225Y4527D01*
X3214Y4543D01*
X3214Y4543D01*
Y4556D01*
X3214Y4556D01*
X3225Y4573D01*
X3229Y4592D01*
X3225Y4612D01*
X3214Y4628D01*
X3209Y4632D01*
Y4649D01*
X3209Y4649D01*
X3206Y4661D01*
X3200Y4671D01*
X3174Y4696D01*
X3164Y4703D01*
X3153Y4705D01*
D02*
G37*
G36*
X2786Y4957D02*
X2771Y4955D01*
X2746Y4944D01*
X2724Y4927D01*
X2707Y4905D01*
X2696Y4880D01*
X2694Y4865D01*
X2786D01*
Y4957D01*
D02*
G37*
G36*
X2811D02*
Y4852D01*
Y4748D01*
X2826Y4750D01*
X2852Y4760D01*
X2874Y4777D01*
X2891Y4799D01*
X2895Y4809D01*
X2909D01*
X2911Y4802D01*
X2927Y4781D01*
X2948Y4765D01*
X2973Y4755D01*
X2999Y4751D01*
X3025Y4755D01*
X3049Y4765D01*
X3070Y4781D01*
X3086Y4802D01*
X3092Y4816D01*
X3106D01*
X3111Y4802D01*
X3127Y4781D01*
X3148Y4765D01*
X3173Y4755D01*
X3199Y4751D01*
X3225Y4755D01*
X3249Y4765D01*
X3270Y4781D01*
X3286Y4802D01*
X3292Y4816D01*
X3306D01*
X3311Y4802D01*
X3327Y4781D01*
X3348Y4765D01*
X3373Y4755D01*
X3399Y4751D01*
X3425Y4755D01*
X3449Y4765D01*
X3470Y4781D01*
X3486Y4802D01*
X3496Y4826D01*
X3500Y4852D01*
X3496Y4878D01*
X3486Y4903D01*
X3470Y4924D01*
X3449Y4940D01*
X3425Y4950D01*
X3399Y4953D01*
X3373Y4950D01*
X3348Y4940D01*
X3327Y4924D01*
X3311Y4903D01*
X3306Y4889D01*
X3292D01*
X3286Y4903D01*
X3270Y4924D01*
X3249Y4940D01*
X3225Y4950D01*
X3199Y4953D01*
X3173Y4950D01*
X3148Y4940D01*
X3127Y4924D01*
X3111Y4903D01*
X3106Y4889D01*
X3092D01*
X3086Y4903D01*
X3070Y4924D01*
X3049Y4940D01*
X3025Y4950D01*
X2999Y4953D01*
X2973Y4950D01*
X2948Y4940D01*
X2927Y4924D01*
X2911Y4903D01*
X2909Y4896D01*
X2895D01*
X2891Y4905D01*
X2874Y4927D01*
X2852Y4944D01*
X2826Y4955D01*
X2811Y4957D01*
D02*
G37*
G36*
X2786Y4840D02*
X2694D01*
X2696Y4825D01*
X2707Y4799D01*
X2724Y4777D01*
X2746Y4760D01*
X2771Y4750D01*
X2786Y4748D01*
Y4840D01*
D02*
G37*
%LPD*%
D49*
X2167Y830D02*
X2328Y670D01*
X3354Y2672D02*
Y2960D01*
X3034Y2352D02*
X3354Y2672D01*
X3344Y1546D02*
X3439D01*
X3236Y1654D02*
X3344Y1546D01*
X3034Y1856D02*
X3236Y1654D01*
X3034Y1856D02*
Y2352D01*
X2985Y2401D02*
X3034Y2352D01*
X2994Y1513D02*
Y2335D01*
X2969Y2361D02*
X2994Y2335D01*
X2599Y2361D02*
X2969D01*
X2503Y2457D02*
Y2539D01*
Y2457D02*
X2599Y2361D01*
X2167Y830D02*
Y1593D01*
Y2567D01*
X1690Y1148D02*
X2283Y555D01*
X1932Y841D02*
X2264Y510D01*
X2596Y1359D02*
Y1724D01*
X2310Y2010D02*
X2596Y1724D01*
X4033Y-233D02*
X4125Y-140D01*
X3692Y-233D02*
X4033D01*
X3635Y-176D02*
X3692Y-233D01*
X3629Y3262D02*
X3830Y3061D01*
X2862Y3262D02*
X3629D01*
X2167Y2567D02*
X2862Y3262D01*
X1635Y447D02*
X2685D01*
X3921Y572D02*
X3980D01*
X4455Y1046D01*
X3999Y526D02*
X4500Y1027D01*
X3381Y279D02*
X3629D01*
X3233Y427D02*
X3381Y279D01*
X4125Y-140D02*
X4367D01*
X1626Y670D02*
Y671D01*
X915Y193D02*
X923Y185D01*
X2027Y3405D02*
X2430D01*
X3558Y-220D02*
X3583D01*
X3556Y-218D02*
X3558Y-220D01*
X3058Y427D02*
X3233D01*
X2730Y556D02*
X2730Y555D01*
X2640Y556D02*
X2730D01*
X2640Y555D02*
X2640Y556D01*
X2283Y555D02*
X2640D01*
X2712Y510D02*
X2835D01*
X2711Y510D02*
X2712Y510D01*
X2659Y510D02*
X2711D01*
X2658Y510D02*
X2659Y510D01*
X2264Y510D02*
X2658D01*
X3406Y-144D02*
Y147D01*
X4113Y-245D02*
X4116D01*
X3406Y-144D02*
X3487Y-226D01*
X1777Y841D02*
X1932D01*
X255Y-242D02*
X381D01*
X1532Y1148D02*
X1690D01*
X1640Y915D02*
X1733Y1007D01*
X2811Y4588D02*
Y4589D01*
X2897Y4674D01*
X3153D01*
X3178Y4649D01*
Y4592D02*
Y4649D01*
X4785Y2110D02*
X4883Y2208D01*
X4022Y2737D02*
X4308D01*
X3855Y2570D02*
X4022Y2737D01*
X4311Y2636D02*
X4425Y2522D01*
Y2251D02*
Y2522D01*
X4308Y2737D02*
X4472Y2572D01*
Y2234D02*
Y2572D01*
X2503Y2539D02*
X2881Y2917D01*
X3507Y2467D02*
X3686Y2288D01*
X3487Y-226D02*
X3549D01*
X3556Y-218D01*
X3635Y-176D02*
Y-100D01*
X1453Y838D02*
X1459D01*
X4932Y199D02*
Y956D01*
X2599Y2433D02*
Y2504D01*
Y2433D02*
X2631Y2401D01*
X2985D01*
X3307Y1200D02*
X3411D01*
X1626Y670D02*
X1628Y669D01*
X1695Y-253D02*
X1696Y-253D01*
X1792D01*
X3480Y-283D02*
X4075D01*
X4113Y-245D01*
X3450Y342D02*
X3627D01*
X2473Y2103D02*
X2593D01*
X2942Y1755D01*
X2596Y1359D02*
X2630Y1325D01*
Y645D02*
Y1325D01*
X2310Y1270D02*
X2312D01*
X2994Y1513D02*
X3307Y1200D01*
X2942Y1470D02*
X3002Y1409D01*
Y1056D02*
Y1409D01*
X2942Y995D02*
X3002Y1056D01*
X2942Y1470D02*
Y1755D01*
X4697Y-39D02*
Y208D01*
X2835Y510D02*
X2977Y368D01*
X3185Y368D02*
X3406Y147D01*
X4424Y480D02*
X4697Y208D01*
X3944Y526D02*
X3999D01*
X3686Y1090D02*
Y2288D01*
Y1090D02*
X3692Y1084D01*
X3726Y794D02*
X3824D01*
X3356Y426D02*
X3356Y425D01*
X3646D01*
X3640Y643D02*
X3728D01*
X3553Y555D02*
X3640Y643D01*
X3629Y279D02*
X3921Y572D01*
X3969Y617D02*
X4235Y883D01*
X3958Y662D02*
X4190Y894D01*
X4595Y2180D02*
Y2244D01*
X4582Y2110D02*
X4785D01*
X5719Y-79D02*
X5808Y10D01*
X3100Y805D02*
X3239Y944D01*
Y1161D01*
X3633Y700D02*
X3726Y794D01*
X2942Y806D02*
Y995D01*
Y806D02*
X3048Y700D01*
X1895Y3478D02*
X1899Y3474D01*
X3988D01*
X381Y-242D02*
X414Y-210D01*
X1130D01*
X1173Y-253D01*
X1695D01*
X3355Y-247D02*
X3445D01*
X3480Y-283D01*
X3588Y106D02*
X3962Y480D01*
X4424D01*
X3627Y342D02*
X3902Y617D01*
X3969D01*
X3646Y425D02*
X3884Y662D01*
X3958D01*
X1382Y2760D02*
X2027Y3405D01*
X1590Y3173D02*
X1895Y3478D01*
X1459Y838D02*
X1626Y670D01*
X3440Y-308D02*
X3456Y-323D01*
X4367Y-140D02*
X4463Y-235D01*
X4463D01*
X4460Y-323D02*
X4552Y-230D01*
X3456Y-323D02*
X4460D01*
X4552Y-230D02*
Y216D01*
X3497Y80D02*
X3944Y526D01*
X4500Y1027D02*
Y1082D01*
X4543Y1125D01*
X4455Y1046D02*
Y1101D01*
X4497Y1144D01*
X4190Y894D02*
Y1028D01*
X4235Y883D02*
Y1010D01*
X4406Y2232D02*
X4425Y2251D01*
X4452Y2213D02*
X4472Y2234D01*
X4497Y2082D02*
X4595Y2180D01*
X4190Y1028D02*
X4406Y1245D01*
Y2232D01*
X4235Y1010D02*
X4452Y1226D01*
Y2213D01*
X4497Y1144D02*
Y2082D01*
X3988Y3474D02*
X5048Y2414D01*
X4853Y1035D02*
X4932Y956D01*
X4697Y-39D02*
X4861Y-203D01*
X4565Y1035D02*
X4853D01*
X350Y2580D02*
X530Y2760D01*
X1382D01*
X350Y269D02*
Y1762D01*
X401Y1814D01*
X451D01*
X350Y1762D02*
Y2580D01*
Y269D02*
X641Y-22D01*
X5372Y-120D02*
Y943D01*
X5766Y1336D01*
Y2055D01*
X3283Y-320D02*
X3355Y-247D01*
X1792Y-253D02*
X1859Y-320D01*
X3048Y700D02*
X3633D01*
X2730Y555D02*
X3553D01*
X3053Y432D02*
X3058Y427D01*
X2977Y368D02*
X3029D01*
X3029Y368D01*
X3185D01*
X3053Y432D02*
Y465D01*
X2328Y658D02*
Y670D01*
X2241Y2161D02*
X2248Y2167D01*
X2241Y895D02*
Y2161D01*
X1393Y915D02*
X1640D01*
X915Y193D02*
Y437D01*
X1393Y915D01*
X5808Y10D02*
Y928D01*
X5828Y948D01*
X5048Y192D02*
Y2414D01*
X5730Y120D02*
Y158D01*
X4861Y-203D02*
X5407D01*
X5730Y120D01*
X3380Y-308D02*
X3440D01*
X1859Y-320D02*
X3283D01*
X2714Y40D02*
X2883Y-129D01*
X782Y40D02*
X2714D01*
X3497Y-5D02*
Y80D01*
X3588Y-18D02*
Y106D01*
X586Y1814D02*
X670Y1730D01*
Y152D02*
Y1730D01*
Y152D02*
X782Y40D01*
X2066Y-129D02*
X2748D01*
X1960Y-22D02*
X2066Y-129D01*
X641Y-22D02*
X1960D01*
X4543Y2071D02*
X4582Y2110D01*
X4543Y1125D02*
Y2071D01*
D50*
X6360Y0D02*
G03*
X6360Y0I-160J0D01*
G01*
Y3550D02*
G03*
X6360Y3550I-160J0D01*
G01*
X160D02*
G03*
X160Y3550I-160J0D01*
G01*
Y0D02*
G03*
X160Y0I-160J0D01*
G01*
X6600Y3550D02*
G03*
X6200Y3950I-400J0D01*
G01*
X0D02*
G03*
X-400Y3550I0J-400D01*
G01*
Y0D02*
G03*
X0Y-400I400J0D01*
G01*
X6200D02*
G03*
X6600Y0I0J400D01*
G01*
X5350Y3950D02*
X5600D01*
X3225D02*
X5350D01*
X5350D02*
X5350Y3950D01*
X2974Y4199D02*
X2975D01*
X2974Y4200D02*
X2974Y4199D01*
X2541Y4200D02*
X2974D01*
X2975Y3950D02*
Y4199D01*
X2975Y3950D02*
X2975Y3950D01*
X5600D02*
X6200D01*
X600Y3950D02*
X2975D01*
X0Y3950D02*
X600Y3950D01*
X6600Y0D02*
Y3550D01*
X-400Y0D02*
Y3550D01*
X0Y-400D02*
X6200D01*
X3225Y3950D02*
Y4200D01*
X2540Y4199D02*
Y5015D01*
X3660D01*
Y4200D02*
Y5015D01*
X3225Y4200D02*
X3660D01*
X2541Y4200D02*
X2541Y4200D01*
D51*
X3972Y3278D02*
X4042Y3208D01*
Y2927D02*
Y3208D01*
X3665Y2550D02*
X4042Y2927D01*
X3395Y2550D02*
X3665D01*
X3278Y2433D02*
X3395Y2550D01*
X3278Y2317D02*
Y2433D01*
D52*
X145Y3190D02*
D03*
X3830Y3061D02*
D03*
D53*
X750Y-305D02*
D03*
X1120D02*
D03*
X2167Y1593D02*
D03*
X3354Y2960D02*
D03*
X5535Y568D02*
D03*
X3824Y794D02*
D03*
X5510Y1729D02*
D03*
X1626Y671D02*
D03*
X3278Y2317D02*
D03*
X2430Y3405D02*
D03*
X3583Y-220D02*
D03*
X2748Y-129D02*
D03*
X2883D02*
D03*
X586Y1814D02*
D03*
X2685Y447D02*
D03*
X1635D02*
D03*
X4116Y-245D02*
D03*
X255Y-242D02*
D03*
X2473Y2103D02*
D03*
X2248Y2167D02*
D03*
X1532Y1148D02*
D03*
X923Y185D02*
D03*
X1733Y1007D02*
D03*
X2811Y4588D02*
D03*
X3178Y4592D02*
D03*
X4883Y2208D02*
D03*
X4595Y2244D02*
D03*
X3855Y2570D02*
D03*
X3635Y-100D02*
D03*
X1453Y838D02*
D03*
X3507Y2467D02*
D03*
X5719Y-79D02*
D03*
X4932Y199D02*
D03*
X5048Y192D02*
D03*
X4552Y216D02*
D03*
X2881Y2917D02*
D03*
X3356Y426D02*
D03*
X3450Y342D02*
D03*
X2599Y2504D02*
D03*
X4311Y2636D02*
D03*
X3439Y1546D02*
D03*
X1777Y841D02*
D03*
X3411Y1200D02*
D03*
X3239Y1161D02*
D03*
X5766Y2055D02*
D03*
X2310Y2010D02*
D03*
X2630Y645D02*
D03*
X3900Y1877D02*
D03*
X2890Y1207D02*
D03*
X3692Y1084D02*
D03*
X3728Y643D02*
D03*
X3100Y805D02*
D03*
X1590Y3173D02*
D03*
X451Y1729D02*
D03*
X3612Y985D02*
D03*
X4463Y-235D02*
D03*
X3972Y3278D02*
D03*
X5372Y-120D02*
D03*
X5658Y1060D02*
D03*
X451Y1814D02*
D03*
X5442Y1530D02*
D03*
X3053Y465D02*
D03*
X2328Y658D02*
D03*
X2241Y895D02*
D03*
X5030Y3055D02*
D03*
X5730Y158D02*
D03*
X5828Y948D02*
D03*
X5117Y-25D02*
D03*
X3380Y-308D02*
D03*
X3497Y-5D02*
D03*
X3588Y-18D02*
D03*
X4565Y1040D02*
D03*
D55*
X1839Y-140D02*
D03*
X2662Y3584D02*
D03*
X2799Y4852D02*
D03*
D68*
X5030Y2525D02*
X5228Y2327D01*
X5030Y2525D02*
Y3055D01*
X5195Y2226D02*
X5228Y2259D01*
Y2327D01*
X5195Y1777D02*
Y2226D01*
Y1777D02*
X5442Y1530D01*
M02*
