G04 Layer_Color=128*
%FSLAX42Y42*%
%MOMM*%
G71*
G01*
G75*
%ADD15R,0.70X1.10*%
%ADD45R,0.35X2.80*%
%ADD46R,3.80X0.35*%
%ADD47R,0.95X0.45*%
%ADD48R,1.30X0.76*%
%ADD50C,0.25*%
%ADD69O,0.68X0.25*%
%ADD70R,1.65X2.38*%
%ADD73R,1.80X1.00*%
%ADD74R,0.24X0.60*%
%ADD78R,0.60X0.24*%
%ADD79R,0.75X0.40*%
%ADD80R,0.90X0.65*%
%ADD81O,0.45X1.50*%
%ADD82R,0.45X1.50*%
%ADD83R,0.30X1.19*%
%ADD84R,1.19X0.30*%
%ADD85O,1.00X0.25*%
%ADD86O,0.85X0.25*%
%ADD87R,0.45X0.50*%
%ADD88R,2.50X1.75*%
%ADD89R,1.70X0.80*%
%ADD90R,1.20X1.40*%
%ADD96R,1.20X1.10*%
%ADD97C,0.25*%
%ADD103R,1.10X0.70*%
%ADD180R,0.70X2.30*%
%ADD181R,2.30X1.40*%
%ADD182R,1.40X2.30*%
%ADD183R,3.50X1.00*%
%ADD184R,1.40X0.70*%
G36*
X5531Y861D02*
X5531Y861D01*
X5532Y860D01*
X5533Y860D01*
X5534Y859D01*
X5534Y858D01*
X5534Y857D01*
X5535Y856D01*
Y841D01*
X5534Y840D01*
X5534Y839D01*
X5534Y838D01*
X5533Y838D01*
X5532Y837D01*
X5531Y837D01*
X5531Y836D01*
X5530Y836D01*
X5468D01*
X5467Y836D01*
X5466Y837D01*
X5465Y837D01*
X5464Y838D01*
X5463Y838D01*
X5463Y839D01*
X5463Y840D01*
X5463Y841D01*
Y856D01*
X5463Y857D01*
X5463Y858D01*
X5463Y859D01*
X5464Y860D01*
X5465Y860D01*
X5466Y861D01*
X5467Y861D01*
X5468Y861D01*
X5530D01*
X5531Y861D01*
D02*
G37*
G36*
X5421Y911D02*
X5422Y911D01*
X5423Y910D01*
X5424Y910D01*
X5424Y909D01*
X5425Y908D01*
X5425Y907D01*
X5425Y906D01*
Y891D01*
X5425Y890D01*
X5425Y889D01*
X5424Y888D01*
X5424Y888D01*
X5423Y887D01*
X5422Y887D01*
X5421Y886D01*
X5420Y886D01*
X5373D01*
X5372Y886D01*
X5371Y887D01*
X5370Y887D01*
X5369Y888D01*
X5368Y888D01*
X5368Y889D01*
X5368Y890D01*
X5368Y891D01*
Y906D01*
X5368Y907D01*
X5368Y908D01*
X5368Y909D01*
X5369Y910D01*
X5370Y910D01*
X5371Y911D01*
X5372Y911D01*
X5373Y911D01*
X5420D01*
X5421Y911D01*
D02*
G37*
G36*
X5498D02*
X5499Y911D01*
X5500Y910D01*
X5501Y910D01*
X5502Y909D01*
X5502Y908D01*
X5502Y907D01*
X5503Y906D01*
Y891D01*
X5502Y890D01*
X5502Y889D01*
X5502Y888D01*
X5501Y888D01*
X5500Y887D01*
X5499Y887D01*
X5498Y886D01*
X5498Y886D01*
X5450D01*
X5449Y886D01*
X5448Y887D01*
X5447Y887D01*
X5446Y888D01*
X5446Y888D01*
X5445Y889D01*
X5445Y890D01*
X5445Y891D01*
Y906D01*
X5445Y907D01*
X5445Y908D01*
X5446Y909D01*
X5446Y910D01*
X5447Y910D01*
X5448Y911D01*
X5449Y911D01*
X5450Y911D01*
X5498D01*
X5498Y911D01*
D02*
G37*
G36*
Y811D02*
X5499Y811D01*
X5500Y810D01*
X5501Y810D01*
X5502Y809D01*
X5502Y808D01*
X5502Y807D01*
X5503Y806D01*
Y791D01*
X5502Y790D01*
X5502Y789D01*
X5502Y788D01*
X5501Y788D01*
X5500Y787D01*
X5499Y787D01*
X5498Y786D01*
X5498Y786D01*
X5450D01*
X5449Y786D01*
X5448Y787D01*
X5447Y787D01*
X5446Y788D01*
X5446Y788D01*
X5445Y789D01*
X5445Y790D01*
X5445Y791D01*
Y806D01*
X5445Y807D01*
X5445Y808D01*
X5446Y809D01*
X5446Y810D01*
X5447Y810D01*
X5448Y811D01*
X5449Y811D01*
X5450Y811D01*
X5498D01*
X5498Y811D01*
D02*
G37*
G36*
X5807Y789D02*
X5774Y793D01*
X5737Y789D01*
Y859D01*
X5807D01*
Y789D01*
D02*
G37*
G36*
X5439Y861D02*
X5439Y861D01*
X5440Y860D01*
X5441Y860D01*
X5442Y859D01*
X5442Y858D01*
X5442Y857D01*
X5443Y856D01*
Y841D01*
X5442Y840D01*
X5442Y839D01*
X5442Y838D01*
X5441Y838D01*
X5440Y837D01*
X5439Y837D01*
X5439Y836D01*
X5438Y836D01*
X5376D01*
X5375Y836D01*
X5374Y837D01*
X5373Y837D01*
X5372Y838D01*
X5371Y838D01*
X5371Y839D01*
X5371Y840D01*
X5371Y841D01*
Y856D01*
X5371Y857D01*
X5371Y858D01*
X5371Y859D01*
X5372Y860D01*
X5373Y860D01*
X5374Y861D01*
X5375Y861D01*
X5376Y861D01*
X5438D01*
X5439Y861D01*
D02*
G37*
G36*
X5211Y851D02*
X5141D01*
Y921D01*
X5176Y917D01*
X5211Y921D01*
Y851D01*
D02*
G37*
G36*
X1095Y875D02*
X1025D01*
Y945D01*
X1060Y941D01*
X1095Y945D01*
Y875D01*
D02*
G37*
G36*
X5494Y1019D02*
X5494Y1018D01*
X5495Y1018D01*
X5496Y1017D01*
X5497Y1016D01*
X5497Y1016D01*
X5497Y1015D01*
X5498Y1014D01*
Y979D01*
Y964D01*
X5497Y963D01*
X5497Y962D01*
X5497Y961D01*
X5497Y961D01*
X5496Y960D01*
X5496D01*
Y960D01*
X5495Y960D01*
X5495Y959D01*
X5494Y959D01*
X5494Y959D01*
X5493Y959D01*
X5428D01*
X5427Y959D01*
X5426Y959D01*
X5425Y959D01*
X5425Y960D01*
X5424Y960D01*
Y960D01*
X5424D01*
X5423Y961D01*
X5423Y961D01*
X5423Y962D01*
X5423Y963D01*
X5423Y964D01*
Y979D01*
Y1014D01*
X5423Y1015D01*
X5423Y1016D01*
X5423Y1016D01*
X5424Y1017D01*
X5425Y1018D01*
X5426Y1018D01*
X5427Y1019D01*
X5428Y1019D01*
X5443D01*
X5444Y1019D01*
X5444Y1018D01*
X5445Y1018D01*
X5446Y1017D01*
X5447Y1016D01*
X5447Y1016D01*
X5447Y1015D01*
X5448Y1014D01*
Y984D01*
X5473D01*
Y1014D01*
X5473Y1015D01*
X5473Y1016D01*
X5473Y1016D01*
X5474Y1017D01*
X5475Y1018D01*
X5476Y1018D01*
X5477Y1019D01*
X5478Y1019D01*
X5493D01*
X5494Y1019D01*
D02*
G37*
G36*
X5211Y1001D02*
X5178Y1005D01*
X5141Y1001D01*
Y1071D01*
X5211D01*
Y1001D01*
D02*
G37*
G36*
X523Y875D02*
X453D01*
Y945D01*
X486Y941D01*
X523Y945D01*
Y875D01*
D02*
G37*
G36*
X920D02*
X850D01*
Y945D01*
X883Y941D01*
X920Y945D01*
Y875D01*
D02*
G37*
G36*
X670Y875D02*
X600D01*
Y945D01*
X635Y941D01*
X670Y945D01*
Y875D01*
D02*
G37*
G36*
X2082Y568D02*
X2060Y571D01*
X2038Y568D01*
Y612D01*
X2082D01*
Y568D01*
D02*
G37*
G36*
X1095Y558D02*
X1025D01*
Y628D01*
X1058Y624D01*
X1095Y628D01*
Y558D01*
D02*
G37*
G36*
X578Y578D02*
X508D01*
Y648D01*
X541Y644D01*
X578Y648D01*
Y578D01*
D02*
G37*
G36*
X2735Y525D02*
X2665D01*
X2669Y560D01*
X2665Y595D01*
X2735D01*
Y525D01*
D02*
G37*
G36*
X1366Y575D02*
X1370Y540D01*
X1300D01*
Y610D01*
X1370D01*
X1366Y575D01*
D02*
G37*
G36*
X1520Y540D02*
X1450D01*
X1454Y573D01*
X1450Y610D01*
X1520D01*
Y540D01*
D02*
G37*
G36*
X5211Y579D02*
X5141D01*
Y649D01*
X5174Y645D01*
X5211Y649D01*
Y579D01*
D02*
G37*
G36*
X578Y728D02*
X543Y732D01*
X508Y728D01*
Y798D01*
X578D01*
Y728D01*
D02*
G37*
G36*
X5211Y729D02*
X5176Y733D01*
X5141Y729D01*
Y799D01*
X5211D01*
Y729D01*
D02*
G37*
G36*
X5421Y811D02*
X5422Y811D01*
X5423Y810D01*
X5424Y810D01*
X5424Y809D01*
X5425Y808D01*
X5425Y807D01*
X5425Y806D01*
Y791D01*
X5425Y790D01*
X5425Y789D01*
X5424Y788D01*
X5424Y788D01*
X5423Y787D01*
X5422Y787D01*
X5421Y786D01*
X5420Y786D01*
X5373D01*
X5372Y786D01*
X5371Y787D01*
X5370Y787D01*
X5369Y788D01*
X5368Y788D01*
X5368Y789D01*
X5368Y790D01*
X5368Y791D01*
Y806D01*
X5368Y807D01*
X5368Y808D01*
X5368Y809D01*
X5369Y810D01*
X5370Y810D01*
X5371Y811D01*
X5372Y811D01*
X5373Y811D01*
X5420D01*
X5421Y811D01*
D02*
G37*
G36*
X5494Y739D02*
X5494Y738D01*
X5495Y738D01*
X5495Y738D01*
X5496Y737D01*
Y737D01*
X5496D01*
X5497Y736D01*
X5497Y736D01*
X5497Y736D01*
X5497Y735D01*
X5498Y734D01*
Y684D01*
X5497Y683D01*
X5497Y682D01*
X5497Y681D01*
X5496Y680D01*
X5495Y680D01*
X5494Y679D01*
X5494Y679D01*
X5493Y679D01*
X5478D01*
X5477Y679D01*
X5476Y679D01*
X5475Y680D01*
X5474Y680D01*
X5473Y681D01*
X5473Y682D01*
X5473Y683D01*
X5473Y684D01*
Y714D01*
X5448D01*
Y684D01*
X5447Y683D01*
X5447Y682D01*
X5447Y681D01*
X5446Y680D01*
X5445Y680D01*
X5444Y679D01*
X5444Y679D01*
X5443Y679D01*
X5428D01*
X5427Y679D01*
X5426Y679D01*
X5425Y680D01*
X5424Y680D01*
X5423Y681D01*
X5423Y682D01*
X5423Y683D01*
X5423Y684D01*
Y719D01*
Y734D01*
X5423Y735D01*
X5423Y736D01*
X5423Y736D01*
X5423Y736D01*
X5424Y737D01*
X5424D01*
Y737D01*
X5425Y738D01*
X5425Y738D01*
X5426Y738D01*
X5427Y739D01*
X5428Y739D01*
X5493D01*
X5494Y739D01*
D02*
G37*
G36*
X5807Y639D02*
X5737D01*
Y709D01*
X5772Y705D01*
X5807Y709D01*
Y639D01*
D02*
G37*
G36*
X1095Y708D02*
X1060Y712D01*
X1025Y708D01*
Y778D01*
X1095D01*
Y708D01*
D02*
G37*
G36*
X5471Y1188D02*
X5475Y1153D01*
X5405D01*
Y1223D01*
X5475D01*
X5471Y1188D01*
D02*
G37*
G36*
X5625Y1153D02*
X5555D01*
X5559Y1186D01*
X5555Y1223D01*
X5625D01*
Y1153D01*
D02*
G37*
G36*
X446Y1270D02*
X450Y1233D01*
X380D01*
Y1303D01*
X450D01*
X446Y1270D01*
D02*
G37*
G36*
X2395Y1100D02*
X2362Y1104D01*
X2325Y1100D01*
Y1170D01*
X2395D01*
Y1100D01*
D02*
G37*
G36*
X2535D02*
X2502Y1104D01*
X2465Y1100D01*
Y1170D01*
X2535D01*
Y1100D01*
D02*
G37*
G36*
X2700D02*
X2667Y1104D01*
X2630Y1100D01*
Y1170D01*
X2700D01*
Y1100D01*
D02*
G37*
G36*
X600Y1233D02*
X530D01*
X534Y1268D01*
X530Y1303D01*
X600D01*
Y1233D01*
D02*
G37*
G36*
X1764Y1448D02*
X1694D01*
Y1518D01*
X1727Y1514D01*
X1764Y1518D01*
Y1448D01*
D02*
G37*
G36*
X1903D02*
X1833D01*
Y1518D01*
X1866Y1514D01*
X1903Y1518D01*
Y1448D01*
D02*
G37*
G36*
X3880Y1525D02*
X3810D01*
Y1595D01*
X3845Y1591D01*
X3880Y1595D01*
Y1525D01*
D02*
G37*
G36*
X2089Y1337D02*
X2092Y1300D01*
X2023D01*
Y1370D01*
X2092D01*
X2089Y1337D01*
D02*
G37*
G36*
X2242Y1300D02*
X2173D01*
X2176Y1335D01*
X2173Y1370D01*
X2242D01*
Y1300D01*
D02*
G37*
G36*
X1625Y1448D02*
X1555D01*
Y1518D01*
X1588Y1514D01*
X1625Y1518D01*
Y1448D01*
D02*
G37*
G36*
X2535Y950D02*
X2465D01*
Y1020D01*
X2500Y1016D01*
X2535Y1020D01*
Y950D01*
D02*
G37*
G36*
X2700D02*
X2630D01*
Y1020D01*
X2665Y1016D01*
X2700Y1020D01*
Y950D01*
D02*
G37*
G36*
X523Y1025D02*
X488Y1029D01*
X453Y1025D01*
Y1095D01*
X523D01*
Y1025D01*
D02*
G37*
G36*
X2078Y950D02*
X2008D01*
Y1020D01*
X2043Y1016D01*
X2078Y1020D01*
Y950D01*
D02*
G37*
G36*
X2257D02*
X2187D01*
Y1020D01*
X2222Y1016D01*
X2257Y1020D01*
Y950D01*
D02*
G37*
G36*
X2395D02*
X2325D01*
Y1020D01*
X2360Y1016D01*
X2395Y1020D01*
Y950D01*
D02*
G37*
G36*
X920Y1025D02*
X885Y1029D01*
X850Y1025D01*
Y1095D01*
X920D01*
Y1025D01*
D02*
G37*
G36*
X4484Y1095D02*
X4414D01*
X4418Y1128D01*
X4414Y1165D01*
X4484D01*
Y1095D01*
D02*
G37*
G36*
X2078Y1100D02*
X2045Y1104D01*
X2008Y1100D01*
Y1170D01*
X2078D01*
Y1100D01*
D02*
G37*
G36*
X2257D02*
X2224Y1104D01*
X2187Y1100D01*
Y1170D01*
X2257D01*
Y1100D01*
D02*
G37*
G36*
X670Y1025D02*
X637Y1029D01*
X600Y1025D01*
Y1095D01*
X670D01*
Y1025D01*
D02*
G37*
G36*
X1095D02*
X1062Y1029D01*
X1025Y1025D01*
Y1095D01*
X1095D01*
Y1025D01*
D02*
G37*
G36*
X4330Y1130D02*
X4334Y1095D01*
X4264D01*
Y1165D01*
X4334D01*
X4330Y1130D01*
D02*
G37*
G36*
X2435Y5D02*
X2365D01*
X2369Y40D01*
X2365Y75D01*
X2435D01*
Y5D01*
D02*
G37*
G36*
X583Y16D02*
X548Y20D01*
X513Y16D01*
Y86D01*
X583D01*
Y16D01*
D02*
G37*
G36*
X418Y16D02*
X385Y20D01*
X348Y16D01*
Y86D01*
X418D01*
Y16D01*
D02*
G37*
G36*
X4634Y-8D02*
X4638Y-45D01*
X4568D01*
Y25D01*
X4638D01*
X4634Y-8D01*
D02*
G37*
G36*
X4788Y-45D02*
X4718D01*
X4722Y-10D01*
X4718Y25D01*
X4788D01*
Y-45D01*
D02*
G37*
G36*
X2281Y42D02*
X2285Y5D01*
X2215D01*
Y75D01*
X2285D01*
X2281Y42D01*
D02*
G37*
G36*
X722Y16D02*
X689Y20D01*
X653Y16D01*
Y86D01*
X722D01*
Y16D01*
D02*
G37*
G36*
X2435Y113D02*
X2365D01*
X2369Y146D01*
X2365Y183D01*
X2435D01*
Y113D01*
D02*
G37*
G36*
X1175Y95D02*
X1105D01*
Y165D01*
X1138Y161D01*
X1175Y165D01*
Y95D01*
D02*
G37*
G36*
X1050Y95D02*
X980D01*
Y165D01*
X1015Y161D01*
X1050Y165D01*
Y95D01*
D02*
G37*
G36*
X2699Y92D02*
X2702Y55D01*
X2633D01*
Y125D01*
X2702D01*
X2699Y92D01*
D02*
G37*
G36*
X2852Y55D02*
X2783D01*
X2786Y90D01*
X2783Y125D01*
X2852D01*
Y55D01*
D02*
G37*
G36*
X2281Y148D02*
X2285Y113D01*
X2215D01*
Y183D01*
X2285D01*
X2281Y148D01*
D02*
G37*
G36*
X2435Y-300D02*
X2365D01*
Y-230D01*
X2398Y-234D01*
X2435Y-230D01*
Y-300D01*
D02*
G37*
G36*
X4634Y-167D02*
X4638Y-203D01*
X4568D01*
Y-133D01*
X4638D01*
X4634Y-167D01*
D02*
G37*
G36*
X4788Y-203D02*
X4718D01*
X4722Y-170D01*
X4718Y-133D01*
X4788D01*
Y-203D01*
D02*
G37*
G36*
X3159Y-278D02*
X3163Y-312D01*
X3093D01*
Y-242D01*
X3163D01*
X3159Y-278D01*
D02*
G37*
G36*
X3313Y-312D02*
X3243D01*
X3247Y-280D01*
X3243Y-242D01*
X3313D01*
Y-312D01*
D02*
G37*
G36*
X2310Y-300D02*
X2240D01*
Y-230D01*
X2273Y-234D01*
X2310Y-230D01*
Y-300D01*
D02*
G37*
G36*
Y-150D02*
X2275Y-146D01*
X2240Y-150D01*
Y-80D01*
X2310D01*
Y-150D01*
D02*
G37*
G36*
X583Y-134D02*
X513D01*
Y-64D01*
X546Y-68D01*
X583Y-64D01*
Y-134D01*
D02*
G37*
G36*
X418Y-134D02*
X348D01*
Y-64D01*
X383Y-68D01*
X418Y-64D01*
Y-134D01*
D02*
G37*
G36*
X722D02*
X653D01*
Y-64D01*
X688Y-68D01*
X722Y-64D01*
Y-134D01*
D02*
G37*
G36*
X2435Y-150D02*
X2400Y-146D01*
X2365Y-150D01*
Y-80D01*
X2435D01*
Y-150D01*
D02*
G37*
G36*
X3159Y-57D02*
X3163Y-93D01*
X3093D01*
Y-22D01*
X3163D01*
X3159Y-57D01*
D02*
G37*
G36*
X3313Y-93D02*
X3243D01*
X3247Y-60D01*
X3243Y-22D01*
X3313D01*
Y-93D01*
D02*
G37*
G36*
X1775Y412D02*
X1742Y416D01*
X1705Y412D01*
Y482D01*
X1775D01*
Y412D01*
D02*
G37*
G36*
X771Y457D02*
X775Y420D01*
X705D01*
Y490D01*
X775D01*
X771Y457D01*
D02*
G37*
G36*
X925Y420D02*
X855D01*
X859Y455D01*
X855Y490D01*
X925D01*
Y420D01*
D02*
G37*
G36*
X5662Y362D02*
X5592D01*
X5597Y397D01*
X5592Y432D01*
X5662D01*
Y362D01*
D02*
G37*
G36*
X4317Y305D02*
X4247D01*
Y375D01*
X4283Y371D01*
X4317Y375D01*
Y305D01*
D02*
G37*
G36*
X2082Y386D02*
X2060Y388D01*
X2038Y386D01*
Y430D01*
X2082D01*
Y386D01*
D02*
G37*
G36*
X418Y425D02*
X385Y429D01*
X348Y425D01*
Y495D01*
X418D01*
Y425D01*
D02*
G37*
G36*
X5812Y492D02*
X5742D01*
X5747Y527D01*
X5742Y562D01*
X5812D01*
Y492D01*
D02*
G37*
G36*
X2082Y468D02*
X2038D01*
Y512D01*
X2060Y509D01*
X2082Y512D01*
Y468D01*
D02*
G37*
G36*
X2581Y562D02*
X2585Y525D01*
X2515D01*
Y595D01*
X2585D01*
X2581Y562D01*
D02*
G37*
G36*
X578Y425D02*
X543Y429D01*
X508Y425D01*
Y495D01*
X578D01*
Y425D01*
D02*
G37*
G36*
X4317Y455D02*
X4285Y459D01*
X4247Y455D01*
Y525D01*
X4317D01*
Y455D01*
D02*
G37*
G36*
X5658Y529D02*
X5662Y492D01*
X5592D01*
Y562D01*
X5662D01*
X5658Y529D01*
D02*
G37*
G36*
X1175Y245D02*
X1140Y249D01*
X1105Y245D01*
Y315D01*
X1175D01*
Y245D01*
D02*
G37*
G36*
X1050Y245D02*
X1017Y249D01*
X980Y245D01*
Y315D01*
X1050D01*
Y245D01*
D02*
G37*
G36*
X1919Y270D02*
X1884Y274D01*
X1849Y270D01*
Y340D01*
X1919D01*
Y270D01*
D02*
G37*
G36*
Y120D02*
X1849D01*
Y190D01*
X1882Y186D01*
X1919Y190D01*
Y120D01*
D02*
G37*
G36*
X5508Y253D02*
X5512Y217D01*
X5442D01*
Y288D01*
X5512D01*
X5508Y253D01*
D02*
G37*
G36*
X5662Y217D02*
X5592D01*
X5597Y251D01*
X5592Y288D01*
X5662D01*
Y217D01*
D02*
G37*
G36*
X2581Y310D02*
X2585Y272D01*
X2515D01*
Y342D01*
X2585D01*
X2581Y310D01*
D02*
G37*
G36*
X418Y275D02*
X348D01*
Y345D01*
X383Y341D01*
X418Y345D01*
Y275D01*
D02*
G37*
G36*
X578Y275D02*
X508D01*
Y345D01*
X541Y341D01*
X578Y345D01*
Y275D01*
D02*
G37*
G36*
X5508Y399D02*
X5512Y362D01*
X5442D01*
Y432D01*
X5512D01*
X5508Y399D01*
D02*
G37*
G36*
X2735Y272D02*
X2665D01*
X2669Y308D01*
X2665Y342D01*
X2735D01*
Y272D01*
D02*
G37*
G36*
X2082Y286D02*
X2038D01*
Y330D01*
X2060Y327D01*
X2082Y330D01*
Y286D01*
D02*
G37*
G36*
X1775Y262D02*
X1705D01*
Y333D01*
X1740Y329D01*
X1775Y333D01*
Y262D01*
D02*
G37*
G36*
X2629Y2926D02*
X2633Y2891D01*
X2563D01*
Y2961D01*
X2633D01*
X2629Y2926D01*
D02*
G37*
G36*
X2783Y2891D02*
X2713D01*
X2717Y2924D01*
X2713Y2961D01*
X2783D01*
Y2891D01*
D02*
G37*
G36*
X1314Y2967D02*
X1318Y2930D01*
X1248D01*
Y3000D01*
X1318D01*
X1314Y2967D01*
D02*
G37*
G36*
X4994Y2790D02*
X4924D01*
Y2860D01*
X4959Y2856D01*
X4994Y2860D01*
Y2790D01*
D02*
G37*
G36*
X5136D02*
X5066D01*
Y2860D01*
X5101Y2856D01*
X5136Y2860D01*
Y2790D01*
D02*
G37*
G36*
X2500Y2891D02*
X2467Y2895D01*
X2430Y2891D01*
Y2961D01*
X2500D01*
Y2891D01*
D02*
G37*
G36*
X1468Y2930D02*
X1398D01*
X1402Y2965D01*
X1398Y3000D01*
X1468D01*
Y2930D01*
D02*
G37*
G36*
X3692Y2948D02*
X3622D01*
X3626Y2983D01*
X3622Y3018D01*
X3692D01*
Y2948D01*
D02*
G37*
G36*
X3037Y2882D02*
X2967D01*
Y2952D01*
X3002Y2948D01*
X3037Y2952D01*
Y2882D01*
D02*
G37*
G36*
X3187D02*
X3117D01*
Y2952D01*
X3152Y2948D01*
X3187Y2952D01*
Y2882D01*
D02*
G37*
G36*
X4994Y2940D02*
X4961Y2944D01*
X4924Y2940D01*
Y3010D01*
X4994D01*
Y2940D01*
D02*
G37*
G36*
X5136D02*
X5103Y2944D01*
X5066Y2940D01*
Y3010D01*
X5136D01*
Y2940D01*
D02*
G37*
G36*
X3538Y2985D02*
X3542Y2948D01*
X3472D01*
Y3018D01*
X3542D01*
X3538Y2985D01*
D02*
G37*
G36*
X1514Y2508D02*
X1481Y2511D01*
X1444Y2508D01*
Y2577D01*
X1514D01*
Y2508D01*
D02*
G37*
G36*
X2410Y2480D02*
X2340D01*
Y2550D01*
X2373Y2546D01*
X2410Y2550D01*
Y2480D01*
D02*
G37*
G36*
X2528Y2480D02*
X2458D01*
Y2550D01*
X2493Y2546D01*
X2528Y2550D01*
Y2480D01*
D02*
G37*
G36*
X4038Y2502D02*
X4042Y2467D01*
X3972D01*
Y2538D01*
X4042D01*
X4038Y2502D01*
D02*
G37*
G36*
X4192Y2467D02*
X4122D01*
X4126Y2500D01*
X4122Y2538D01*
X4192D01*
Y2467D01*
D02*
G37*
G36*
X1357Y2508D02*
X1324Y2511D01*
X1288Y2508D01*
Y2577D01*
X1357D01*
Y2508D01*
D02*
G37*
G36*
X2410Y2630D02*
X2375Y2634D01*
X2340Y2630D01*
Y2700D01*
X2410D01*
Y2630D01*
D02*
G37*
G36*
X1314Y2839D02*
X1318Y2802D01*
X1248D01*
Y2872D01*
X1318D01*
X1314Y2839D01*
D02*
G37*
G36*
X1468Y2802D02*
X1398D01*
X1402Y2837D01*
X1398Y2872D01*
X1468D01*
Y2802D01*
D02*
G37*
G36*
X2500Y2741D02*
X2430D01*
Y2811D01*
X2465Y2807D01*
X2500Y2811D01*
Y2741D01*
D02*
G37*
G36*
X2528Y2630D02*
X2495Y2634D01*
X2458Y2630D01*
Y2700D01*
X2528D01*
Y2630D01*
D02*
G37*
G36*
X3342Y2615D02*
X3272D01*
Y2685D01*
X3306Y2681D01*
X3342Y2685D01*
Y2615D01*
D02*
G37*
G36*
Y2765D02*
X3308Y2769D01*
X3272Y2765D01*
Y2835D01*
X3342D01*
Y2765D01*
D02*
G37*
G36*
X4003Y3437D02*
X4007Y3400D01*
X3937D01*
Y3470D01*
X4007D01*
X4003Y3437D01*
D02*
G37*
G36*
X4157Y3400D02*
X4087D01*
X4091Y3435D01*
X4087Y3470D01*
X4157D01*
Y3400D01*
D02*
G37*
G36*
X4304Y3403D02*
X4271Y3406D01*
X4234Y3403D01*
Y3472D01*
X4304D01*
Y3403D01*
D02*
G37*
G36*
X1143Y3385D02*
X1110Y3389D01*
X1073Y3385D01*
Y3455D01*
X1143D01*
Y3385D01*
D02*
G37*
G36*
X436Y3430D02*
X440Y3395D01*
X370D01*
Y3465D01*
X440D01*
X436Y3430D01*
D02*
G37*
G36*
X590Y3395D02*
X520D01*
X524Y3428D01*
X520Y3465D01*
X590D01*
Y3395D01*
D02*
G37*
G36*
X4483Y3403D02*
X4449Y3406D01*
X4412Y3403D01*
Y3472D01*
X4483D01*
Y3403D01*
D02*
G37*
G36*
X3571Y4357D02*
X3501D01*
Y4427D01*
X3534Y4423D01*
X3571Y4427D01*
Y4357D01*
D02*
G37*
G36*
X2756Y4495D02*
X2723Y4499D01*
X2686Y4495D01*
Y4565D01*
X2756D01*
Y4495D01*
D02*
G37*
G36*
X3571Y4507D02*
X3536Y4511D01*
X3501Y4507D01*
Y4577D01*
X3571D01*
Y4507D01*
D02*
G37*
G36*
X1933Y3700D02*
X1938Y3665D01*
X1867D01*
Y3735D01*
X1938D01*
X1933Y3700D01*
D02*
G37*
G36*
X2088Y3665D02*
X2017D01*
X2022Y3698D01*
X2017Y3735D01*
X2088D01*
Y3665D01*
D02*
G37*
G36*
X2756Y4345D02*
X2686D01*
Y4415D01*
X2721Y4411D01*
X2756Y4415D01*
Y4345D01*
D02*
G37*
G36*
X2784Y3037D02*
X2714D01*
X2718Y3070D01*
X2714Y3107D01*
X2784D01*
Y3037D01*
D02*
G37*
G36*
X1314Y3117D02*
X1318Y3080D01*
X1248D01*
Y3150D01*
X1318D01*
X1314Y3117D01*
D02*
G37*
G36*
X1468Y3080D02*
X1398D01*
X1402Y3115D01*
X1398Y3150D01*
X1468D01*
Y3080D01*
D02*
G37*
G36*
X3037Y3032D02*
X3004Y3036D01*
X2967Y3032D01*
Y3102D01*
X3037D01*
Y3032D01*
D02*
G37*
G36*
X3187D02*
X3154Y3036D01*
X3117Y3032D01*
Y3102D01*
X3187D01*
Y3032D01*
D02*
G37*
G36*
X2630Y3072D02*
X2634Y3037D01*
X2564D01*
Y3107D01*
X2634D01*
X2630Y3072D01*
D02*
G37*
G36*
X586Y3297D02*
X590Y3262D01*
X520D01*
Y3333D01*
X590D01*
X586Y3297D01*
D02*
G37*
G36*
X4304Y3253D02*
X4234D01*
Y3322D01*
X4269Y3319D01*
X4304Y3322D01*
Y3253D01*
D02*
G37*
G36*
X4483D02*
X4412D01*
Y3322D01*
X4447Y3319D01*
X4483Y3322D01*
Y3253D01*
D02*
G37*
G36*
X1282Y3385D02*
X1248Y3389D01*
X1212Y3385D01*
Y3455D01*
X1282D01*
Y3385D01*
D02*
G37*
G36*
X740Y3262D02*
X670D01*
X674Y3296D01*
X670Y3333D01*
X740D01*
Y3262D01*
D02*
G37*
G36*
X1282Y3235D02*
X1212D01*
Y3305D01*
X1245Y3301D01*
X1282Y3305D01*
Y3235D01*
D02*
G37*
G36*
X1143Y3235D02*
X1073D01*
Y3305D01*
X1108Y3301D01*
X1143Y3305D01*
Y3235D01*
D02*
G37*
G36*
X2634Y2013D02*
X2638Y1976D01*
X2568D01*
Y2046D01*
X2638D01*
X2634Y2013D01*
D02*
G37*
G36*
X2788Y1976D02*
X2718D01*
X2722Y2011D01*
X2718Y2046D01*
X2788D01*
Y1976D01*
D02*
G37*
G36*
X3798Y1968D02*
X3728D01*
Y2038D01*
X3761Y2034D01*
X3798Y2038D01*
Y1968D01*
D02*
G37*
G36*
X4765Y1817D02*
X4695D01*
Y1888D01*
X4730Y1883D01*
X4765Y1888D01*
Y1817D01*
D02*
G37*
G36*
X4620Y1967D02*
X4587Y1972D01*
X4550Y1967D01*
Y2038D01*
X4620D01*
Y1967D01*
D02*
G37*
G36*
X4765D02*
X4732Y1972D01*
X4695Y1967D01*
Y2038D01*
X4765D01*
Y1967D01*
D02*
G37*
G36*
X3940Y1968D02*
X3870D01*
Y2038D01*
X3903Y2034D01*
X3940Y2038D01*
Y1968D01*
D02*
G37*
G36*
X656Y2087D02*
X586D01*
X590Y2122D01*
X586Y2157D01*
X656D01*
Y2087D01*
D02*
G37*
G36*
X238Y2122D02*
X242Y2087D01*
X173D01*
Y2157D01*
X242D01*
X238Y2122D01*
D02*
G37*
G36*
X392Y2087D02*
X322D01*
X327Y2120D01*
X322Y2157D01*
X392D01*
Y2087D01*
D02*
G37*
G36*
X4844Y2102D02*
X4847Y2067D01*
X4778D01*
Y2138D01*
X4847D01*
X4844Y2102D01*
D02*
G37*
G36*
X4997Y2067D02*
X4928D01*
X4931Y2100D01*
X4928Y2138D01*
X4997D01*
Y2067D01*
D02*
G37*
G36*
X502Y2124D02*
X506Y2087D01*
X436D01*
Y2157D01*
X506D01*
X502Y2124D01*
D02*
G37*
G36*
X1903Y1598D02*
X1868Y1601D01*
X1833Y1598D01*
Y1667D01*
X1903D01*
Y1598D01*
D02*
G37*
G36*
X3227Y1535D02*
X3157D01*
Y1605D01*
X3192Y1601D01*
X3227Y1605D01*
Y1535D01*
D02*
G37*
G36*
X3335D02*
X3265D01*
Y1605D01*
X3300Y1601D01*
X3335Y1605D01*
Y1535D01*
D02*
G37*
G36*
X4017Y1525D02*
X3947D01*
Y1595D01*
X3983Y1591D01*
X4017Y1595D01*
Y1525D01*
D02*
G37*
G36*
X1625Y1598D02*
X1590Y1601D01*
X1555Y1598D01*
Y1667D01*
X1625D01*
Y1598D01*
D02*
G37*
G36*
X1764D02*
X1729Y1601D01*
X1694Y1598D01*
Y1667D01*
X1764D01*
Y1598D01*
D02*
G37*
G36*
X3880Y1675D02*
X3847Y1679D01*
X3810Y1675D01*
Y1745D01*
X3880D01*
Y1675D01*
D02*
G37*
G36*
X2634Y1881D02*
X2638Y1846D01*
X2568D01*
Y1916D01*
X2638D01*
X2634Y1881D01*
D02*
G37*
G36*
X2788Y1846D02*
X2718D01*
X2722Y1879D01*
X2718Y1916D01*
X2788D01*
Y1846D01*
D02*
G37*
G36*
X4620Y1817D02*
X4550D01*
Y1888D01*
X4585Y1883D01*
X4620Y1888D01*
Y1817D01*
D02*
G37*
G36*
X4017Y1675D02*
X3985Y1679D01*
X3947Y1675D01*
Y1745D01*
X4017D01*
Y1675D01*
D02*
G37*
G36*
X3227Y1685D02*
X3194Y1689D01*
X3157Y1685D01*
Y1755D01*
X3227D01*
Y1685D01*
D02*
G37*
G36*
X3335D02*
X3302Y1689D01*
X3265Y1685D01*
Y1755D01*
X3335D01*
Y1685D01*
D02*
G37*
G36*
X4997Y2300D02*
X4928D01*
X4931Y2333D01*
X4928Y2370D01*
X4997D01*
Y2300D01*
D02*
G37*
G36*
X4266Y2352D02*
X4270Y2317D01*
X4200D01*
Y2388D01*
X4270D01*
X4266Y2352D01*
D02*
G37*
G36*
X4420Y2317D02*
X4350D01*
X4354Y2350D01*
X4350Y2388D01*
X4420D01*
Y2317D01*
D02*
G37*
G36*
X2938Y2267D02*
X2867D01*
X2872Y2302D01*
X2867Y2338D01*
X2938D01*
Y2267D01*
D02*
G37*
G36*
X4700Y2209D02*
X4630D01*
Y2279D01*
X4663Y2275D01*
X4700Y2279D01*
Y2209D01*
D02*
G37*
G36*
X4844Y2335D02*
X4847Y2300D01*
X4778D01*
Y2370D01*
X4847D01*
X4844Y2335D01*
D02*
G37*
G36*
X3886Y2391D02*
X3890Y2354D01*
X3820D01*
Y2424D01*
X3890D01*
X3886Y2391D01*
D02*
G37*
G36*
X2938Y2395D02*
X2867D01*
X2872Y2430D01*
X2867Y2465D01*
X2938D01*
Y2395D01*
D02*
G37*
G36*
X1357Y2358D02*
X1288D01*
Y2427D01*
X1323Y2424D01*
X1357Y2427D01*
Y2358D01*
D02*
G37*
G36*
X1514D02*
X1444D01*
Y2427D01*
X1479Y2424D01*
X1514Y2427D01*
Y2358D01*
D02*
G37*
G36*
X4040Y2354D02*
X3970D01*
X3974Y2389D01*
X3970Y2424D01*
X4040D01*
Y2354D01*
D02*
G37*
G36*
X4700Y2359D02*
X4665Y2363D01*
X4630Y2359D01*
Y2429D01*
X4700D01*
Y2359D01*
D02*
G37*
G36*
X2783Y2432D02*
X2788Y2395D01*
X2717D01*
Y2465D01*
X2788D01*
X2783Y2432D01*
D02*
G37*
G36*
X915Y2095D02*
X845D01*
Y2165D01*
X880Y2161D01*
X915Y2165D01*
Y2095D01*
D02*
G37*
G36*
X5466Y2198D02*
X5470Y2162D01*
X5400D01*
Y2233D01*
X5470D01*
X5466Y2198D01*
D02*
G37*
G36*
X5620Y2162D02*
X5550D01*
X5554Y2195D01*
X5550Y2233D01*
X5620D01*
Y2162D01*
D02*
G37*
G36*
X3798Y2118D02*
X3763Y2122D01*
X3728Y2118D01*
Y2188D01*
X3798D01*
Y2118D01*
D02*
G37*
G36*
X3940D02*
X3905Y2122D01*
X3870Y2118D01*
Y2188D01*
X3940D01*
Y2118D01*
D02*
G37*
G36*
X788Y2095D02*
X718D01*
Y2165D01*
X753Y2161D01*
X788Y2165D01*
Y2095D01*
D02*
G37*
G36*
X502Y2282D02*
X506Y2245D01*
X436D01*
Y2315D01*
X506D01*
X502Y2282D01*
D02*
G37*
G36*
X788Y2245D02*
X755Y2249D01*
X718Y2245D01*
Y2315D01*
X788D01*
Y2245D01*
D02*
G37*
G36*
X915D02*
X882Y2249D01*
X845Y2245D01*
Y2315D01*
X915D01*
Y2245D01*
D02*
G37*
G36*
X2783Y2305D02*
X2788Y2267D01*
X2717D01*
Y2338D01*
X2788D01*
X2783Y2305D01*
D02*
G37*
G36*
X656Y2245D02*
X586D01*
X590Y2280D01*
X586Y2315D01*
X656D01*
Y2245D01*
D02*
G37*
G36*
X238Y2280D02*
X242Y2245D01*
X173D01*
Y2315D01*
X242D01*
X238Y2280D01*
D02*
G37*
G36*
X392Y2245D02*
X322D01*
X327Y2278D01*
X322Y2315D01*
X392D01*
Y2245D01*
D02*
G37*
D15*
X5167Y287D02*
D03*
X5357D02*
D03*
X5167Y112D02*
D03*
X5357D02*
D03*
X5167Y447D02*
D03*
X5357D02*
D03*
X4987Y1203D02*
D03*
X5177D02*
D03*
X5630Y1365D02*
D03*
X5440D02*
D03*
X1700Y3705D02*
D03*
X1510D02*
D03*
X3228Y4345D02*
D03*
X3038D02*
D03*
X396Y1470D02*
D03*
X586D02*
D03*
X5625Y2042D02*
D03*
X5435D02*
D03*
D45*
X345Y1772D02*
D03*
X691D02*
D03*
X5405Y1772D02*
D03*
X5750D02*
D03*
X2643Y-171D02*
D03*
X2988D02*
D03*
D46*
X518Y1894D02*
D03*
Y1649D02*
D03*
X5578Y1894D02*
D03*
Y1649D02*
D03*
X2815Y-49D02*
D03*
Y-294D02*
D03*
D47*
X451Y1814D02*
D03*
X586D02*
D03*
X451Y1729D02*
D03*
X586D02*
D03*
X5510Y1814D02*
D03*
X5645D02*
D03*
X5510Y1729D02*
D03*
X5645D02*
D03*
X2748Y-129D02*
D03*
X2883D02*
D03*
X2748Y-214D02*
D03*
X2883D02*
D03*
D48*
X3715Y2717D02*
D03*
X3505Y2812D02*
D03*
Y2623D02*
D03*
D50*
X6360Y0D02*
G03*
X6360Y0I-160J0D01*
G01*
Y3550D02*
G03*
X6360Y3550I-160J0D01*
G01*
X160D02*
G03*
X160Y3550I-160J0D01*
G01*
Y0D02*
G03*
X160Y0I-160J0D01*
G01*
X6600Y3550D02*
G03*
X6200Y3950I-400J0D01*
G01*
X0D02*
G03*
X-400Y3550I0J-400D01*
G01*
Y0D02*
G03*
X0Y-400I400J0D01*
G01*
X6200D02*
G03*
X6600Y0I0J400D01*
G01*
X5350Y3950D02*
X5600D01*
X3225D02*
X5350D01*
X5350D02*
X5350Y3950D01*
X2974Y4199D02*
X2975D01*
X2974Y4200D02*
X2974Y4199D01*
X2541Y4200D02*
X2974D01*
X2975Y3950D02*
Y4199D01*
X2975Y3950D02*
X2975Y3950D01*
X5600D02*
X6200D01*
X600Y3950D02*
X2975D01*
X0Y3950D02*
X600Y3950D01*
X6600Y0D02*
Y3550D01*
X-400Y0D02*
Y3550D01*
X0Y-400D02*
X6200D01*
X3225Y3950D02*
Y4200D01*
X2540Y4199D02*
Y5015D01*
X3660D01*
Y4200D02*
Y5015D01*
X3225Y4200D02*
X3660D01*
X2541Y4200D02*
X2541Y4200D01*
D69*
X4154Y2003D02*
D03*
Y2053D02*
D03*
Y2103D02*
D03*
Y2153D02*
D03*
Y2203D02*
D03*
X4436D02*
D03*
Y2153D02*
D03*
Y2103D02*
D03*
Y2053D02*
D03*
Y2003D02*
D03*
D70*
X4295Y2103D02*
D03*
D73*
X2302Y558D02*
D03*
Y308D02*
D03*
D74*
X5585Y989D02*
D03*
X5535D02*
D03*
Y709D02*
D03*
X5585D02*
D03*
D78*
X5628Y774D02*
D03*
Y824D02*
D03*
Y874D02*
D03*
Y924D02*
D03*
D79*
X700Y613D02*
D03*
Y678D02*
D03*
Y743D02*
D03*
X890Y613D02*
D03*
Y743D02*
D03*
D80*
X1335Y297D02*
D03*
Y108D02*
D03*
X1575D02*
D03*
Y203D02*
D03*
Y297D02*
D03*
D81*
X340Y3088D02*
D03*
X405D02*
D03*
X470D02*
D03*
X535D02*
D03*
X340Y2508D02*
D03*
X405D02*
D03*
X470D02*
D03*
D82*
X535D02*
D03*
D83*
X3094Y184D02*
D03*
X3144D02*
D03*
X3194D02*
D03*
X3244D02*
D03*
X3294D02*
D03*
X3344D02*
D03*
X3394D02*
D03*
X3444D02*
D03*
X3494D02*
D03*
X3544D02*
D03*
X3594D02*
D03*
X3644D02*
D03*
X3694D02*
D03*
X3744D02*
D03*
X3794D02*
D03*
X3844D02*
D03*
Y1334D02*
D03*
X3794D02*
D03*
X3744D02*
D03*
X3694D02*
D03*
X3644D02*
D03*
X3594D02*
D03*
X3544D02*
D03*
X3494D02*
D03*
X3444D02*
D03*
X3394D02*
D03*
X3344D02*
D03*
X3294D02*
D03*
X3244D02*
D03*
X3194D02*
D03*
X3144D02*
D03*
X3094D02*
D03*
D84*
X4044Y384D02*
D03*
Y434D02*
D03*
Y484D02*
D03*
Y534D02*
D03*
Y584D02*
D03*
Y634D02*
D03*
Y684D02*
D03*
Y734D02*
D03*
Y784D02*
D03*
Y834D02*
D03*
Y884D02*
D03*
Y934D02*
D03*
Y984D02*
D03*
Y1034D02*
D03*
Y1084D02*
D03*
Y1134D02*
D03*
X2894D02*
D03*
Y1084D02*
D03*
Y1034D02*
D03*
Y984D02*
D03*
Y934D02*
D03*
Y884D02*
D03*
Y834D02*
D03*
Y784D02*
D03*
Y734D02*
D03*
Y684D02*
D03*
Y634D02*
D03*
Y584D02*
D03*
Y534D02*
D03*
Y484D02*
D03*
Y434D02*
D03*
Y384D02*
D03*
D85*
X2900Y2787D02*
D03*
D86*
Y2737D02*
D03*
Y2687D02*
D03*
Y2637D02*
D03*
Y2587D02*
D03*
X2748D02*
D03*
Y2637D02*
D03*
Y2687D02*
D03*
Y2737D02*
D03*
Y2787D02*
D03*
D87*
X4803Y3456D02*
D03*
X4613Y3171D02*
D03*
X4803D02*
D03*
X4708D02*
D03*
Y3456D02*
D03*
X4613D02*
D03*
D88*
X4708Y3314D02*
D03*
D89*
X2058Y1823D02*
D03*
Y1482D02*
D03*
D90*
X4783Y2538D02*
D03*
X4962D02*
D03*
D96*
X1323Y2260D02*
D03*
Y2050D02*
D03*
X1480Y2260D02*
D03*
Y2050D02*
D03*
D97*
X993Y1373D02*
X1193D01*
X1093Y1273D02*
Y1473D01*
X4592Y1373D02*
X4792D01*
X4692Y1273D02*
Y1473D01*
X-268Y3095D02*
X-68D01*
X-168Y2995D02*
Y3195D01*
X3550Y3510D02*
X3750D01*
X3650Y3410D02*
Y3610D01*
D103*
X2120Y-272D02*
D03*
Y-82D02*
D03*
D180*
X5315Y3230D02*
D03*
X5005D02*
D03*
D181*
X2167Y2515D02*
D03*
Y2995D02*
D03*
D182*
X5467Y3717D02*
D03*
X4988D02*
D03*
D183*
X4800Y710D02*
D03*
Y947D02*
D03*
D184*
X322Y1055D02*
D03*
Y745D02*
D03*
M02*
