G04 Layer_Color=32768*
%FSLAX42Y42*%
%MOMM*%
G71*
G01*
G75*
%ADD50C,0.25*%
D50*
X6360Y0D02*
G03*
X6360Y0I-160J0D01*
G01*
Y3550D02*
G03*
X6360Y3550I-160J0D01*
G01*
X160D02*
G03*
X160Y3550I-160J0D01*
G01*
Y0D02*
G03*
X160Y0I-160J0D01*
G01*
X6600Y3550D02*
G03*
X6200Y3950I-400J0D01*
G01*
X0D02*
G03*
X-400Y3550I0J-400D01*
G01*
Y0D02*
G03*
X0Y-400I400J0D01*
G01*
X6200D02*
G03*
X6600Y0I0J400D01*
G01*
X5350Y3950D02*
X5600D01*
X3225D02*
X5350D01*
X5350D02*
X5350Y3950D01*
X2974Y4199D02*
X2975D01*
X2974Y4200D02*
X2974Y4199D01*
X2541Y4200D02*
X2974D01*
X2975Y3950D02*
Y4199D01*
X2975Y3950D02*
X2975Y3950D01*
X5600D02*
X6200D01*
X600Y3950D02*
X2975D01*
X0Y3950D02*
X600Y3950D01*
X6600Y0D02*
Y3550D01*
X-400Y0D02*
Y3550D01*
X0Y-400D02*
X6200D01*
X3225Y3950D02*
Y4200D01*
X2540Y4199D02*
Y5015D01*
X3660D01*
Y4200D02*
Y5015D01*
X3225Y4200D02*
X3660D01*
X2541Y4200D02*
X2541Y4200D01*
X6360Y0D02*
G03*
X6360Y0I-160J0D01*
G01*
Y3550D02*
G03*
X6360Y3550I-160J0D01*
G01*
X160D02*
G03*
X160Y3550I-160J0D01*
G01*
Y0D02*
G03*
X160Y0I-160J0D01*
G01*
X6600Y3550D02*
G03*
X6200Y3950I-400J0D01*
G01*
X0D02*
G03*
X-400Y3550I0J-400D01*
G01*
Y0D02*
G03*
X0Y-400I400J0D01*
G01*
X6200D02*
G03*
X6600Y0I0J400D01*
G01*
X5350Y3950D02*
X5600D01*
X3225D02*
X5350D01*
X5350D02*
X5350Y3950D01*
X2974Y4199D02*
X2975D01*
X2974Y4200D02*
X2974Y4199D01*
X2541Y4200D02*
X2974D01*
X2975Y3950D02*
Y4199D01*
X2975Y3950D02*
X2975Y3950D01*
X5600D02*
X6200D01*
X600Y3950D02*
X2975D01*
X0Y3950D02*
X600Y3950D01*
X6600Y0D02*
Y3550D01*
X-400Y0D02*
Y3550D01*
X0Y-400D02*
X6200D01*
X3225Y3950D02*
Y4200D01*
X2540Y4199D02*
Y5015D01*
X3660D01*
Y4200D02*
Y5015D01*
X3225Y4200D02*
X3660D01*
X2541Y4200D02*
X2541Y4200D01*
M02*
