G04 Layer_Color=8421504*
%FSLAX42Y42*%
%MOMM*%
G71*
G01*
G75*
%ADD10R,1.50X0.60*%
%ADD13R,1.15X1.00*%
%ADD14R,1.40X1.10*%
%ADD15R,0.70X1.10*%
%ADD16R,1.15X1.00*%
%ADD17R,1.80X1.40*%
%ADD18R,1.40X1.90*%
%ADD19R,0.80X1.50*%
%ADD20R,1.30X0.80*%
%ADD21R,1.30X0.80*%
%ADD22R,3.00X2.10*%
%ADD23R,1.00X1.60*%
%ADD24R,1.60X1.00*%
%ADD25O,0.47X0.25*%
%ADD26R,0.47X0.25*%
%ADD27R,0.25X0.47*%
%ADD28R,0.35X0.30*%
%ADD29R,0.30X0.35*%
G04:AMPARAMS|DCode=30|XSize=0.35mm|YSize=0.3mm|CornerRadius=0.07mm|HoleSize=0mm|Usage=FLASHONLY|Rotation=270.000|XOffset=0mm|YOffset=0mm|HoleType=Round|Shape=RoundedRectangle|*
%AMROUNDEDRECTD30*
21,1,0.35,0.15,0,0,270.0*
21,1,0.20,0.30,0,0,270.0*
1,1,0.15,-0.07,-0.10*
1,1,0.15,-0.07,0.10*
1,1,0.15,0.07,0.10*
1,1,0.15,0.07,-0.10*
%
%ADD30ROUNDEDRECTD30*%
%ADD31R,2.19X1.90*%
%ADD32R,1.80X1.90*%
%ADD33R,0.40X1.35*%
%ADD38R,0.60X0.85*%
%ADD39O,0.60X0.85*%
%ADD40R,5.00X5.00*%
%ADD41R,0.90X2.00*%
%ADD42R,2.00X0.90*%
%ADD43O,0.90X2.00*%
%ADD44R,1.50X2.50*%
%ADD45R,0.35X2.80*%
%ADD46R,3.80X0.35*%
%ADD47R,0.95X0.45*%
%ADD48R,1.30X0.76*%
%ADD50C,0.25*%
%ADD97C,0.25*%
%ADD103R,1.10X0.70*%
%ADD104R,0.70X1.40*%
%ADD105R,1.20X1.45*%
%ADD106R,1.45X1.20*%
G36*
X425Y698D02*
X429Y665D01*
X359D01*
Y735D01*
X429D01*
X425Y698D01*
D02*
G37*
G36*
X4967Y428D02*
X4930Y432D01*
X4897Y428D01*
Y498D01*
X4967D01*
Y428D01*
D02*
G37*
G36*
X701Y698D02*
X705Y665D01*
X635D01*
Y735D01*
X705D01*
X701Y698D01*
D02*
G37*
G36*
X579Y665D02*
X509D01*
X513Y700D01*
X509Y735D01*
X579D01*
Y665D01*
D02*
G37*
G36*
X4840Y428D02*
X4803Y432D01*
X4770Y428D01*
Y498D01*
X4840D01*
Y428D01*
D02*
G37*
G36*
X5729Y425D02*
X5692Y429D01*
X5659Y425D01*
Y495D01*
X5729D01*
Y425D01*
D02*
G37*
G36*
X2427Y410D02*
X2391Y414D01*
X2358Y410D01*
Y480D01*
X2427D01*
Y410D01*
D02*
G37*
G36*
X4587Y428D02*
X4550Y432D01*
X4517Y428D01*
Y498D01*
X4587D01*
Y428D01*
D02*
G37*
G36*
X4460D02*
X4423Y432D01*
X4390Y428D01*
Y498D01*
X4460D01*
Y428D01*
D02*
G37*
G36*
X2860Y790D02*
X2790D01*
Y860D01*
X2827Y856D01*
X2860Y860D01*
Y790D01*
D02*
G37*
G36*
X3740Y755D02*
X3670D01*
Y825D01*
X3707Y821D01*
X3740Y825D01*
Y755D01*
D02*
G37*
G36*
Y905D02*
X3705Y909D01*
X3670Y905D01*
Y975D01*
X3740D01*
Y905D01*
D02*
G37*
G36*
X2998Y790D02*
X2927D01*
Y860D01*
X2962Y856D01*
X2998Y860D01*
Y790D01*
D02*
G37*
G36*
X2098Y797D02*
X2027D01*
X2032Y832D01*
X2027Y868D01*
X2098D01*
Y797D01*
D02*
G37*
G36*
X2518Y825D02*
X2523Y790D01*
X2452D01*
Y860D01*
X2523D01*
X2518Y825D01*
D02*
G37*
G36*
X855Y665D02*
X785D01*
X789Y700D01*
X785Y735D01*
X855D01*
Y665D01*
D02*
G37*
G36*
X1943Y831D02*
X1948Y797D01*
X1877D01*
Y868D01*
X1948D01*
X1943Y831D01*
D02*
G37*
G36*
X2673Y790D02*
X2603D01*
X2607Y827D01*
X2603Y860D01*
X2673D01*
Y790D01*
D02*
G37*
G36*
X1109Y173D02*
X1112Y138D01*
X1043D01*
Y208D01*
X1112D01*
X1109Y173D01*
D02*
G37*
G36*
X4710Y89D02*
X4675Y93D01*
X4640Y89D01*
Y159D01*
X4710D01*
Y89D01*
D02*
G37*
G36*
X956Y289D02*
X960Y254D01*
X890D01*
Y324D01*
X960D01*
X956Y289D01*
D02*
G37*
G36*
X1262Y138D02*
X1193D01*
X1197Y175D01*
X1193Y208D01*
X1262D01*
Y138D01*
D02*
G37*
G36*
X4586Y89D02*
X4551Y93D01*
X4516Y89D01*
Y159D01*
X4586D01*
Y89D01*
D02*
G37*
G36*
X4710Y-61D02*
X4640D01*
Y9D01*
X4677Y5D01*
X4710Y9D01*
Y-61D01*
D02*
G37*
G36*
X4586D02*
X4516D01*
Y9D01*
X4553Y5D01*
X4586Y9D01*
Y-61D01*
D02*
G37*
G36*
X1110Y15D02*
X1040D01*
X1044Y50D01*
X1040Y85D01*
X1110D01*
Y15D01*
D02*
G37*
G36*
X956Y48D02*
X960Y15D01*
X890D01*
Y85D01*
X960D01*
X956Y48D01*
D02*
G37*
G36*
X4840Y278D02*
X4770D01*
Y347D01*
X4805Y343D01*
X4840Y347D01*
Y278D01*
D02*
G37*
G36*
X4587D02*
X4517D01*
Y347D01*
X4552Y343D01*
X4587Y347D01*
Y278D01*
D02*
G37*
G36*
X4197Y380D02*
X4162Y384D01*
X4128Y380D01*
Y450D01*
X4197D01*
Y380D01*
D02*
G37*
G36*
X4967Y278D02*
X4897D01*
Y347D01*
X4932Y343D01*
X4967Y347D01*
Y278D01*
D02*
G37*
G36*
X4460D02*
X4390D01*
Y347D01*
X4425Y343D01*
X4460Y347D01*
Y278D01*
D02*
G37*
G36*
X4197Y230D02*
X4128D01*
Y300D01*
X4165Y296D01*
X4197Y300D01*
Y230D01*
D02*
G37*
G36*
X1110Y254D02*
X1040D01*
X1044Y291D01*
X1040Y324D01*
X1110D01*
Y254D01*
D02*
G37*
G36*
X5729Y275D02*
X5659D01*
Y345D01*
X5694Y341D01*
X5729Y345D01*
Y275D01*
D02*
G37*
G36*
X2427Y260D02*
X2358D01*
Y330D01*
X2392Y326D01*
X2427Y330D01*
Y260D01*
D02*
G37*
G36*
X4792Y2615D02*
X4722D01*
Y2685D01*
X4758Y2681D01*
X4792Y2685D01*
Y2615D01*
D02*
G37*
G36*
X2506Y2667D02*
X2471Y2671D01*
X2436Y2667D01*
Y2737D01*
X2506D01*
Y2667D01*
D02*
G37*
G36*
X5345Y2695D02*
X5275D01*
X5279Y2730D01*
X5275Y2765D01*
X5345D01*
Y2695D01*
D02*
G37*
G36*
X5191Y2728D02*
X5195Y2695D01*
X5125D01*
Y2765D01*
X5195D01*
X5191Y2728D01*
D02*
G37*
G36*
X2506Y2517D02*
X2436D01*
Y2587D01*
X2473Y2583D01*
X2506Y2587D01*
Y2517D01*
D02*
G37*
G36*
X326Y2430D02*
X256D01*
Y2500D01*
X293Y2496D01*
X326Y2500D01*
Y2430D01*
D02*
G37*
G36*
X198D02*
X128D01*
Y2500D01*
X165Y2496D01*
X198Y2500D01*
Y2430D01*
D02*
G37*
G36*
X326Y2580D02*
X291Y2584D01*
X256Y2580D01*
Y2650D01*
X326D01*
Y2580D01*
D02*
G37*
G36*
X198D02*
X163Y2584D01*
X128Y2580D01*
Y2650D01*
X198D01*
Y2580D01*
D02*
G37*
G36*
X5535Y3230D02*
X5465D01*
X5469Y3267D01*
X5465Y3300D01*
X5535D01*
Y3230D01*
D02*
G37*
G36*
X5381Y3265D02*
X5385Y3230D01*
X5315D01*
Y3300D01*
X5385D01*
X5381Y3265D01*
D02*
G37*
G36*
X4445Y3626D02*
X4375D01*
X4379Y3661D01*
X4375Y3696D01*
X4445D01*
Y3626D01*
D02*
G37*
G36*
X4291Y3659D02*
X4295Y3626D01*
X4225D01*
Y3696D01*
X4295D01*
X4291Y3659D01*
D02*
G37*
G36*
X4793Y3017D02*
X4758Y3021D01*
X4723Y3017D01*
Y3087D01*
X4793D01*
Y3017D01*
D02*
G37*
G36*
X5743Y2695D02*
X5673D01*
X5677Y2730D01*
X5673Y2765D01*
X5743D01*
Y2695D01*
D02*
G37*
G36*
X5589Y2728D02*
X5593Y2695D01*
X5523D01*
Y2765D01*
X5593D01*
X5589Y2728D01*
D02*
G37*
G36*
X4793Y2867D02*
X4723D01*
Y2937D01*
X4760Y2933D01*
X4793Y2937D01*
Y2867D01*
D02*
G37*
G36*
X4792Y2765D02*
X4756Y2769D01*
X4722Y2765D01*
Y2835D01*
X4792D01*
Y2765D01*
D02*
G37*
G36*
X3096Y1480D02*
X3100Y1445D01*
X3030D01*
Y1515D01*
X3100D01*
X3096Y1480D01*
D02*
G37*
G36*
X3608Y1265D02*
X3571Y1269D01*
X3538Y1265D01*
Y1336D01*
X3608D01*
Y1265D01*
D02*
G37*
G36*
X1194Y1746D02*
X1198Y1713D01*
X1128D01*
Y1783D01*
X1198D01*
X1194Y1746D01*
D02*
G37*
G36*
X3250Y1445D02*
X3180D01*
X3184Y1482D01*
X3180Y1515D01*
X3250D01*
Y1445D01*
D02*
G37*
G36*
X3608Y1115D02*
X3538D01*
Y1185D01*
X3573Y1181D01*
X3608Y1185D01*
Y1115D01*
D02*
G37*
G36*
X2098Y923D02*
X2027D01*
X2032Y957D01*
X2027Y993D01*
X2098D01*
Y923D01*
D02*
G37*
G36*
X1943Y956D02*
X1948Y923D01*
X1877D01*
Y993D01*
X1948D01*
X1943Y956D01*
D02*
G37*
G36*
X2998Y940D02*
X2960Y944D01*
X2927Y940D01*
Y1010D01*
X2998D01*
Y940D01*
D02*
G37*
G36*
X2860D02*
X2825Y944D01*
X2790Y940D01*
Y1010D01*
X2860D01*
Y940D01*
D02*
G37*
G36*
X3661Y2116D02*
X3624Y2120D01*
X3591Y2116D01*
Y2186D01*
X3661D01*
Y2116D01*
D02*
G37*
G36*
X1885Y2085D02*
X1848Y2089D01*
X1815Y2085D01*
Y2155D01*
X1885D01*
Y2085D01*
D02*
G37*
G36*
X2506Y2362D02*
X2469Y2367D01*
X2436Y2362D01*
Y2433D01*
X2506D01*
Y2362D01*
D02*
G37*
G36*
Y2212D02*
X2436D01*
Y2283D01*
X2471Y2278D01*
X2506Y2283D01*
Y2212D01*
D02*
G37*
G36*
X3661Y1966D02*
X3591D01*
Y2036D01*
X3626Y2032D01*
X3661Y2036D01*
Y1966D01*
D02*
G37*
G36*
X3236Y1795D02*
X3240Y1760D01*
X3170D01*
Y1830D01*
X3240D01*
X3236Y1795D01*
D02*
G37*
G36*
X1348Y1713D02*
X1278D01*
X1282Y1748D01*
X1278Y1783D01*
X1348D01*
Y1713D01*
D02*
G37*
G36*
X1885Y1935D02*
X1815D01*
Y2005D01*
X1850Y2001D01*
X1885Y2005D01*
Y1935D01*
D02*
G37*
G36*
X3390Y1760D02*
X3320D01*
X3324Y1797D01*
X3320Y1830D01*
X3390D01*
Y1760D01*
D02*
G37*
D10*
X2015Y358D02*
D03*
X2205Y453D02*
D03*
Y262D02*
D03*
X1457Y2043D02*
D03*
X1647Y2138D02*
D03*
Y1948D02*
D03*
D13*
X1107Y-320D02*
D03*
D14*
X935Y-155D02*
D03*
D15*
X1075Y-170D02*
D03*
X795D02*
D03*
D16*
X770Y-320D02*
D03*
D17*
X2169Y2415D02*
D03*
X1600D02*
D03*
D18*
X2329Y3715D02*
D03*
X1014Y3829D02*
D03*
D19*
X2250Y3445D02*
D03*
X2140D02*
D03*
X2030Y3464D02*
D03*
X1920Y3445D02*
D03*
X1810Y3464D02*
D03*
X1700Y3445D02*
D03*
X1590Y3404D02*
D03*
X1480Y3445D02*
D03*
D20*
X4590Y3176D02*
D03*
D21*
Y3051D02*
D03*
D22*
X4315Y3431D02*
D03*
Y2796D02*
D03*
D23*
X671Y2275D02*
D03*
X544D02*
D03*
X417D02*
D03*
X290D02*
D03*
X163D02*
D03*
X671Y925D02*
D03*
X544D02*
D03*
X417D02*
D03*
X290D02*
D03*
X163D02*
D03*
D24*
X771Y1325D02*
D03*
D25*
X2421Y1125D02*
D03*
D26*
Y1075D02*
D03*
Y1025D02*
D03*
Y975D02*
D03*
X2654D02*
D03*
Y1025D02*
D03*
Y1075D02*
D03*
Y1125D02*
D03*
D27*
X2488Y959D02*
D03*
X2538D02*
D03*
X2588D02*
D03*
Y1141D02*
D03*
X2538D02*
D03*
X2488D02*
D03*
D28*
X2895Y1126D02*
D03*
Y1276D02*
D03*
D29*
X2820Y1151D02*
D03*
Y1251D02*
D03*
X2970D02*
D03*
D30*
Y1151D02*
D03*
D31*
X4852Y3743D02*
D03*
X5591D02*
D03*
D32*
X5336D02*
D03*
X5106D02*
D03*
D33*
X5351Y3463D02*
D03*
X5286D02*
D03*
X5221D02*
D03*
X5156D02*
D03*
X5091D02*
D03*
D38*
X4884Y-315D02*
D03*
X5834D02*
D03*
X5719Y63D02*
D03*
X5479D02*
D03*
X5359D02*
D03*
X5239D02*
D03*
X5119D02*
D03*
X5599D02*
D03*
X1282Y1526D02*
D03*
X1402D02*
D03*
X1523D02*
D03*
X1642D02*
D03*
X1762D02*
D03*
X1877Y1149D02*
D03*
X1048D02*
D03*
D39*
X4999Y63D02*
D03*
X1162Y1526D02*
D03*
D40*
X5072Y1695D02*
D03*
D41*
X5822Y745D02*
D03*
X5695D02*
D03*
X5568D02*
D03*
X5441D02*
D03*
X5314D02*
D03*
X5187D02*
D03*
X5060D02*
D03*
X4933D02*
D03*
X4806D02*
D03*
X4679D02*
D03*
X4552D02*
D03*
X4425D02*
D03*
X4298D02*
D03*
X4171D02*
D03*
Y2445D02*
D03*
X4298D02*
D03*
X4425D02*
D03*
X4552D02*
D03*
X4679D02*
D03*
X4806D02*
D03*
X4933D02*
D03*
X5060D02*
D03*
X5187D02*
D03*
X5314D02*
D03*
X5441D02*
D03*
X5568D02*
D03*
X5695D02*
D03*
D42*
X4071Y1024D02*
D03*
Y1151D02*
D03*
Y1278D02*
D03*
Y1405D02*
D03*
Y1532D02*
D03*
Y1659D02*
D03*
Y1786D02*
D03*
Y1913D02*
D03*
Y2040D02*
D03*
Y2167D02*
D03*
D43*
X5822Y2445D02*
D03*
D44*
X4700Y3400D02*
D03*
D45*
X3283Y4550D02*
D03*
X2938D02*
D03*
D46*
X3111Y4672D02*
D03*
Y4427D02*
D03*
D47*
X3178Y4592D02*
D03*
X3043D02*
D03*
X3178Y4507D02*
D03*
X3043D02*
D03*
D48*
X3145Y2017D02*
D03*
X3355Y2112D02*
D03*
Y1923D02*
D03*
D50*
X6360Y0D02*
G03*
X6360Y0I-160J0D01*
G01*
Y3550D02*
G03*
X6360Y3550I-160J0D01*
G01*
X160D02*
G03*
X160Y3550I-160J0D01*
G01*
Y0D02*
G03*
X160Y0I-160J0D01*
G01*
X6600Y3550D02*
G03*
X6200Y3950I-400J0D01*
G01*
X0D02*
G03*
X-400Y3550I0J-400D01*
G01*
Y0D02*
G03*
X0Y-400I400J0D01*
G01*
X6200D02*
G03*
X6600Y0I0J400D01*
G01*
X5350Y3950D02*
X5600D01*
X3225D02*
X5350D01*
X5350D02*
X5350Y3950D01*
X2974Y4199D02*
X2975D01*
X2974Y4200D02*
X2974Y4199D01*
X2541Y4200D02*
X2974D01*
X2975Y3950D02*
Y4199D01*
X2975Y3950D02*
X2975Y3950D01*
X5600D02*
X6200D01*
X600Y3950D02*
X2975D01*
X0Y3950D02*
X600Y3950D01*
X6600Y0D02*
Y3550D01*
X-400Y0D02*
Y3550D01*
X0Y-400D02*
X6200D01*
X3225Y3950D02*
Y4200D01*
X2540Y4199D02*
Y5015D01*
X3660D01*
Y4200D02*
Y5015D01*
X3225Y4200D02*
X3660D01*
X2541Y4200D02*
X2541Y4200D01*
D97*
X1120Y838D02*
X1320D01*
X1220Y738D02*
Y938D01*
X-267Y3095D02*
X-68D01*
X-167Y2995D02*
Y3195D01*
X3550Y3510D02*
X3750D01*
X3650Y3410D02*
Y3610D01*
D103*
X3766Y2171D02*
D03*
Y1981D02*
D03*
D104*
X3383Y1330D02*
D03*
X3073D02*
D03*
D105*
X4933Y3052D02*
D03*
Y2747D02*
D03*
D106*
X5350Y3085D02*
D03*
X5655D02*
D03*
M02*
