G04 Layer_Physical_Order=5*
G04 Layer_Color=128*
%FSLAX42Y42*%
%MOMM*%
G71*
G01*
G75*
%ADD50C,0.25*%
%ADD57C,1.02*%
G04:AMPARAMS|DCode=58|XSize=2.524mm|YSize=2.524mm|CornerRadius=0mm|HoleSize=0mm|Usage=FLASHONLY|Rotation=0.000|XOffset=0mm|YOffset=0mm|HoleType=Round|Shape=Relief|Width=0.25mm|Gap=0.25mm|Entries=4|*
%AMTHD58*
7,0,0,2.52,2.02,0.25,45*
%
%ADD58THD58*%
%ADD59C,1.62*%
%ADD60C,2.02*%
%ADD61C,4.22*%
%ADD62O,1.84X2.52*%
%ADD63O,1.67X1.87*%
%ADD64C,1.82*%
G04:AMPARAMS|DCode=65|XSize=2.324mm|YSize=2.324mm|CornerRadius=0mm|HoleSize=0mm|Usage=FLASHONLY|Rotation=0.000|XOffset=0mm|YOffset=0mm|HoleType=Round|Shape=Relief|Width=0.25mm|Gap=0.25mm|Entries=4|*
%AMTHD65*
7,0,0,2.32,1.82,0.25,45*
%
%ADD65THD65*%
%ADD66C,1.32*%
G04:AMPARAMS|DCode=67|XSize=1.824mm|YSize=1.824mm|CornerRadius=0mm|HoleSize=0mm|Usage=FLASHONLY|Rotation=0.000|XOffset=0mm|YOffset=0mm|HoleType=Round|Shape=Relief|Width=0.25mm|Gap=0.25mm|Entries=4|*
%AMTHD67*
7,0,0,1.82,1.32,0.25,45*
%
%ADD67THD67*%
G36*
X600Y4200D02*
X850D01*
Y3950D01*
X850Y3950D01*
X600D01*
Y4200D01*
X600Y4200D01*
D02*
G37*
G36*
X108Y323D02*
X-400Y322D01*
X-400Y2870D01*
X108Y2870D01*
X108Y323D01*
D02*
G37*
G36*
X6600Y-400D02*
X5870D01*
Y3950D01*
X6600D01*
Y-400D01*
D02*
G37*
G36*
X2975Y5139D02*
X3225D01*
Y4889D01*
X3225Y4890D01*
X2975D01*
Y5139D01*
X2975Y5139D01*
D02*
G37*
G36*
X5350Y4200D02*
X5600D01*
Y3950D01*
X5600Y3950D01*
X5350D01*
Y4200D01*
X5350Y4200D01*
D02*
G37*
G36*
X2975Y4200D02*
X3225D01*
Y3950D01*
X3225Y3950D01*
X2975D01*
Y4200D01*
X2975Y4200D01*
D02*
G37*
D50*
X4722Y2862D02*
X4730Y2870D01*
X5870D01*
X4722Y2123D02*
Y2867D01*
X3350Y2123D02*
X4722D01*
X4025Y-260D02*
X4735D01*
X5088D01*
X5867Y2868D02*
X5870Y2870D01*
X5867Y2442D02*
Y2868D01*
X5088Y2442D02*
X5867D01*
X5088Y-260D02*
Y2442D01*
X4025Y-260D02*
Y1285D01*
X3350D02*
X4025D01*
X3350D02*
Y1867D01*
Y2123D01*
X6360Y0D02*
G03*
X6360Y0I-160J0D01*
G01*
Y3550D02*
G03*
X6360Y3550I-160J0D01*
G01*
X160D02*
G03*
X160Y3550I-160J0D01*
G01*
Y0D02*
G03*
X160Y0I-160J0D01*
G01*
X6600Y3550D02*
G03*
X6200Y3950I-400J0D01*
G01*
X0D02*
G03*
X-400Y3550I0J-400D01*
G01*
Y0D02*
G03*
X0Y-400I400J0D01*
G01*
X6200D02*
G03*
X6600Y0I0J400D01*
G01*
X5350Y3950D02*
X5600D01*
X3225D02*
X5350D01*
X5350D02*
X5350Y3950D01*
X2974Y4199D02*
X2975D01*
X2974Y4200D02*
X2974Y4199D01*
X2541Y4200D02*
X2974D01*
X2975Y3950D02*
Y4199D01*
X2975Y3950D02*
X2975Y3950D01*
X5600D02*
X6200D01*
X600Y3950D02*
X2975D01*
X0Y3950D02*
X600Y3950D01*
X6600Y0D02*
Y3550D01*
X-400Y0D02*
Y3550D01*
X0Y-400D02*
X6200D01*
X3225Y3950D02*
Y4200D01*
X2540Y4199D02*
Y5015D01*
X3660D01*
Y4200D02*
Y5015D01*
X3225Y4200D02*
X3660D01*
X2541Y4200D02*
X2541Y4200D01*
D57*
X0Y3950D02*
G03*
X-400Y3550I0J-400D01*
G01*
X6600D02*
G03*
X6200Y3950I-400J0D01*
G01*
Y-400D02*
G03*
X6600Y0I0J400D01*
G01*
X-400D02*
G03*
X0Y-400I400J0D01*
G01*
X-400Y3550D02*
X-400D01*
X2975Y3950D02*
Y4199D01*
X2974Y4200D02*
X2975Y4199D01*
X2540Y4199D02*
X2541Y4200D01*
X2540Y4199D02*
Y5015D01*
X6200Y3950D02*
Y3950D01*
X6600Y3550D02*
X6600D01*
X6600Y0D02*
X6600D01*
X0Y-400D02*
X6200D01*
X3660Y4200D02*
Y5015D01*
X2540D02*
X3660D01*
X2541Y4200D02*
X2974D01*
X600Y3950D02*
X2975D01*
X0Y3950D02*
X600Y3950D01*
X3225Y3950D02*
X6200D01*
X3225Y4200D02*
X3660D01*
X6600Y0D02*
Y3550D01*
X3225Y3950D02*
Y4200D01*
X-400Y3550D02*
X-400Y0D01*
D58*
X435Y3712D02*
D03*
D59*
X750Y-305D02*
D03*
X1120D02*
D03*
X1649Y-140D02*
D03*
X1839D02*
D03*
D60*
X5692Y3320D02*
D03*
X145Y3190D02*
D03*
X3370Y3133D02*
D03*
X3830Y3061D02*
D03*
D61*
X6200Y0D02*
D03*
X6200Y3550D02*
D03*
X0Y3550D02*
D03*
Y0D02*
D03*
D62*
X5639Y3743D02*
D03*
X4804D02*
D03*
D63*
X5444Y3438D02*
D03*
X4999D02*
D03*
D64*
X2662Y3584D02*
D03*
X2862D02*
D03*
X3062D02*
D03*
X3199Y4852D02*
D03*
X2999D02*
D03*
X2799D02*
D03*
D65*
X3262Y3584D02*
D03*
X3399Y4852D02*
D03*
D66*
X2167Y1593D02*
D03*
X3354Y2960D02*
D03*
X2817Y228D02*
D03*
X5535Y568D02*
D03*
X2780Y1363D02*
D03*
X4225Y1362D02*
D03*
X3824Y794D02*
D03*
X3900Y725D02*
D03*
X4450Y55D02*
D03*
X5510Y1729D02*
D03*
X1737Y678D02*
D03*
X1626Y671D02*
D03*
X5205Y3085D02*
D03*
X5183Y2975D02*
D03*
X4283Y242D02*
D03*
X3278Y2317D02*
D03*
X2430Y3405D02*
D03*
X3583Y-220D02*
D03*
X5645Y1814D02*
D03*
X2748Y-129D02*
D03*
X2883D02*
D03*
X586Y1814D02*
D03*
X3442Y778D02*
D03*
X2685Y447D02*
D03*
X1635D02*
D03*
X4260Y-250D02*
D03*
X4116Y-245D02*
D03*
X2575Y2177D02*
D03*
X255Y-242D02*
D03*
X2473Y2103D02*
D03*
X2248Y2167D02*
D03*
X1532Y1148D02*
D03*
X2070Y2138D02*
D03*
X850Y3830D02*
D03*
X1565Y2837D02*
D03*
X476Y2872D02*
D03*
X923Y185D02*
D03*
X1733Y1007D02*
D03*
X1282Y1633D02*
D03*
X2811Y4588D02*
D03*
X3043Y4592D02*
D03*
X3178Y4507D02*
D03*
Y4592D02*
D03*
X4883Y2208D02*
D03*
X4610Y1760D02*
D03*
X4595Y2244D02*
D03*
X3855Y2570D02*
D03*
X3780Y2480D02*
D03*
X3773Y2268D02*
D03*
X3765Y1877D02*
D03*
X3125Y2220D02*
D03*
X4072Y3662D02*
D03*
X4447Y3177D02*
D03*
X3445Y2308D02*
D03*
X3135Y2690D02*
D03*
X3375Y2220D02*
D03*
X2167Y3140D02*
D03*
X3610Y1692D02*
D03*
X3523Y-163D02*
D03*
X3635Y-100D02*
D03*
X1453Y838D02*
D03*
X3508Y1620D02*
D03*
X2845Y1745D02*
D03*
X405Y3252D02*
D03*
X658Y2618D02*
D03*
X4306Y1301D02*
D03*
X4682Y1719D02*
D03*
X2854Y1993D02*
D03*
X3507Y2467D02*
D03*
X3578Y1545D02*
D03*
X5719Y-79D02*
D03*
X4932Y199D02*
D03*
X5048Y192D02*
D03*
X4805Y200D02*
D03*
X2434Y1574D02*
D03*
X4552Y216D02*
D03*
X2881Y2917D02*
D03*
X3356Y426D02*
D03*
X3450Y342D02*
D03*
X2599Y2504D02*
D03*
X4311Y2636D02*
D03*
X3065Y1720D02*
D03*
X3439Y1546D02*
D03*
X1517Y1032D02*
D03*
X1777Y841D02*
D03*
X3369Y1479D02*
D03*
X3343Y921D02*
D03*
X3411Y1200D02*
D03*
X3239Y1161D02*
D03*
X5766Y2055D02*
D03*
X3079Y2806D02*
D03*
X262Y3399D02*
D03*
X4830Y3533D02*
D03*
X2733Y835D02*
D03*
X4298Y984D02*
D03*
X2310Y2010D02*
D03*
X2630Y645D02*
D03*
X2392Y1352D02*
D03*
X2659Y1385D02*
D03*
X2552Y1227D02*
D03*
X2497Y1349D02*
D03*
X3900Y1877D02*
D03*
X3165Y993D02*
D03*
X2890Y1207D02*
D03*
X3692Y1084D02*
D03*
X3728Y643D02*
D03*
X3578Y1060D02*
D03*
X3580Y858D02*
D03*
X3280Y840D02*
D03*
X4065Y303D02*
D03*
X3565Y488D02*
D03*
X3644Y530D02*
D03*
X3933Y358D02*
D03*
X3948Y210D02*
D03*
X2640Y208D02*
D03*
X3100Y805D02*
D03*
X5510Y1814D02*
D03*
X2465Y3030D02*
D03*
X1700Y3175D02*
D03*
X1590Y3173D02*
D03*
X2250Y3160D02*
D03*
X451Y1729D02*
D03*
X735Y2439D02*
D03*
X704Y2526D02*
D03*
X3805Y1018D02*
D03*
X3612Y985D02*
D03*
X4463Y-235D02*
D03*
X3972Y3278D02*
D03*
X3522Y1923D02*
D03*
X3450Y1720D02*
D03*
X3628Y3090D02*
D03*
X285Y2023D02*
D03*
X163Y2030D02*
D03*
X5275Y-312D02*
D03*
X5197Y-123D02*
D03*
X5372Y-120D02*
D03*
X5658Y1060D02*
D03*
X451Y1814D02*
D03*
X5442Y1530D02*
D03*
X2561Y-214D02*
D03*
X3179Y624D02*
D03*
X3080Y638D02*
D03*
X3150Y490D02*
D03*
X3053Y465D02*
D03*
X3055Y305D02*
D03*
X2328Y658D02*
D03*
X2241Y895D02*
D03*
X2319Y860D02*
D03*
X1457Y1810D02*
D03*
X1850Y1840D02*
D03*
X2015Y195D02*
D03*
X1350Y1850D02*
D03*
X5030Y3055D02*
D03*
X5730Y158D02*
D03*
X5828Y948D02*
D03*
X4880Y2002D02*
D03*
X5117Y-25D02*
D03*
X3380Y-308D02*
D03*
X2748Y-214D02*
D03*
X3497Y-5D02*
D03*
X3588Y-18D02*
D03*
X4565Y1040D02*
D03*
X4630Y1190D02*
D03*
D67*
X5310Y2640D02*
D03*
X5645Y1729D02*
D03*
X488Y3570D02*
D03*
X3152Y3160D02*
D03*
X4167Y177D02*
D03*
X470Y-13D02*
D03*
X430Y585D02*
D03*
X4925Y3D02*
D03*
X5792Y2730D02*
D03*
X3510Y2002D02*
D03*
X4471Y-26D02*
D03*
X565Y1360D02*
D03*
X2883Y-214D02*
D03*
X1260Y580D02*
D03*
X835Y333D02*
D03*
X3033Y975D02*
D03*
X3065Y1585D02*
D03*
X2383Y2398D02*
D03*
X1162Y1845D02*
D03*
X290Y2712D02*
D03*
X162Y2708D02*
D03*
X1248Y3515D02*
D03*
X1160Y3115D02*
D03*
Y2837D02*
D03*
Y2965D02*
D03*
X1810Y3592D02*
D03*
X2042Y1223D02*
D03*
X562Y-278D02*
D03*
X2872Y4343D02*
D03*
X3537Y4641D02*
D03*
X2721Y4648D02*
D03*
X3043Y4507D02*
D03*
X4597Y2642D02*
D03*
X4005Y2295D02*
D03*
X2312Y1420D02*
D03*
X3795Y1150D02*
D03*
X586Y1729D02*
D03*
X625Y2015D02*
D03*
X2490Y203D02*
D03*
X2405Y855D02*
D03*
X5265Y2198D02*
D03*
X3090Y-180D02*
D03*
X5625Y-73D02*
D03*
M02*
