G04 Layer_Color=65535*
%FSLAX42Y42*%
%MOMM*%
G71*
G01*
G75*
%ADD49C,0.20*%
%ADD50C,0.25*%
%ADD97C,0.25*%
%ADD98C,0.32*%
%ADD99C,0.10*%
%ADD100C,0.13*%
%ADD101C,0.18*%
%ADD102C,0.15*%
D49*
X5812Y3320D02*
G03*
X5812Y3320I-120J0D01*
G01*
X265Y3190D02*
G03*
X265Y3190I-120J0D01*
G01*
X3490Y3133D02*
G03*
X3490Y3133I-120J0D01*
G01*
X4703Y3180D02*
G03*
X4703Y3180I-5J0D01*
G01*
X2355Y1135D02*
G03*
X2355Y1135I-10J0D01*
G01*
X3950Y3061D02*
G03*
X3950Y3061I-120J0D01*
G01*
X5002Y161D02*
G03*
X5002Y161I-5J0D01*
G01*
X3274Y3749D02*
G03*
X3274Y3749I-8J0D01*
G01*
X1166Y1625D02*
G03*
X1166Y1625I-5J0D01*
G01*
X555Y3712D02*
G03*
X555Y3712I-120J0D01*
G01*
X2040Y428D02*
Y507D01*
X2090D01*
X2040Y208D02*
Y288D01*
Y208D02*
X2090D01*
X1482Y2113D02*
Y2193D01*
X1532D01*
X1482Y1893D02*
Y1973D01*
Y1893D02*
X1532D01*
X4117Y3431D02*
X4137Y3431D01*
X4117Y2786D02*
X4137Y2786D01*
X4117Y3431D02*
X4117Y2786D01*
X4493Y3476D02*
X4570D01*
Y3247D02*
Y3476D01*
Y2751D02*
Y2980D01*
X4493Y2751D02*
X4570D01*
X-391Y2288D02*
X84D01*
X-386Y910D02*
X82D01*
X-391Y915D02*
Y2288D01*
Y915D02*
X-386Y910D01*
X792Y1400D02*
Y1977D01*
Y2020D01*
X744Y2288D02*
X792D01*
Y2020D02*
Y2250D01*
Y2288D01*
Y910D02*
Y1248D01*
X791Y910D02*
X792Y910D01*
X747D02*
X791Y910D01*
X4829Y-390D02*
Y98D01*
Y-390D02*
X5889D01*
Y130D01*
X4861D02*
X5889D01*
X4829Y98D02*
X4861Y130D01*
X5919Y2498D02*
X6589Y2498D01*
X5919Y683D02*
X6589Y683D01*
Y1164D01*
Y2016D02*
Y2498D01*
X4006Y2508D02*
X4096D01*
X4006Y2250D02*
Y2508D01*
X6589Y1164D02*
Y2016D01*
X4006Y680D02*
Y940D01*
Y680D02*
X4096D01*
X993Y1561D02*
X1025Y1594D01*
X1933D01*
Y1074D02*
Y1594D01*
X993Y1074D02*
X1933D01*
X993D02*
Y1561D01*
X6500Y3435D02*
X6400D01*
Y3385D01*
X6417Y3368D01*
X6433D01*
X6450Y3385D01*
Y3435D01*
Y3385D01*
X6467Y3368D01*
X6483D01*
X6500Y3385D01*
Y3435D01*
X6467Y3318D02*
Y3285D01*
X6450Y3268D01*
X6400D01*
Y3318D01*
X6417Y3335D01*
X6433Y3318D01*
Y3268D01*
X6500Y3235D02*
X6400D01*
Y3185D01*
X6417Y3168D01*
X6433D01*
X6450D01*
X6467Y3185D01*
Y3235D01*
Y3135D02*
X6417D01*
X6400Y3118D01*
Y3068D01*
X6383D01*
X6367Y3085D01*
Y3102D01*
X6400Y3068D02*
X6467D01*
X6483Y2968D02*
X6500Y2985D01*
Y3018D01*
X6483Y3035D01*
X6417D01*
X6400Y3018D01*
Y2985D01*
X6417Y2968D01*
X6400Y2935D02*
Y2902D01*
Y2918D01*
X6500D01*
Y2935D01*
X6400Y2835D02*
Y2802D01*
X6417Y2785D01*
X6450D01*
X6467Y2802D01*
Y2835D01*
X6450Y2852D01*
X6417D01*
X6400Y2835D01*
X6467Y2752D02*
X6417D01*
X6400Y2735D01*
Y2685D01*
X6467D01*
X6500Y2585D02*
X6400D01*
Y2635D01*
X6417Y2652D01*
X6450D01*
X6467Y2635D01*
Y2585D01*
X6340Y2918D02*
X6273D01*
X6240Y2885D01*
X6273Y2852D01*
X6340D01*
X6240Y2819D02*
Y2785D01*
Y2802D01*
X6340D01*
X6323Y2819D01*
X6240Y2735D02*
X6257D01*
Y2719D01*
X6240D01*
Y2735D01*
Y2585D02*
Y2652D01*
X6307Y2585D01*
X6323D01*
X6340Y2602D01*
Y2635D01*
X6323Y2652D01*
D50*
X2069Y-60D02*
G03*
X2069Y-60I-325J0D01*
G01*
X159Y785D02*
G03*
X159Y785I-10J0D01*
G01*
X3040Y4343D02*
G03*
X3040Y4343I-5J0D01*
G01*
X2758Y1334D02*
X3034D01*
X2758Y1066D02*
Y1334D01*
X2759Y1065D02*
X2967D01*
X3034Y1132D01*
Y1334D01*
X3324Y4386D02*
Y4713D01*
X2897D02*
X3324D01*
X2897Y4386D02*
X3324D01*
X2897D02*
Y4713D01*
X6360Y0D02*
G03*
X6360Y0I-160J0D01*
G01*
Y3550D02*
G03*
X6360Y3550I-160J0D01*
G01*
X160D02*
G03*
X160Y3550I-160J0D01*
G01*
Y0D02*
G03*
X160Y0I-160J0D01*
G01*
X6600Y3550D02*
G03*
X6200Y3950I-400J0D01*
G01*
X0D02*
G03*
X-400Y3550I0J-400D01*
G01*
Y0D02*
G03*
X0Y-400I400J0D01*
G01*
X6200D02*
G03*
X6600Y0I0J400D01*
G01*
X5350Y3950D02*
X5600D01*
X3225D02*
X5350D01*
X5350D02*
X5350Y3950D01*
X2974Y4199D02*
X2975D01*
X2974Y4200D02*
X2974Y4199D01*
X2541Y4200D02*
X2974D01*
X2975Y3950D02*
Y4199D01*
X2975Y3950D02*
X2975Y3950D01*
X5600D02*
X6200D01*
X600Y3950D02*
X2975D01*
X0Y3950D02*
X600Y3950D01*
X6600Y0D02*
Y3550D01*
X-400Y0D02*
Y3550D01*
X0Y-400D02*
X6200D01*
X3225Y3950D02*
Y4200D01*
X2540Y4199D02*
Y5015D01*
X3660D01*
Y4200D02*
Y5015D01*
X3225Y4200D02*
X3660D01*
X2541Y4200D02*
X2541Y4200D01*
D97*
X2242Y188D02*
G03*
X2242Y188I-12J0D01*
G01*
X1685Y1873D02*
G03*
X1685Y1873I-12J0D01*
G01*
X3353Y1833D02*
G03*
X3353Y1833I-10J0D01*
G01*
D98*
X1491Y3572D02*
G03*
X1491Y3572I-15J0D01*
G01*
D99*
X1810Y2025D02*
Y2065D01*
X1890Y2025D02*
Y2065D01*
X2352Y350D02*
Y390D01*
X2433Y350D02*
Y390D01*
X1967Y873D02*
X2008D01*
X1967Y793D02*
X2008D01*
X1967Y998D02*
X2008D01*
X1967Y918D02*
X2008D01*
X3613Y1206D02*
Y1245D01*
X3533Y1206D02*
Y1245D01*
X1132Y212D02*
X1173D01*
X1132Y133D02*
X1173D01*
X4315Y3621D02*
X4355D01*
X4315Y3701D02*
X4355D01*
X2673Y919D02*
X2693D01*
X2693Y939D01*
X2693Y1163D02*
Y1183D01*
X2673Y1183D02*
X2693Y1183D01*
X2380Y919D02*
Y939D01*
Y919D02*
X2400Y919D01*
X2380Y1163D02*
X2380Y1183D01*
X2400D01*
X4717Y2705D02*
Y2745D01*
X4797Y2705D02*
Y2745D01*
X5215Y2690D02*
X5255D01*
X5215Y2770D02*
X5255D01*
X5654Y365D02*
Y405D01*
X5734Y365D02*
Y405D01*
X4715Y29D02*
Y69D01*
X4635Y29D02*
Y69D01*
X4591Y29D02*
Y69D01*
X4511Y29D02*
Y69D01*
X4892Y367D02*
Y407D01*
X4972Y367D02*
Y407D01*
X4765Y367D02*
Y407D01*
X4845Y367D02*
Y407D01*
X4512Y367D02*
Y407D01*
X4592Y367D02*
Y407D01*
X4385Y367D02*
Y407D01*
X4465Y367D02*
Y407D01*
X3260Y1835D02*
X3300D01*
X3260Y1755D02*
X3300D01*
X5613Y2690D02*
X5653D01*
X5613Y2770D02*
X5653D01*
X4203Y320D02*
Y360D01*
X4122Y320D02*
Y360D01*
X449Y660D02*
X489D01*
X449Y740D02*
X489D01*
X203Y2520D02*
Y2560D01*
X123Y2520D02*
Y2560D01*
X2431Y2302D02*
Y2342D01*
X2511Y2302D02*
Y2342D01*
X2511Y2607D02*
Y2647D01*
X2431Y2607D02*
Y2647D01*
X980Y10D02*
X1020D01*
X980Y90D02*
X1020D01*
X4851Y3446D02*
X4931D01*
X5516D02*
X5591D01*
X4851Y3858D02*
Y3946D01*
X5591Y3858D02*
Y3946D01*
X4971Y4006D02*
X5471D01*
Y3946D02*
X5588D01*
X5471D02*
Y4006D01*
X4971Y3946D02*
Y4006D01*
X4851Y3946D02*
X5591D01*
X4851Y3446D02*
Y3628D01*
X5591Y3446D02*
Y3630D01*
X5591Y3946D02*
X5592D01*
X5651Y4005D01*
X4851Y3946D02*
X4851D01*
X4791Y4005D02*
X4851Y3946D01*
X3586Y2056D02*
Y2096D01*
X3666Y2056D02*
Y2096D01*
X3829Y2046D02*
Y2106D01*
X3703Y2046D02*
Y2106D01*
X725Y660D02*
X765D01*
X725Y740D02*
X765D01*
X1218Y1708D02*
X1258D01*
X1218Y1788D02*
X1258D01*
X980Y329D02*
X1020D01*
X980Y249D02*
X1020D01*
X2865Y880D02*
Y920D01*
X2785Y880D02*
Y920D01*
X2542Y865D02*
X2583D01*
X2542Y785D02*
X2583D01*
X2923Y880D02*
Y920D01*
X3002Y880D02*
Y920D01*
X3148Y1250D02*
X3308D01*
X3148Y1410D02*
X3308D01*
X3120Y1520D02*
X3160D01*
X3120Y1440D02*
X3160D01*
X4798Y2957D02*
Y2997D01*
X4718Y2957D02*
Y2997D01*
X4853Y2919D02*
X5012D01*
X4853Y2943D02*
X5013D01*
X4853Y2849D02*
Y2943D01*
X5013Y2849D02*
Y2943D01*
X5406Y3305D02*
X5446D01*
X5406Y3225D02*
X5446D01*
X5483Y3005D02*
Y3165D01*
X5459Y3005D02*
Y3165D01*
Y3005D02*
X5553D01*
X5459Y3165D02*
X5553D01*
X3665Y845D02*
Y885D01*
X3745Y845D02*
Y885D01*
X331Y2520D02*
Y2560D01*
X251Y2520D02*
Y2560D01*
D100*
X740Y-246D02*
Y-165D01*
X845Y-370D02*
X1025D01*
X740Y-165D02*
X744D01*
X1131Y-246D02*
Y-165D01*
X1127D02*
X1131D01*
X1101Y3880D02*
X2374D01*
X974Y2360D02*
Y3722D01*
X2376Y2362D02*
Y3602D01*
X2374Y3829D02*
Y3880D01*
X974Y2360D02*
X1489D01*
X1709Y2357D02*
X2061D01*
X2279D02*
X2371D01*
D101*
X2487Y3309D02*
X3441D01*
X2487D02*
Y3709D01*
X3441D01*
Y3309D02*
Y3709D01*
D102*
X3155Y1873D02*
X3155Y1952D01*
X3155Y2085D02*
Y2162D01*
Y1873D02*
X3260D01*
X3155Y2162D02*
X3262D01*
X3315Y1988D02*
Y2048D01*
X1655Y912D02*
Y992D01*
X1695D01*
X1708Y979D01*
Y952D01*
X1695Y939D01*
X1655D01*
X1682D02*
X1708Y912D01*
X1788Y992D02*
X1762Y979D01*
X1735Y952D01*
Y926D01*
X1748Y912D01*
X1775D01*
X1788Y926D01*
Y939D01*
X1775Y952D01*
X1735D01*
X1815Y912D02*
X1842D01*
X1828D01*
Y992D01*
X1815Y979D01*
X1625Y788D02*
Y867D01*
X1665D01*
X1678Y854D01*
Y827D01*
X1665Y814D01*
X1625D01*
X1652D02*
X1678Y788D01*
X1758Y867D02*
X1732Y854D01*
X1705Y827D01*
Y801D01*
X1718Y788D01*
X1745D01*
X1758Y801D01*
Y814D01*
X1745Y827D01*
X1705D01*
X1785Y854D02*
X1798Y867D01*
X1825D01*
X1838Y854D01*
Y801D01*
X1825Y788D01*
X1798D01*
X1785Y801D01*
Y854D01*
X863Y2447D02*
X837D01*
X850D01*
Y2381D01*
X837Y2367D01*
X823D01*
X810Y2381D01*
X943Y2367D02*
X890D01*
X943Y2421D01*
Y2434D01*
X930Y2447D01*
X903D01*
X890Y2434D01*
X-127Y3360D02*
X-74D01*
X-101D01*
Y3280D01*
X6D02*
X-48D01*
X6Y3333D01*
Y3347D01*
X-8Y3360D01*
X-34D01*
X-48Y3347D01*
X150Y3752D02*
X203D01*
X177D01*
Y3672D01*
X230Y3739D02*
X243Y3752D01*
X270D01*
X283Y3739D01*
Y3726D01*
X270Y3712D01*
X257D01*
X270D01*
X283Y3699D01*
Y3686D01*
X270Y3672D01*
X243D01*
X230Y3686D01*
X5628Y3575D02*
X5681D01*
X5654D01*
Y3495D01*
X5761Y3575D02*
X5707D01*
Y3535D01*
X5734Y3548D01*
X5747D01*
X5761Y3535D01*
Y3508D01*
X5747Y3495D01*
X5721D01*
X5707Y3508D01*
X3025Y3115D02*
X3078D01*
X3052D01*
Y3035D01*
X3105D02*
X3132D01*
X3118D01*
Y3115D01*
X3105Y3102D01*
X3172Y3035D02*
X3198D01*
X3185D01*
Y3115D01*
X3172Y3102D01*
X2529Y3736D02*
Y3816D01*
X2569D01*
X2582Y3803D01*
Y3776D01*
X2569Y3763D01*
X2529D01*
X2649Y3736D02*
Y3816D01*
X2609Y3776D01*
X2662D01*
X3992Y3493D02*
Y3573D01*
X4032D01*
X4045Y3559D01*
Y3533D01*
X4032Y3519D01*
X3992D01*
X4072Y3493D02*
X4099D01*
X4085D01*
Y3573D01*
X4072Y3559D01*
X1226Y-171D02*
X1212Y-158D01*
X1186D01*
X1173Y-171D01*
Y-184D01*
X1186Y-198D01*
X1212D01*
X1226Y-211D01*
Y-224D01*
X1212Y-238D01*
X1186D01*
X1173Y-224D01*
X1252Y-238D02*
X1279D01*
X1266D01*
Y-158D01*
X1252Y-171D01*
X1598Y303D02*
Y382D01*
X1624Y356D01*
X1651Y382D01*
Y303D01*
X1677D02*
X1704D01*
X1691D01*
Y382D01*
X1677Y369D01*
X-345Y855D02*
Y788D01*
X-332Y775D01*
X-305D01*
X-292Y788D01*
Y855D01*
X-265Y775D02*
X-238D01*
X-252D01*
Y855D01*
X-265Y842D01*
X-158Y775D02*
Y855D01*
X-198Y815D01*
X-145D01*
X2208Y1050D02*
Y983D01*
X2221Y970D01*
X2247D01*
X2261Y983D01*
Y1050D01*
X2341D02*
X2287D01*
Y1010D01*
X2314Y1023D01*
X2327D01*
X2341Y1010D01*
Y983D01*
X2327Y970D01*
X2301D01*
X2287Y983D01*
X3065Y1135D02*
Y1068D01*
X3078Y1055D01*
X3105D01*
X3118Y1068D01*
Y1135D01*
X3185Y1055D02*
Y1135D01*
X3145Y1095D01*
X3198D01*
X3671Y3326D02*
X3725D01*
X3698D01*
Y3246D01*
X3751D02*
X3778D01*
X3765D01*
Y3326D01*
X3751Y3313D01*
X4688Y2625D02*
X4608D01*
Y2665D01*
X4621Y2678D01*
X4648D01*
X4661Y2665D01*
Y2625D01*
Y2652D02*
X4688Y2678D01*
X4621Y2705D02*
X4608Y2718D01*
Y2745D01*
X4621Y2758D01*
X4634D01*
X4648Y2745D01*
X4661Y2758D01*
X4674D01*
X4688Y2745D01*
Y2718D01*
X4674Y2705D01*
X4661D01*
X4648Y2718D01*
X4634Y2705D01*
X4621D01*
X4648Y2718D02*
Y2745D01*
X4608Y2838D02*
Y2785D01*
X4648D01*
X4634Y2812D01*
Y2825D01*
X4648Y2838D01*
X4674D01*
X4688Y2825D01*
Y2798D01*
X4674Y2785D01*
X5136Y2814D02*
Y2894D01*
X5176D01*
X5190Y2880D01*
Y2854D01*
X5176Y2840D01*
X5136D01*
X5163D02*
X5190Y2814D01*
X5216Y2880D02*
X5230Y2894D01*
X5256D01*
X5270Y2880D01*
Y2867D01*
X5256Y2854D01*
X5270Y2840D01*
Y2827D01*
X5256Y2814D01*
X5230D01*
X5216Y2827D01*
Y2840D01*
X5230Y2854D01*
X5216Y2867D01*
Y2880D01*
X5230Y2854D02*
X5256D01*
X5336Y2814D02*
Y2894D01*
X5296Y2854D01*
X5350D01*
X5620Y267D02*
X5540D01*
Y307D01*
X5553Y321D01*
X5580D01*
X5593Y307D01*
Y267D01*
Y294D02*
X5620Y321D01*
X5553Y347D02*
X5540Y361D01*
Y387D01*
X5553Y401D01*
X5567D01*
X5580Y387D01*
X5593Y401D01*
X5607D01*
X5620Y387D01*
Y361D01*
X5607Y347D01*
X5593D01*
X5580Y361D01*
X5567Y347D01*
X5553D01*
X5580Y361D02*
Y387D01*
X5553Y427D02*
X5540Y441D01*
Y467D01*
X5553Y481D01*
X5567D01*
X5580Y467D01*
Y454D01*
Y467D01*
X5593Y481D01*
X5607D01*
X5620Y467D01*
Y441D01*
X5607Y427D01*
X4731Y159D02*
X4811D01*
Y119D01*
X4798Y106D01*
X4771D01*
X4758Y119D01*
Y159D01*
Y133D02*
X4731Y106D01*
X4798Y80D02*
X4811Y66D01*
Y40D01*
X4798Y26D01*
X4785D01*
X4771Y40D01*
X4758Y26D01*
X4745D01*
X4731Y40D01*
Y66D01*
X4745Y80D01*
X4758D01*
X4771Y66D01*
X4785Y80D01*
X4798D01*
X4771Y66D02*
Y40D01*
X4731Y-54D02*
Y-0D01*
X4785Y-54D01*
X4798D01*
X4811Y-40D01*
Y-14D01*
X4798Y-0D01*
X4520Y-85D02*
X4600D01*
Y-125D01*
X4587Y-138D01*
X4560D01*
X4547Y-125D01*
Y-85D01*
Y-112D02*
X4520Y-138D01*
X4587Y-165D02*
X4600Y-178D01*
Y-205D01*
X4587Y-218D01*
X4573D01*
X4560Y-205D01*
X4547Y-218D01*
X4533D01*
X4520Y-205D01*
Y-178D01*
X4533Y-165D01*
X4547D01*
X4560Y-178D01*
X4573Y-165D01*
X4587D01*
X4560Y-178D02*
Y-205D01*
X4520Y-245D02*
Y-272D01*
Y-258D01*
X4600D01*
X4587Y-245D01*
X5078Y275D02*
X4998D01*
Y315D01*
X5011Y328D01*
X5038D01*
X5051Y315D01*
Y275D01*
Y302D02*
X5078Y328D01*
X5011Y355D02*
X4998Y368D01*
Y395D01*
X5011Y408D01*
X5024D01*
X5038Y395D01*
X5051Y408D01*
X5064D01*
X5078Y395D01*
Y368D01*
X5064Y355D01*
X5051D01*
X5038Y368D01*
X5024Y355D01*
X5011D01*
X5038Y368D02*
Y395D01*
X5011Y435D02*
X4998Y448D01*
Y475D01*
X5011Y488D01*
X5064D01*
X5078Y475D01*
Y448D01*
X5064Y435D01*
X5011D01*
X4690Y525D02*
Y605D01*
X4730D01*
X4743Y592D01*
Y565D01*
X4730Y552D01*
X4690D01*
X4717D02*
X4743Y525D01*
X4770Y605D02*
X4823D01*
Y592D01*
X4770Y538D01*
Y525D01*
X4850Y538D02*
X4863Y525D01*
X4890D01*
X4903Y538D01*
Y592D01*
X4890Y605D01*
X4863D01*
X4850Y592D01*
Y578D01*
X4863Y565D01*
X4903D01*
X4612Y500D02*
X4692D01*
Y460D01*
X4679Y447D01*
X4652D01*
X4639Y460D01*
Y500D01*
Y473D02*
X4612Y447D01*
X4692Y420D02*
Y367D01*
X4679D01*
X4626Y420D01*
X4612D01*
X4679Y340D02*
X4692Y327D01*
Y300D01*
X4679Y287D01*
X4666D01*
X4652Y300D01*
X4639Y287D01*
X4626D01*
X4612Y300D01*
Y327D01*
X4626Y340D01*
X4639D01*
X4652Y327D01*
X4666Y340D01*
X4679D01*
X4652Y327D02*
Y300D01*
X4271Y490D02*
X4350D01*
Y450D01*
X4337Y437D01*
X4310D01*
X4297Y450D01*
Y490D01*
Y463D02*
X4271Y437D01*
X4350Y410D02*
Y357D01*
X4337D01*
X4284Y410D01*
X4271D01*
X4350Y330D02*
Y277D01*
X4337D01*
X4284Y330D01*
X4271D01*
X3173Y1642D02*
Y1722D01*
X3212D01*
X3226Y1709D01*
Y1682D01*
X3212Y1669D01*
X3173D01*
X3199D02*
X3226Y1642D01*
X3252Y1722D02*
X3306D01*
Y1709D01*
X3252Y1656D01*
Y1642D01*
X3386Y1722D02*
X3359Y1709D01*
X3332Y1682D01*
Y1656D01*
X3346Y1642D01*
X3372D01*
X3386Y1656D01*
Y1669D01*
X3372Y1682D01*
X3332D01*
X5520Y2808D02*
Y2887D01*
X5560D01*
X5573Y2874D01*
Y2847D01*
X5560Y2834D01*
X5520D01*
X5547D02*
X5573Y2808D01*
X5600Y2887D02*
X5653D01*
Y2874D01*
X5600Y2821D01*
Y2808D01*
X5720D02*
Y2887D01*
X5680Y2847D01*
X5733D01*
X4055Y110D02*
Y190D01*
X4095D01*
X4108Y177D01*
Y150D01*
X4095Y137D01*
X4055D01*
X4082D02*
X4108Y110D01*
X4135Y190D02*
X4188D01*
Y177D01*
X4135Y123D01*
Y110D01*
X4215Y177D02*
X4228Y190D01*
X4255D01*
X4268Y177D01*
Y163D01*
X4255Y150D01*
X4242D01*
X4255D01*
X4268Y137D01*
Y123D01*
X4255Y110D01*
X4228D01*
X4215Y123D01*
X115Y660D02*
Y740D01*
X155D01*
X168Y727D01*
Y700D01*
X155Y687D01*
X115D01*
X142D02*
X168Y660D01*
X195Y740D02*
X248D01*
Y727D01*
X195Y673D01*
Y660D01*
X328D02*
X275D01*
X328Y713D01*
Y727D01*
X315Y740D01*
X288D01*
X275Y727D01*
X130Y2990D02*
X210D01*
Y2950D01*
X197Y2937D01*
X170D01*
X157Y2950D01*
Y2990D01*
Y2963D02*
X130Y2937D01*
X210Y2910D02*
Y2857D01*
X197D01*
X143Y2910D01*
X130D01*
X197Y2830D02*
X210Y2817D01*
Y2790D01*
X197Y2777D01*
X143D01*
X130Y2790D01*
Y2817D01*
X143Y2830D01*
X197D01*
X2552Y2433D02*
X2632D01*
Y2393D01*
X2619Y2379D01*
X2592D01*
X2579Y2393D01*
Y2433D01*
Y2406D02*
X2552Y2379D01*
Y2313D02*
X2632D01*
X2592Y2353D01*
Y2299D01*
X2619Y2273D02*
X2632Y2259D01*
Y2233D01*
X2619Y2219D01*
X2606D01*
X2592Y2233D01*
Y2246D01*
Y2233D01*
X2579Y2219D01*
X2566D01*
X2552Y2233D01*
Y2259D01*
X2566Y2273D01*
X2430Y2989D02*
X2510D01*
Y2949D01*
X2497Y2935D01*
X2470D01*
X2457Y2949D01*
Y2989D01*
Y2962D02*
X2430Y2935D01*
Y2869D02*
X2510D01*
X2470Y2909D01*
Y2855D01*
X2430Y2775D02*
Y2829D01*
X2483Y2775D01*
X2497D01*
X2510Y2789D01*
Y2815D01*
X2497Y2829D01*
X1290Y127D02*
Y207D01*
X1330D01*
X1343Y194D01*
Y167D01*
X1330Y154D01*
X1290D01*
X1317D02*
X1343Y127D01*
X1423D02*
X1370D01*
X1423Y181D01*
Y194D01*
X1410Y207D01*
X1383D01*
X1370Y194D01*
X1503Y207D02*
X1477Y194D01*
X1450Y167D01*
Y141D01*
X1463Y127D01*
X1490D01*
X1503Y141D01*
Y154D01*
X1490Y167D01*
X1450D01*
X1152Y-3D02*
Y77D01*
X1192D01*
X1206Y64D01*
Y37D01*
X1192Y24D01*
X1152D01*
X1179D02*
X1206Y-3D01*
X1286D02*
X1232D01*
X1286Y51D01*
Y64D01*
X1272Y77D01*
X1246D01*
X1232Y64D01*
X1352Y-3D02*
Y77D01*
X1312Y37D01*
X1366D01*
X4297Y3746D02*
Y3826D01*
X4337D01*
X4351Y3813D01*
Y3786D01*
X4337Y3773D01*
X4297D01*
X4324D02*
X4351Y3746D01*
X4377D02*
X4404D01*
X4391D01*
Y3826D01*
X4377Y3813D01*
X3106Y2215D02*
Y2269D01*
X3093Y2282D01*
X3066D01*
X3053Y2269D01*
Y2215D01*
X3066Y2202D01*
X3093D01*
X3079Y2229D02*
X3106Y2202D01*
X3093D02*
X3106Y2215D01*
X3173Y2202D02*
Y2282D01*
X3133Y2242D01*
X3186D01*
X5793Y3841D02*
X5767D01*
X5780D01*
Y3775D01*
X5767Y3761D01*
X5753D01*
X5740Y3775D01*
X5820Y3761D02*
X5847D01*
X5833D01*
Y3841D01*
X5820Y3828D01*
X3644Y2392D02*
X3657Y2405D01*
Y2432D01*
X3644Y2445D01*
X3591D01*
X3578Y2432D01*
Y2405D01*
X3591Y2392D01*
X3657Y2312D02*
Y2365D01*
X3617D01*
X3631Y2338D01*
Y2325D01*
X3617Y2312D01*
X3591D01*
X3578Y2325D01*
Y2352D01*
X3591Y2365D01*
X3657Y2285D02*
Y2232D01*
X3644D01*
X3591Y2285D01*
X3578D01*
X3787Y1722D02*
X3800Y1735D01*
Y1762D01*
X3787Y1775D01*
X3733D01*
X3720Y1762D01*
Y1735D01*
X3733Y1722D01*
X3800Y1642D02*
Y1695D01*
X3760D01*
X3773Y1668D01*
Y1655D01*
X3760Y1642D01*
X3733D01*
X3720Y1655D01*
Y1682D01*
X3733Y1695D01*
X3800Y1562D02*
X3787Y1588D01*
X3760Y1615D01*
X3733D01*
X3720Y1602D01*
Y1575D01*
X3733Y1562D01*
X3747D01*
X3760Y1575D01*
Y1615D01*
X868Y852D02*
X855Y865D01*
X828D01*
X815Y852D01*
Y798D01*
X828Y785D01*
X855D01*
X868Y798D01*
X948Y865D02*
X895D01*
Y825D01*
X922Y838D01*
X935D01*
X948Y825D01*
Y798D01*
X935Y785D01*
X908D01*
X895Y798D01*
X1028Y865D02*
X975D01*
Y825D01*
X1002Y838D01*
X1015D01*
X1028Y825D01*
Y798D01*
X1015Y785D01*
X988D01*
X975Y798D01*
X1458Y1779D02*
X1445Y1792D01*
X1418D01*
X1405Y1779D01*
Y1726D01*
X1418Y1712D01*
X1445D01*
X1458Y1726D01*
X1538Y1712D02*
X1485D01*
X1538Y1766D01*
Y1779D01*
X1525Y1792D01*
X1498D01*
X1485Y1779D01*
X1605Y1712D02*
Y1792D01*
X1565Y1752D01*
X1618D01*
X1195Y320D02*
X1181Y334D01*
X1155D01*
X1141Y320D01*
Y267D01*
X1155Y254D01*
X1181D01*
X1195Y267D01*
X1275Y254D02*
X1221D01*
X1275Y307D01*
Y320D01*
X1261Y334D01*
X1235D01*
X1221Y320D01*
X1355Y254D02*
X1301D01*
X1355Y307D01*
Y320D01*
X1341Y334D01*
X1315D01*
X1301Y320D01*
X2849Y697D02*
X2862Y710D01*
Y737D01*
X2849Y750D01*
X2796D01*
X2783Y737D01*
Y710D01*
X2796Y697D01*
X2783Y670D02*
Y643D01*
Y657D01*
X2862D01*
X2849Y670D01*
X2796Y603D02*
X2783Y590D01*
Y563D01*
X2796Y550D01*
X2849D01*
X2862Y563D01*
Y590D01*
X2849Y603D01*
X2836D01*
X2822Y590D01*
Y550D01*
X2516Y742D02*
X2502Y755D01*
X2476D01*
X2462Y742D01*
Y688D01*
X2476Y675D01*
X2502D01*
X2516Y688D01*
X2542Y675D02*
X2569D01*
X2556D01*
Y755D01*
X2542Y742D01*
X2609D02*
X2622Y755D01*
X2649D01*
X2662Y742D01*
Y728D01*
X2649Y715D01*
X2662Y702D01*
Y688D01*
X2649Y675D01*
X2622D01*
X2609Y688D01*
Y702D01*
X2622Y715D01*
X2609Y728D01*
Y742D01*
X2622Y715D02*
X2649D01*
X2989Y704D02*
X3002Y718D01*
Y744D01*
X2989Y757D01*
X2936D01*
X2923Y744D01*
Y718D01*
X2936Y704D01*
X2923Y678D02*
Y651D01*
Y664D01*
X3002D01*
X2989Y678D01*
X3002Y611D02*
Y558D01*
X2989D01*
X2936Y611D01*
X2923D01*
X3171Y1209D02*
X3157Y1222D01*
X3131D01*
X3117Y1209D01*
Y1156D01*
X3131Y1143D01*
X3157D01*
X3171Y1156D01*
X3197Y1143D02*
X3224D01*
X3211D01*
Y1222D01*
X3197Y1209D01*
X3317Y1222D02*
X3291Y1209D01*
X3264Y1182D01*
Y1156D01*
X3277Y1143D01*
X3304D01*
X3317Y1156D01*
Y1169D01*
X3304Y1182D01*
X3264D01*
X2833Y1534D02*
X2820Y1547D01*
X2793D01*
X2780Y1534D01*
Y1481D01*
X2793Y1468D01*
X2820D01*
X2833Y1481D01*
X2860Y1468D02*
X2887D01*
X2873D01*
Y1547D01*
X2860Y1534D01*
X2980Y1547D02*
X2927D01*
Y1507D01*
X2953Y1521D01*
X2967D01*
X2980Y1507D01*
Y1481D01*
X2967Y1468D01*
X2940D01*
X2927Y1481D01*
X4731Y3173D02*
X4718Y3160D01*
Y3133D01*
X4731Y3120D01*
X4784D01*
X4797Y3133D01*
Y3160D01*
X4784Y3173D01*
X4797Y3240D02*
X4718D01*
X4758Y3200D01*
Y3253D01*
X4920Y3233D02*
X4907Y3246D01*
X4880D01*
X4867Y3233D01*
Y3180D01*
X4880Y3167D01*
X4907D01*
X4920Y3180D01*
X4947Y3233D02*
X4960Y3246D01*
X4987D01*
X5000Y3233D01*
Y3220D01*
X4987Y3206D01*
X4973D01*
X4987D01*
X5000Y3193D01*
Y3180D01*
X4987Y3167D01*
X4960D01*
X4947Y3180D01*
X5176Y3292D02*
X5162Y3305D01*
X5136D01*
X5122Y3292D01*
Y3238D01*
X5136Y3225D01*
X5162D01*
X5176Y3238D01*
X5256Y3225D02*
X5202D01*
X5256Y3278D01*
Y3292D01*
X5242Y3305D01*
X5216D01*
X5202Y3292D01*
X5363Y2949D02*
X5350Y2962D01*
X5323D01*
X5310Y2949D01*
Y2896D01*
X5323Y2883D01*
X5350D01*
X5363Y2896D01*
X5390Y2883D02*
X5417D01*
X5403D01*
Y2962D01*
X5390Y2949D01*
X5101Y190D02*
Y270D01*
X5141D01*
X5155Y257D01*
Y230D01*
X5141Y217D01*
X5101D01*
X5181Y270D02*
X5235D01*
Y257D01*
X5181Y203D01*
Y190D01*
X1775Y1645D02*
Y1725D01*
X1815D01*
X1828Y1712D01*
Y1685D01*
X1815Y1672D01*
X1775D01*
X1908Y1645D02*
X1855D01*
X1908Y1698D01*
Y1712D01*
X1895Y1725D01*
X1868D01*
X1855Y1712D01*
X3550Y802D02*
X3630D01*
Y763D01*
X3617Y749D01*
X3590D01*
X3577Y763D01*
Y802D01*
Y776D02*
X3550Y749D01*
X3630Y723D02*
Y669D01*
X3617D01*
X3563Y723D01*
X3550D01*
X3630Y589D02*
Y643D01*
X3590D01*
X3603Y616D01*
Y603D01*
X3590Y589D01*
X3563D01*
X3550Y603D01*
Y629D01*
X3563Y643D01*
X3642Y1445D02*
X3722D01*
Y1405D01*
X3709Y1392D01*
X3682D01*
X3669Y1405D01*
Y1445D01*
Y1418D02*
X3642Y1392D01*
X3656Y1365D02*
X3642Y1352D01*
Y1325D01*
X3656Y1312D01*
X3709D01*
X3722Y1325D01*
Y1352D01*
X3709Y1365D01*
X3696D01*
X3682Y1352D01*
Y1312D01*
X3722Y1285D02*
Y1232D01*
X3709D01*
X3656Y1285D01*
X3642D01*
X3907Y2656D02*
Y2589D01*
X3920Y2576D01*
X3947D01*
X3960Y2589D01*
Y2656D01*
X3987Y2576D02*
X4013D01*
X4000D01*
Y2656D01*
X3987Y2643D01*
X4107Y2656D02*
X4053D01*
Y2616D01*
X4080Y2629D01*
X4093D01*
X4107Y2616D01*
Y2589D01*
X4093Y2576D01*
X4067D01*
X4053Y2589D01*
X265Y2983D02*
X345D01*
Y2943D01*
X332Y2929D01*
X305D01*
X292Y2943D01*
Y2983D01*
Y2956D02*
X265Y2929D01*
X345Y2903D02*
Y2849D01*
X332D01*
X278Y2903D01*
X265D01*
Y2823D02*
Y2796D01*
Y2809D01*
X345D01*
X332Y2823D01*
X1727Y2192D02*
Y2272D01*
X1767D01*
X1781Y2259D01*
Y2232D01*
X1767Y2219D01*
X1727D01*
X1754D02*
X1781Y2192D01*
X1807Y2206D02*
X1821Y2192D01*
X1847D01*
X1861Y2206D01*
Y2259D01*
X1847Y2272D01*
X1821D01*
X1807Y2259D01*
Y2246D01*
X1821Y2232D01*
X1861D01*
X1887Y2206D02*
X1901Y2192D01*
X1927D01*
X1941Y2206D01*
Y2259D01*
X1927Y2272D01*
X1901D01*
X1887Y2259D01*
Y2246D01*
X1901Y2232D01*
X1941D01*
X2475Y482D02*
X2555D01*
Y443D01*
X2542Y429D01*
X2515D01*
X2502Y443D01*
Y482D01*
Y456D02*
X2475Y429D01*
X2488Y403D02*
X2475Y389D01*
Y363D01*
X2488Y349D01*
X2542D01*
X2555Y363D01*
Y389D01*
X2542Y403D01*
X2528D01*
X2515Y389D01*
Y349D01*
X2542Y323D02*
X2555Y309D01*
Y283D01*
X2542Y269D01*
X2528D01*
X2515Y283D01*
X2502Y269D01*
X2488D01*
X2475Y283D01*
Y309D01*
X2488Y323D01*
X2502D01*
X2515Y309D01*
X2528Y323D01*
X2542D01*
X2515Y309D02*
Y283D01*
X2166Y78D02*
Y132D01*
X2152Y145D01*
X2126D01*
X2112Y132D01*
Y78D01*
X2126Y65D01*
X2152D01*
X2139Y92D02*
X2166Y65D01*
X2152D02*
X2166Y78D01*
X2246Y65D02*
X2192D01*
X2246Y118D01*
Y132D01*
X2232Y145D01*
X2206D01*
X2192Y132D01*
X1343Y2121D02*
Y2174D01*
X1330Y2187D01*
X1303D01*
X1290Y2174D01*
Y2121D01*
X1303Y2108D01*
X1330D01*
X1317Y2134D02*
X1343Y2108D01*
X1330D02*
X1343Y2121D01*
X1370Y2174D02*
X1383Y2187D01*
X1410D01*
X1423Y2174D01*
Y2161D01*
X1410Y2147D01*
X1397D01*
X1410D01*
X1423Y2134D01*
Y2121D01*
X1410Y2108D01*
X1383D01*
X1370Y2121D01*
X3373Y4443D02*
X3440D01*
X3453Y4456D01*
Y4483D01*
X3440Y4496D01*
X3373D01*
X3453Y4523D02*
Y4550D01*
Y4536D01*
X3373D01*
X3387Y4523D01*
X3373Y4590D02*
Y4643D01*
X3387D01*
X3440Y4590D01*
X3453D01*
X4683Y3911D02*
X4603D01*
Y3871D01*
X4616Y3858D01*
X4630D01*
X4643Y3871D01*
Y3911D01*
Y3871D01*
X4656Y3858D01*
X4670D01*
X4683Y3871D01*
Y3911D01*
X4603Y3831D02*
X4656D01*
X4683Y3805D01*
X4656Y3778D01*
X4603D01*
X4643D01*
Y3831D01*
X4683Y3751D02*
Y3698D01*
Y3725D01*
X4603D01*
X4590Y3671D02*
Y3618D01*
X4683Y3591D02*
X4603D01*
Y3551D01*
X4616Y3538D01*
X4670D01*
X4683Y3551D01*
Y3591D01*
M02*
