G04 Layer_Color=32896*
%FSLAX42Y42*%
%MOMM*%
G71*
G01*
G75*
%ADD49C,0.20*%
%ADD50C,0.25*%
%ADD97C,0.25*%
%ADD99C,0.10*%
%ADD100C,0.13*%
%ADD101C,0.18*%
%ADD102C,0.15*%
%ADD185C,0.15*%
%ADD186C,0.00*%
%ADD187C,0.13*%
%ADD188C,0.05*%
%ADD189C,0.14*%
D49*
X4077Y1983D02*
G03*
X4077Y1983I-10J0D01*
G01*
X650Y548D02*
G03*
X650Y548I-10J0D01*
G01*
X2994Y2813D02*
G03*
X2994Y2813I-10J0D01*
G01*
X3410Y4592D02*
G03*
X3410Y4592I-8J0D01*
G01*
X4454Y1948D02*
Y1950D01*
Y2255D02*
Y2258D01*
X4144D02*
X4454D01*
X4144Y2255D02*
Y2258D01*
Y1948D02*
Y1950D01*
Y1948D02*
X4454D01*
X689Y570D02*
X900D01*
X689Y784D02*
X900D01*
Y657D02*
Y702D01*
X284Y2628D02*
Y2968D01*
X595Y2628D02*
Y2968D01*
X2938Y2842D02*
X2941Y2840D01*
X2708D02*
X2711Y2842D01*
X2938D01*
X2935Y2532D02*
X2937Y2535D01*
X2713Y2532D02*
X2935D01*
X2710Y2535D02*
X2713Y2532D01*
X4872Y2477D02*
Y2598D01*
D50*
X5681Y980D02*
G03*
X5681Y980I-2J0D01*
G01*
X599Y1565D02*
G03*
X599Y1565I-5J0D01*
G01*
X5659Y1565D02*
G03*
X5659Y1565I-5J0D01*
G01*
X2896Y-378D02*
G03*
X2896Y-378I-5J0D01*
G01*
X2188Y233D02*
X2417D01*
Y631D01*
X2188Y633D02*
X2416D01*
X2188Y233D02*
Y633D01*
X305Y1608D02*
Y1934D01*
X732D01*
X305Y1608D02*
X732D01*
Y1934D01*
X5364Y1608D02*
Y1935D01*
X5791D01*
X5364Y1608D02*
X5791D01*
Y1935D01*
X2602Y-335D02*
Y-8D01*
X3029D01*
X2602Y-335D02*
X3029D01*
Y-8D01*
X6360Y0D02*
G03*
X6360Y0I-160J0D01*
G01*
Y3550D02*
G03*
X6360Y3550I-160J0D01*
G01*
X160D02*
G03*
X160Y3550I-160J0D01*
G01*
Y0D02*
G03*
X160Y0I-160J0D01*
G01*
X6600Y3550D02*
G03*
X6200Y3950I-400J0D01*
G01*
X0D02*
G03*
X-400Y3550I0J-400D01*
G01*
Y0D02*
G03*
X0Y-400I400J0D01*
G01*
X6200D02*
G03*
X6600Y0I0J400D01*
G01*
X5350Y3950D02*
X5600D01*
X3225D02*
X5350D01*
X5350D02*
X5350Y3950D01*
X2974Y4199D02*
X2975D01*
X2974Y4200D02*
X2974Y4199D01*
X2541Y4200D02*
X2974D01*
X2975Y3950D02*
Y4199D01*
X2975Y3950D02*
X2975Y3950D01*
X5600D02*
X6200D01*
X600Y3950D02*
X2975D01*
X0Y3950D02*
X600Y3950D01*
X6600Y0D02*
Y3550D01*
X-400Y0D02*
Y3550D01*
X0Y-400D02*
X6200D01*
X3225Y3950D02*
Y4200D01*
X2540Y4199D02*
Y5015D01*
X3660D01*
Y4200D02*
Y5015D01*
X3225Y4200D02*
X3660D01*
X2541Y4200D02*
X2541Y4200D01*
D97*
X1588Y385D02*
G03*
X1588Y385I-12J0D01*
G01*
X620Y2511D02*
G03*
X620Y2511I-12J0D01*
G01*
X4879Y3174D02*
G03*
X4879Y3174I-6J0D01*
G01*
X3528Y2533D02*
G03*
X3528Y2533I-10J0D01*
G01*
D99*
X712Y2185D02*
Y2225D01*
X793Y2185D02*
Y2225D01*
X5080Y3355D02*
X5240D01*
X5080Y3105D02*
X5240D01*
X2335Y2570D02*
Y2610D01*
X2415Y2570D02*
Y2610D01*
X2292Y2625D02*
Y2885D01*
X2042Y2625D02*
Y2885D01*
X3562Y3023D02*
X3602D01*
X3562Y2943D02*
X3602D01*
X4027Y3475D02*
X4067D01*
X4027Y3395D02*
X4067D01*
X5388Y999D02*
X5407Y999D01*
X5388Y979D02*
X5388Y999D01*
X5618Y999D02*
X5638Y999D01*
X5638Y979D02*
X5638Y999D01*
X5638Y699D02*
X5638Y718D01*
X5618Y699D02*
X5638Y699D01*
X5388Y699D02*
X5407Y699D01*
X5388Y699D02*
X5388Y718D01*
X1365Y47D02*
X1545D01*
X1365Y358D02*
X1545D01*
X5097Y3842D02*
X5358D01*
X5097Y3592D02*
X5358D01*
X5683Y567D02*
X5722D01*
X5683Y487D02*
X5722D01*
X5533Y437D02*
X5572D01*
X5533Y357D02*
X5572D01*
X5495Y1148D02*
X5535D01*
X5495Y1228D02*
X5535D01*
X5533Y212D02*
X5572D01*
X5533Y292D02*
X5572D01*
X1100Y965D02*
Y1005D01*
X1020Y965D02*
Y1005D01*
X845Y965D02*
Y1005D01*
X925Y965D02*
Y1005D01*
X448Y965D02*
Y1005D01*
X528Y965D02*
Y1005D01*
X503Y668D02*
Y708D01*
X583Y668D02*
Y708D01*
X1020Y648D02*
Y688D01*
X1100Y648D02*
Y688D01*
X1055Y185D02*
Y225D01*
X975Y185D02*
Y225D01*
X503Y365D02*
Y405D01*
X583Y365D02*
Y405D01*
X1100Y185D02*
Y225D01*
X1180Y185D02*
Y225D01*
X423Y-44D02*
Y-4D01*
X343Y-44D02*
Y-4D01*
X1780Y353D02*
Y392D01*
X1700Y353D02*
Y392D01*
X508Y-44D02*
Y-4D01*
X588Y-44D02*
Y-4D01*
X1844Y210D02*
Y250D01*
X1924Y210D02*
Y250D01*
X1148Y3325D02*
Y3365D01*
X1068Y3325D02*
Y3365D01*
X1338Y3005D02*
X1378D01*
X1338Y2925D02*
X1378D01*
X1338Y3155D02*
X1378D01*
X1338Y3075D02*
X1378D01*
X1338Y2877D02*
X1378D01*
X1338Y2797D02*
X1378D01*
X1207Y3325D02*
Y3365D01*
X1288Y3325D02*
Y3365D01*
X262Y2082D02*
X303D01*
X262Y2162D02*
X303D01*
X526Y2320D02*
X566D01*
X526Y2240D02*
X566D01*
X920Y2185D02*
Y2225D01*
X840Y2185D02*
Y2225D01*
X262Y2240D02*
X303D01*
X262Y2320D02*
X303D01*
X526Y2162D02*
X566D01*
X526Y2082D02*
X566D01*
X460Y3390D02*
X500D01*
X460Y3470D02*
X500D01*
X2605Y600D02*
X2645D01*
X2605Y520D02*
X2645D01*
X3232Y1625D02*
Y1665D01*
X3152Y1625D02*
Y1665D01*
X3340Y1625D02*
Y1665D01*
X3260Y1625D02*
Y1665D01*
X2605Y347D02*
X2645D01*
X2605Y267D02*
X2645D01*
X3183Y-317D02*
X3223D01*
X3183Y-238D02*
X3223D01*
X3183Y-98D02*
X3223D01*
X3183Y-17D02*
X3223D01*
X1689Y1538D02*
Y1577D01*
X1769Y1538D02*
Y1577D01*
X2112Y1375D02*
X2152D01*
X2112Y1295D02*
X2152D01*
X2808Y2342D02*
X2848D01*
X2808Y2262D02*
X2848D01*
X2533Y2570D02*
Y2610D01*
X2453Y2570D02*
Y2610D01*
X2653Y2886D02*
X2693D01*
X2653Y2966D02*
X2693D01*
X3192Y2972D02*
Y3012D01*
X3112Y2972D02*
Y3012D01*
X3042Y2972D02*
Y3012D01*
X2962Y2972D02*
Y3012D01*
X3267Y2705D02*
Y2745D01*
X3347Y2705D02*
Y2745D01*
X4290Y2312D02*
X4330D01*
X4290Y2392D02*
X4330D01*
X4867Y2295D02*
X4908D01*
X4867Y2375D02*
X4908D01*
X4867Y2062D02*
X4908D01*
X4867Y2142D02*
X4908D01*
X4625Y2299D02*
Y2339D01*
X4705Y2299D02*
Y2339D01*
X4062Y2462D02*
X4103D01*
X4062Y2542D02*
X4103D01*
X3910Y2429D02*
X3950D01*
X3910Y2349D02*
X3950D01*
X2808Y2470D02*
X2848D01*
X2808Y2390D02*
X2848D01*
X4585Y616D02*
X5015D01*
Y1046D01*
X4585D02*
X5015D01*
X4585Y616D02*
Y1046D01*
X2083Y1040D02*
Y1080D01*
X2003Y1040D02*
Y1080D01*
X5812Y729D02*
Y769D01*
X5732Y729D02*
Y769D01*
X5232Y224D02*
X5292D01*
X5232Y350D02*
X5292D01*
X5232Y50D02*
X5292D01*
X5232Y175D02*
X5292D01*
X5232Y384D02*
X5292D01*
X5232Y510D02*
X5292D01*
X5136Y669D02*
Y709D01*
X5216Y669D02*
Y709D01*
X5216Y941D02*
Y981D01*
X5136Y941D02*
Y981D01*
X5052Y1140D02*
X5112D01*
X5052Y1266D02*
X5112D01*
X5505Y1428D02*
X5565D01*
X5505Y1302D02*
X5565D01*
X675Y965D02*
Y1005D01*
X595Y965D02*
Y1005D01*
X242Y820D02*
Y980D01*
X403Y820D02*
Y980D01*
X423Y365D02*
Y405D01*
X343Y365D02*
Y405D01*
X795Y495D02*
X835D01*
X795Y415D02*
X835D01*
X728Y-44D02*
Y-4D01*
X647Y-44D02*
Y-4D01*
X1390Y535D02*
X1430D01*
X1390Y615D02*
X1430D01*
X1958Y3660D02*
X1998D01*
X1958Y3740D02*
X1998D01*
X1575Y3768D02*
X1635D01*
X1575Y3642D02*
X1635D01*
X610Y3258D02*
X650D01*
X610Y3338D02*
X650D01*
X2723Y130D02*
X2762D01*
X2723Y50D02*
X2762D01*
X4322Y395D02*
Y435D01*
X4242Y395D02*
Y435D01*
X2262Y1040D02*
Y1080D01*
X2182Y1040D02*
Y1080D01*
X2400Y1040D02*
Y1080D01*
X2320Y1040D02*
Y1080D01*
X2540Y1040D02*
Y1080D01*
X2460Y1040D02*
Y1080D01*
X2705Y1040D02*
Y1080D01*
X2625Y1040D02*
Y1080D01*
X2305Y108D02*
X2345D01*
X2305Y188D02*
X2345D01*
X2305Y80D02*
X2345D01*
X2305Y0D02*
X2345D01*
X4022Y1615D02*
Y1655D01*
X3942Y1615D02*
Y1655D01*
X3885Y1615D02*
Y1655D01*
X3805Y1615D02*
Y1655D01*
X2035Y530D02*
Y550D01*
X2085Y530D02*
Y550D01*
X2085Y347D02*
Y367D01*
X2035Y347D02*
Y367D01*
X1550Y1538D02*
Y1577D01*
X1630Y1538D02*
Y1577D01*
X1828Y1538D02*
Y1577D01*
X1908Y1538D02*
Y1577D01*
X2654Y3032D02*
X2694D01*
X2654Y3112D02*
X2694D01*
X2505Y2831D02*
Y2871D01*
X2425Y2831D02*
Y2871D01*
X4408Y3342D02*
Y3383D01*
X4488Y3342D02*
Y3383D01*
X4229Y3342D02*
Y3383D01*
X4309Y3342D02*
Y3383D01*
X5061Y2880D02*
Y2920D01*
X5141Y2880D02*
Y2920D01*
X4919Y2880D02*
Y2920D01*
X4999Y2880D02*
Y2920D01*
X4770Y1908D02*
Y1948D01*
X4690Y1908D02*
Y1948D01*
X4625Y1908D02*
Y1948D01*
X4545Y1908D02*
Y1948D01*
X3865Y2058D02*
Y2098D01*
X3945Y2058D02*
Y2098D01*
X3723Y2058D02*
Y2098D01*
X3803Y2058D02*
Y2098D01*
X4354Y1170D02*
X4394D01*
X4354Y1090D02*
X4394D01*
X4658Y-127D02*
X4698D01*
X4658Y-208D02*
X4698D01*
X2658Y1971D02*
X2698D01*
X2658Y2051D02*
X2698D01*
X4658Y-50D02*
X4698D01*
X4658Y30D02*
X4698D01*
X2658Y1921D02*
X2698D01*
X2658Y1841D02*
X2698D01*
X3496Y4447D02*
Y4487D01*
X3576Y4447D02*
Y4487D01*
X3103Y4408D02*
X3163D01*
X3103Y4282D02*
X3163D01*
X2761Y4435D02*
Y4475D01*
X2681Y4435D02*
Y4475D01*
X461Y1407D02*
X521D01*
X461Y1533D02*
X521D01*
X470Y1308D02*
X510D01*
X470Y1228D02*
X510D01*
X5490Y2158D02*
X5530D01*
X5490Y2238D02*
X5530D01*
X5500Y2106D02*
X5560D01*
X5500Y1980D02*
X5560D01*
X2235Y-210D02*
Y-170D01*
X2315Y-210D02*
Y-170D01*
X2183Y-208D02*
Y-148D01*
X2057Y-208D02*
Y-148D01*
X2360Y-210D02*
Y-170D01*
X2440Y-210D02*
Y-170D01*
X1519Y2448D02*
Y2488D01*
X1439Y2448D02*
Y2488D01*
X1362Y2448D02*
Y2488D01*
X1282Y2448D02*
Y2488D01*
D100*
X2133Y1652D02*
G03*
X2133Y1652I-75J0D01*
G01*
X4866Y3228D02*
Y3414D01*
X4848Y3431D02*
X4866Y3414D01*
X4851Y3213D02*
X4866Y3228D01*
X2183Y1502D02*
Y1802D01*
X1933Y1502D02*
Y1802D01*
D101*
X2544Y4641D02*
X3654D01*
Y5020D01*
X2544D02*
X3654D01*
X2544Y4641D02*
Y5020D01*
D102*
X3705Y2652D02*
X3705Y2573D01*
Y2785D02*
Y2862D01*
X3600Y2573D02*
X3705D01*
X3597Y2862D02*
X3705D01*
X3545Y2688D02*
Y2748D01*
X800Y2570D02*
X720D01*
Y2530D01*
X733Y2517D01*
X760D01*
X773Y2530D01*
Y2570D01*
Y2543D02*
X800Y2517D01*
X733Y2490D02*
X720Y2477D01*
Y2450D01*
X733Y2437D01*
X747D01*
X760Y2450D01*
Y2463D01*
Y2450D01*
X773Y2437D01*
X787D01*
X800Y2450D01*
Y2477D01*
X787Y2490D01*
X720Y2357D02*
Y2410D01*
X760D01*
X747Y2383D01*
Y2370D01*
X760Y2357D01*
X787D01*
X800Y2370D01*
Y2397D01*
X787Y2410D01*
X2415Y2458D02*
X2335D01*
Y2418D01*
X2348Y2404D01*
X2375D01*
X2388Y2418D01*
Y2458D01*
Y2431D02*
X2415Y2404D01*
Y2378D02*
Y2351D01*
Y2364D01*
X2335D01*
X2348Y2378D01*
X2335Y2258D02*
X2348Y2284D01*
X2375Y2311D01*
X2402D01*
X2415Y2298D01*
Y2271D01*
X2402Y2258D01*
X2388D01*
X2375Y2271D01*
Y2311D01*
X2002Y2875D02*
X1923D01*
Y2835D01*
X1936Y2822D01*
X1963D01*
X1976Y2835D01*
Y2875D01*
Y2848D02*
X2002Y2822D01*
Y2795D02*
Y2768D01*
Y2782D01*
X1923D01*
X1936Y2795D01*
X2002Y2688D02*
X1923D01*
X1963Y2728D01*
Y2675D01*
X3298Y3078D02*
Y2998D01*
X3338D01*
X3352Y3011D01*
Y3038D01*
X3338Y3051D01*
X3298D01*
X3325D02*
X3352Y3078D01*
X3378Y3065D02*
X3392Y3078D01*
X3418D01*
X3431Y3065D01*
Y3011D01*
X3418Y2998D01*
X3392D01*
X3378Y3011D01*
Y3025D01*
X3392Y3038D01*
X3431D01*
X4147Y3525D02*
Y3605D01*
X4108D01*
X4094Y3592D01*
Y3565D01*
X4108Y3552D01*
X4147D01*
X4121D02*
X4094Y3525D01*
X4068Y3538D02*
X4054Y3525D01*
X4028D01*
X4014Y3538D01*
Y3592D01*
X4028Y3605D01*
X4054D01*
X4068Y3592D01*
Y3578D01*
X4054Y3565D01*
X4014D01*
X3988Y3525D02*
X3961D01*
X3974D01*
Y3605D01*
X3988Y3592D01*
X2258Y770D02*
Y757D01*
X2231Y730D01*
X2204Y757D01*
Y770D01*
X2231Y730D02*
Y690D01*
X2178D02*
X2151D01*
X2164D01*
Y770D01*
X2178Y757D01*
X5430Y657D02*
X5497D01*
X5510Y644D01*
Y618D01*
X5497Y604D01*
X5430D01*
X5510Y578D02*
Y551D01*
Y564D01*
X5430D01*
X5443Y578D01*
X5430Y458D02*
X5443Y484D01*
X5470Y511D01*
X5497D01*
X5510Y498D01*
Y471D01*
X5497Y458D01*
X5483D01*
X5470Y471D01*
Y511D01*
X3080Y120D02*
Y53D01*
X3067Y40D01*
X3040D01*
X3027Y53D01*
Y120D01*
X3000Y40D02*
X2973D01*
X2987D01*
Y120D01*
X3000Y107D01*
X2933Y40D02*
X2907D01*
X2920D01*
Y120D01*
X2933Y107D01*
X970Y1677D02*
Y1611D01*
X957Y1598D01*
X930D01*
X917Y1611D01*
Y1677D01*
X890Y1598D02*
X863D01*
X877D01*
Y1677D01*
X890Y1664D01*
X823D02*
X810Y1677D01*
X783D01*
X770Y1664D01*
Y1611D01*
X783Y1598D01*
X810D01*
X823Y1611D01*
Y1664D01*
X885Y532D02*
Y466D01*
X872Y453D01*
X845D01*
X832Y466D01*
Y532D01*
X805Y466D02*
X792Y453D01*
X765D01*
X752Y466D01*
Y519D01*
X765Y532D01*
X792D01*
X805Y519D01*
Y506D01*
X792Y492D01*
X752D01*
X1502Y477D02*
Y411D01*
X1489Y397D01*
X1463D01*
X1449Y411D01*
Y477D01*
X1423Y464D02*
X1409Y477D01*
X1383D01*
X1369Y464D01*
Y451D01*
X1383Y437D01*
X1369Y424D01*
Y411D01*
X1383Y397D01*
X1409D01*
X1423Y411D01*
Y424D01*
X1409Y437D01*
X1423Y451D01*
Y464D01*
X1409Y437D02*
X1383D01*
X648Y2827D02*
X714D01*
X728Y2814D01*
Y2788D01*
X714Y2774D01*
X648D01*
Y2748D02*
Y2694D01*
X661D01*
X714Y2748D01*
X728D01*
X4092Y187D02*
Y121D01*
X4079Y108D01*
X4053D01*
X4039Y121D01*
Y187D01*
X3959D02*
X3986Y174D01*
X4013Y147D01*
Y121D01*
X3999Y108D01*
X3973D01*
X3959Y121D01*
Y134D01*
X3973Y147D01*
X4013D01*
X2685Y2843D02*
Y2776D01*
X2672Y2763D01*
X2645D01*
X2632Y2776D01*
Y2843D01*
X2605Y2830D02*
X2592Y2843D01*
X2565D01*
X2552Y2830D01*
Y2816D01*
X2565Y2803D01*
X2579D01*
X2565D01*
X2552Y2790D01*
Y2776D01*
X2565Y2763D01*
X2592D01*
X2605Y2776D01*
X4747Y3627D02*
Y3561D01*
X4734Y3547D01*
X4708D01*
X4694Y3561D01*
Y3627D01*
X4614Y3547D02*
X4668D01*
X4614Y3601D01*
Y3614D01*
X4628Y3627D01*
X4654D01*
X4668Y3614D01*
X4322Y1917D02*
Y1851D01*
X4309Y1838D01*
X4283D01*
X4269Y1851D01*
Y1917D01*
X4243Y1838D02*
X4216D01*
X4229D01*
Y1917D01*
X4243Y1904D01*
X2043Y1911D02*
X2030Y1898D01*
X2003D01*
X1990Y1911D01*
Y1924D01*
X2003Y1938D01*
X2030D01*
X2043Y1951D01*
Y1964D01*
X2030Y1977D01*
X2003D01*
X1990Y1964D01*
X2070Y1911D02*
X2083Y1898D01*
X2110D01*
X2123Y1911D01*
Y1924D01*
X2110Y1938D01*
X2097D01*
X2110D01*
X2123Y1951D01*
Y1964D01*
X2110Y1977D01*
X2083D01*
X2070Y1964D01*
X4947Y2650D02*
Y2730D01*
X4908D01*
X4894Y2717D01*
Y2690D01*
X4908Y2677D01*
X4947D01*
X4921D02*
X4894Y2650D01*
X4868Y2730D02*
X4814D01*
X4841D01*
Y2650D01*
X4788D02*
X4761D01*
X4774D01*
Y2730D01*
X4788Y2717D01*
X5335Y3467D02*
Y3547D01*
X5295D01*
X5282Y3534D01*
Y3507D01*
X5295Y3494D01*
X5335D01*
X5308D02*
X5282Y3467D01*
X5255Y3481D02*
X5242Y3467D01*
X5215D01*
X5202Y3481D01*
Y3534D01*
X5215Y3547D01*
X5242D01*
X5255Y3534D01*
Y3521D01*
X5242Y3507D01*
X5202D01*
X5175Y3534D02*
X5162Y3547D01*
X5135D01*
X5122Y3534D01*
Y3481D01*
X5135Y3467D01*
X5162D01*
X5175Y3481D01*
Y3534D01*
X6065Y492D02*
Y572D01*
X6025D01*
X6012Y559D01*
Y532D01*
X6025Y519D01*
X6065D01*
X6038D02*
X6012Y492D01*
X5985Y559D02*
X5972Y572D01*
X5945D01*
X5932Y559D01*
Y546D01*
X5945Y532D01*
X5932Y519D01*
Y506D01*
X5945Y492D01*
X5972D01*
X5985Y506D01*
Y519D01*
X5972Y532D01*
X5985Y546D01*
Y559D01*
X5972Y532D02*
X5945D01*
X5905Y506D02*
X5892Y492D01*
X5865D01*
X5852Y506D01*
Y559D01*
X5865Y572D01*
X5892D01*
X5905Y559D01*
Y546D01*
X5892Y532D01*
X5852D01*
X5913Y354D02*
Y434D01*
X5873D01*
X5860Y420D01*
Y394D01*
X5873Y380D01*
X5913D01*
X5886D02*
X5860Y354D01*
X5833Y420D02*
X5820Y434D01*
X5793D01*
X5780Y420D01*
Y407D01*
X5793Y394D01*
X5780Y380D01*
Y367D01*
X5793Y354D01*
X5820D01*
X5833Y367D01*
Y380D01*
X5820Y394D01*
X5833Y407D01*
Y420D01*
X5820Y394D02*
X5793D01*
X5753Y420D02*
X5740Y434D01*
X5713D01*
X5700Y420D01*
Y407D01*
X5713Y394D01*
X5700Y380D01*
Y367D01*
X5713Y354D01*
X5740D01*
X5753Y367D01*
Y380D01*
X5740Y394D01*
X5753Y407D01*
Y420D01*
X5740Y394D02*
X5713D01*
X5872Y1147D02*
Y1227D01*
X5833D01*
X5819Y1214D01*
Y1187D01*
X5833Y1174D01*
X5872D01*
X5846D02*
X5819Y1147D01*
X5793Y1214D02*
X5779Y1227D01*
X5753D01*
X5739Y1214D01*
Y1201D01*
X5753Y1187D01*
X5739Y1174D01*
Y1161D01*
X5753Y1147D01*
X5779D01*
X5793Y1161D01*
Y1174D01*
X5779Y1187D01*
X5793Y1201D01*
Y1214D01*
X5779Y1187D02*
X5753D01*
X5713Y1227D02*
X5659D01*
Y1214D01*
X5713Y1161D01*
Y1147D01*
X5708Y280D02*
Y200D01*
X5747D01*
X5761Y213D01*
Y240D01*
X5747Y253D01*
X5708D01*
X5734D02*
X5761Y280D01*
X5787Y213D02*
X5801Y200D01*
X5827D01*
X5841Y213D01*
Y227D01*
X5827Y240D01*
X5841Y253D01*
Y267D01*
X5827Y280D01*
X5801D01*
X5787Y267D01*
Y253D01*
X5801Y240D01*
X5787Y227D01*
Y213D01*
X5801Y240D02*
X5827D01*
X5921Y200D02*
X5894Y213D01*
X5867Y240D01*
Y267D01*
X5881Y280D01*
X5907D01*
X5921Y267D01*
Y253D01*
X5907Y240D01*
X5867D01*
X2542Y-93D02*
X2463D01*
Y-132D01*
X2476Y-146D01*
X2503D01*
X2516Y-132D01*
Y-93D01*
Y-119D02*
X2542Y-146D01*
X2463Y-226D02*
X2476Y-199D01*
X2503Y-172D01*
X2529D01*
X2542Y-186D01*
Y-212D01*
X2529Y-226D01*
X2516D01*
X2503Y-212D01*
Y-172D01*
X2476Y-252D02*
X2463Y-266D01*
Y-292D01*
X2476Y-306D01*
X2489D01*
X2503Y-292D01*
X2516Y-306D01*
X2529D01*
X2542Y-292D01*
Y-266D01*
X2529Y-252D01*
X2516D01*
X2503Y-266D01*
X2489Y-252D01*
X2476D01*
X2503Y-266D02*
Y-292D01*
X1230Y1088D02*
X1150D01*
Y1048D01*
X1163Y1034D01*
X1190D01*
X1203Y1048D01*
Y1088D01*
Y1061D02*
X1230Y1034D01*
X1150Y954D02*
Y1008D01*
X1190D01*
X1177Y981D01*
Y968D01*
X1190Y954D01*
X1217D01*
X1230Y968D01*
Y994D01*
X1217Y1008D01*
Y928D02*
X1230Y914D01*
Y888D01*
X1217Y874D01*
X1163D01*
X1150Y888D01*
Y914D01*
X1163Y928D01*
X1177D01*
X1190Y914D01*
Y874D01*
X920Y1350D02*
X840D01*
Y1310D01*
X853Y1297D01*
X880D01*
X893Y1310D01*
Y1350D01*
Y1323D02*
X920Y1297D01*
X840Y1217D02*
Y1270D01*
X880D01*
X867Y1243D01*
Y1230D01*
X880Y1217D01*
X907D01*
X920Y1230D01*
Y1257D01*
X907Y1270D01*
X853Y1190D02*
X840Y1177D01*
Y1150D01*
X853Y1137D01*
X867D01*
X880Y1150D01*
X893Y1137D01*
X907D01*
X920Y1150D01*
Y1177D01*
X907Y1190D01*
X893D01*
X880Y1177D01*
X867Y1190D01*
X853D01*
X880Y1177D02*
Y1150D01*
X405Y1100D02*
X325D01*
Y1060D01*
X338Y1047D01*
X365D01*
X378Y1060D01*
Y1100D01*
Y1073D02*
X405Y1047D01*
X325Y967D02*
Y1020D01*
X365D01*
X352Y993D01*
Y980D01*
X365Y967D01*
X392D01*
X405Y980D01*
Y1007D01*
X392Y1020D01*
X325Y940D02*
Y887D01*
X338D01*
X392Y940D01*
X405D01*
X272Y653D02*
Y573D01*
X312D01*
X326Y586D01*
Y613D01*
X312Y626D01*
X272D01*
X299D02*
X326Y653D01*
X406Y573D02*
X352D01*
Y613D01*
X379Y599D01*
X392D01*
X406Y613D01*
Y639D01*
X392Y653D01*
X366D01*
X352Y639D01*
X486Y573D02*
X459Y586D01*
X432Y613D01*
Y639D01*
X446Y653D01*
X472D01*
X486Y639D01*
Y626D01*
X472Y613D01*
X432D01*
X1220Y773D02*
X1140D01*
Y733D01*
X1153Y719D01*
X1180D01*
X1193Y733D01*
Y773D01*
Y746D02*
X1220Y719D01*
X1140Y639D02*
Y693D01*
X1180D01*
X1167Y666D01*
Y653D01*
X1180Y639D01*
X1207D01*
X1220Y653D01*
Y679D01*
X1207Y693D01*
X1140Y559D02*
Y613D01*
X1180D01*
X1167Y586D01*
Y573D01*
X1180Y559D01*
X1207D01*
X1220Y573D01*
Y599D01*
X1207Y613D01*
X1055Y540D02*
X975D01*
Y500D01*
X988Y487D01*
X1015D01*
X1028Y500D01*
Y540D01*
Y513D02*
X1055Y487D01*
X975Y407D02*
Y460D01*
X1015D01*
X1002Y433D01*
Y420D01*
X1015Y407D01*
X1042D01*
X1055Y420D01*
Y447D01*
X1042Y460D01*
X1055Y340D02*
X975D01*
X1015Y380D01*
Y327D01*
X695Y493D02*
X615D01*
Y453D01*
X628Y439D01*
X655D01*
X668Y453D01*
Y493D01*
Y466D02*
X695Y439D01*
X615Y359D02*
Y413D01*
X655D01*
X642Y386D01*
Y373D01*
X655Y359D01*
X682D01*
X695Y373D01*
Y399D01*
X682Y413D01*
X628Y333D02*
X615Y319D01*
Y293D01*
X628Y279D01*
X642D01*
X655Y293D01*
Y306D01*
Y293D01*
X668Y279D01*
X682D01*
X695Y293D01*
Y319D01*
X682Y333D01*
X1174Y549D02*
X1094D01*
Y509D01*
X1107Y495D01*
X1134D01*
X1147Y509D01*
Y549D01*
Y522D02*
X1174Y495D01*
X1094Y415D02*
Y469D01*
X1134D01*
X1120Y442D01*
Y429D01*
X1134Y415D01*
X1160D01*
X1174Y429D01*
Y455D01*
X1160Y469D01*
X1174Y335D02*
Y389D01*
X1120Y335D01*
X1107D01*
X1094Y349D01*
Y375D01*
X1107Y389D01*
X310Y59D02*
X230D01*
Y19D01*
X243Y5D01*
X270D01*
X283Y19D01*
Y59D01*
Y32D02*
X310Y5D01*
X230Y-75D02*
Y-21D01*
X270D01*
X257Y-48D01*
Y-61D01*
X270Y-75D01*
X297D01*
X310Y-61D01*
Y-35D01*
X297Y-21D01*
X310Y-101D02*
Y-128D01*
Y-115D01*
X230D01*
X243Y-101D01*
X1819Y512D02*
Y592D01*
X1779D01*
X1765Y579D01*
Y552D01*
X1779Y539D01*
X1819D01*
X1792D02*
X1765Y512D01*
X1685Y592D02*
X1739D01*
Y552D01*
X1712Y566D01*
X1699D01*
X1685Y552D01*
Y526D01*
X1699Y512D01*
X1725D01*
X1739Y526D01*
X1659Y579D02*
X1645Y592D01*
X1619D01*
X1605Y579D01*
Y526D01*
X1619Y512D01*
X1645D01*
X1659Y526D01*
Y579D01*
X655Y-243D02*
Y-163D01*
X615D01*
X602Y-177D01*
Y-203D01*
X615Y-217D01*
X655D01*
X628D02*
X602Y-243D01*
X535D02*
Y-163D01*
X575Y-203D01*
X522D01*
X495Y-230D02*
X482Y-243D01*
X455D01*
X442Y-230D01*
Y-177D01*
X455Y-163D01*
X482D01*
X495Y-177D01*
Y-190D01*
X482Y-203D01*
X442D01*
X1924Y572D02*
X1844D01*
Y533D01*
X1857Y519D01*
X1884D01*
X1897Y533D01*
Y572D01*
Y546D02*
X1924Y519D01*
Y453D02*
X1844D01*
X1884Y493D01*
Y439D01*
X1857Y413D02*
X1844Y399D01*
Y373D01*
X1857Y359D01*
X1870D01*
X1884Y373D01*
X1897Y359D01*
X1910D01*
X1924Y373D01*
Y399D01*
X1910Y413D01*
X1897D01*
X1884Y399D01*
X1870Y413D01*
X1857D01*
X1884Y399D02*
Y373D01*
X1140Y3703D02*
X1060D01*
Y3663D01*
X1073Y3649D01*
X1100D01*
X1113Y3663D01*
Y3703D01*
Y3676D02*
X1140Y3649D01*
Y3583D02*
X1060D01*
X1100Y3623D01*
Y3569D01*
X1060Y3543D02*
Y3489D01*
X1073D01*
X1127Y3543D01*
X1140D01*
X1724Y2935D02*
Y3015D01*
X1684D01*
X1671Y3002D01*
Y2975D01*
X1684Y2962D01*
X1724D01*
X1697D02*
X1671Y2935D01*
X1604D02*
Y3015D01*
X1644Y2975D01*
X1591D01*
X1511Y3015D02*
X1537Y3002D01*
X1564Y2975D01*
Y2949D01*
X1551Y2935D01*
X1524D01*
X1511Y2949D01*
Y2962D01*
X1524Y2975D01*
X1564D01*
X1540Y3205D02*
Y3285D01*
X1500D01*
X1487Y3272D01*
Y3245D01*
X1500Y3232D01*
X1540D01*
X1513D02*
X1487Y3205D01*
X1420D02*
Y3285D01*
X1460Y3245D01*
X1407D01*
X1327Y3285D02*
X1380D01*
Y3245D01*
X1353Y3258D01*
X1340D01*
X1327Y3245D01*
Y3218D01*
X1340Y3205D01*
X1367D01*
X1380Y3218D01*
X1468Y2698D02*
Y2777D01*
X1428D01*
X1414Y2764D01*
Y2737D01*
X1428Y2724D01*
X1468D01*
X1441D02*
X1414Y2698D01*
X1348D02*
Y2777D01*
X1388Y2737D01*
X1334D01*
X1268Y2698D02*
Y2777D01*
X1308Y2737D01*
X1254D01*
X1323Y3320D02*
X1402D01*
Y3360D01*
X1389Y3373D01*
X1362D01*
X1349Y3360D01*
Y3320D01*
Y3347D02*
X1323Y3373D01*
Y3440D02*
X1402D01*
X1362Y3400D01*
Y3453D01*
X1323Y3480D02*
Y3507D01*
Y3493D01*
X1402D01*
X1389Y3480D01*
X135Y2095D02*
Y2175D01*
X95D01*
X82Y2162D01*
Y2135D01*
X95Y2122D01*
X135D01*
X108D02*
X82Y2095D01*
X15D02*
Y2175D01*
X55Y2135D01*
X2D01*
X-25Y2162D02*
X-38Y2175D01*
X-65D01*
X-78Y2162D01*
Y2108D01*
X-65Y2095D01*
X-38D01*
X-25Y2108D01*
Y2162D01*
X653Y2350D02*
Y2430D01*
X614D01*
X600Y2417D01*
Y2390D01*
X614Y2377D01*
X653D01*
X627D02*
X600Y2350D01*
X574Y2417D02*
X560Y2430D01*
X534D01*
X520Y2417D01*
Y2403D01*
X534Y2390D01*
X547D01*
X534D01*
X520Y2377D01*
Y2363D01*
X534Y2350D01*
X560D01*
X574Y2363D01*
X494D02*
X480Y2350D01*
X454D01*
X440Y2363D01*
Y2417D01*
X454Y2430D01*
X480D01*
X494Y2417D01*
Y2403D01*
X480Y2390D01*
X440D01*
X923Y2560D02*
X843D01*
Y2520D01*
X856Y2507D01*
X883D01*
X896Y2520D01*
Y2560D01*
Y2533D02*
X923Y2507D01*
X856Y2480D02*
X843Y2467D01*
Y2440D01*
X856Y2427D01*
X869D01*
X883Y2440D01*
Y2453D01*
Y2440D01*
X896Y2427D01*
X909D01*
X923Y2440D01*
Y2467D01*
X909Y2480D01*
X856Y2400D02*
X843Y2387D01*
Y2360D01*
X856Y2347D01*
X869D01*
X883Y2360D01*
X896Y2347D01*
X909D01*
X923Y2360D01*
Y2387D01*
X909Y2400D01*
X896D01*
X883Y2387D01*
X869Y2400D01*
X856D01*
X883Y2387D02*
Y2360D01*
X133Y2242D02*
Y2322D01*
X93D01*
X79Y2309D01*
Y2282D01*
X93Y2269D01*
X133D01*
X106D02*
X79Y2242D01*
X53Y2309D02*
X39Y2322D01*
X13D01*
X-1Y2309D01*
Y2296D01*
X13Y2282D01*
X26D01*
X13D01*
X-1Y2269D01*
Y2256D01*
X13Y2242D01*
X39D01*
X53Y2256D01*
X-27Y2322D02*
X-81D01*
Y2309D01*
X-27Y2256D01*
Y2242D01*
X628Y1977D02*
Y2057D01*
X588D01*
X574Y2044D01*
Y2017D01*
X588Y2004D01*
X628D01*
X601D02*
X574Y1977D01*
X548Y2044D02*
X534Y2057D01*
X508D01*
X494Y2044D01*
Y2031D01*
X508Y2017D01*
X521D01*
X508D01*
X494Y2004D01*
Y1991D01*
X508Y1977D01*
X534D01*
X548Y1991D01*
X414Y2057D02*
X441Y2044D01*
X468Y2017D01*
Y1991D01*
X454Y1977D01*
X428D01*
X414Y1991D01*
Y2004D01*
X428Y2017D01*
X468D01*
X838Y3397D02*
Y3477D01*
X798D01*
X784Y3464D01*
Y3437D01*
X798Y3424D01*
X838D01*
X811D02*
X784Y3397D01*
X758Y3464D02*
X744Y3477D01*
X718D01*
X704Y3464D01*
Y3451D01*
X718Y3437D01*
X731D01*
X718D01*
X704Y3424D01*
Y3411D01*
X718Y3397D01*
X744D01*
X758Y3411D01*
X638Y3397D02*
Y3477D01*
X678Y3437D01*
X624D01*
X2737Y631D02*
Y711D01*
X2697D01*
X2683Y697D01*
Y671D01*
X2697Y657D01*
X2737D01*
X2710D02*
X2683Y631D01*
X2657Y697D02*
X2643Y711D01*
X2617D01*
X2604Y697D01*
Y684D01*
X2617Y671D01*
X2630D01*
X2617D01*
X2604Y657D01*
Y644D01*
X2617Y631D01*
X2643D01*
X2657Y644D01*
X2577Y697D02*
X2564Y711D01*
X2537D01*
X2524Y697D01*
Y684D01*
X2537Y671D01*
X2550D01*
X2537D01*
X2524Y657D01*
Y644D01*
X2537Y631D01*
X2564D01*
X2577Y644D01*
X3108Y1738D02*
X3028D01*
Y1698D01*
X3041Y1684D01*
X3068D01*
X3081Y1698D01*
Y1738D01*
Y1711D02*
X3108Y1684D01*
X3041Y1658D02*
X3028Y1644D01*
Y1618D01*
X3041Y1604D01*
X3054D01*
X3068Y1618D01*
Y1631D01*
Y1618D01*
X3081Y1604D01*
X3094D01*
X3108Y1618D01*
Y1644D01*
X3094Y1658D01*
X3108Y1524D02*
Y1578D01*
X3054Y1524D01*
X3041D01*
X3028Y1538D01*
Y1564D01*
X3041Y1578D01*
X3455Y1730D02*
X3375D01*
Y1690D01*
X3388Y1677D01*
X3415D01*
X3428Y1690D01*
Y1730D01*
Y1703D02*
X3455Y1677D01*
X3388Y1650D02*
X3375Y1637D01*
Y1610D01*
X3388Y1597D01*
X3402D01*
X3415Y1610D01*
Y1623D01*
Y1610D01*
X3428Y1597D01*
X3442D01*
X3455Y1610D01*
Y1637D01*
X3442Y1650D01*
X3455Y1570D02*
Y1543D01*
Y1557D01*
X3375D01*
X3388Y1570D01*
X2733Y375D02*
Y455D01*
X2693D01*
X2679Y442D01*
Y415D01*
X2693Y402D01*
X2733D01*
X2706D02*
X2679Y375D01*
X2653Y442D02*
X2639Y455D01*
X2613D01*
X2599Y442D01*
Y428D01*
X2613Y415D01*
X2626D01*
X2613D01*
X2599Y402D01*
Y388D01*
X2613Y375D01*
X2639D01*
X2653Y388D01*
X2573Y442D02*
X2559Y455D01*
X2533D01*
X2519Y442D01*
Y388D01*
X2533Y375D01*
X2559D01*
X2573Y388D01*
Y442D01*
X3568Y-325D02*
Y-245D01*
X3528D01*
X3514Y-258D01*
Y-285D01*
X3528Y-298D01*
X3568D01*
X3541D02*
X3514Y-325D01*
X3434D02*
X3488D01*
X3434Y-272D01*
Y-258D01*
X3448Y-245D01*
X3474D01*
X3488Y-258D01*
X3408Y-312D02*
X3394Y-325D01*
X3368D01*
X3354Y-312D01*
Y-258D01*
X3368Y-245D01*
X3394D01*
X3408Y-258D01*
Y-272D01*
X3394Y-285D01*
X3354D01*
X3570Y-90D02*
Y-10D01*
X3530D01*
X3517Y-23D01*
Y-50D01*
X3530Y-63D01*
X3570D01*
X3543D02*
X3517Y-90D01*
X3437D02*
X3490D01*
X3437Y-37D01*
Y-23D01*
X3450Y-10D01*
X3477D01*
X3490Y-23D01*
X3410D02*
X3397Y-10D01*
X3370D01*
X3357Y-23D01*
Y-37D01*
X3370Y-50D01*
X3357Y-63D01*
Y-77D01*
X3370Y-90D01*
X3397D01*
X3410Y-77D01*
Y-63D01*
X3397Y-50D01*
X3410Y-37D01*
Y-23D01*
X3397Y-50D02*
X3370D01*
X1700Y1207D02*
X1780D01*
Y1246D01*
X1767Y1260D01*
X1740D01*
X1727Y1246D01*
Y1207D01*
Y1233D02*
X1700Y1260D01*
Y1340D02*
Y1286D01*
X1753Y1340D01*
X1767D01*
X1780Y1326D01*
Y1300D01*
X1767Y1286D01*
Y1366D02*
X1780Y1380D01*
Y1406D01*
X1767Y1420D01*
X1753D01*
X1740Y1406D01*
Y1393D01*
Y1406D01*
X1727Y1420D01*
X1713D01*
X1700Y1406D01*
Y1380D01*
X1713Y1366D01*
X2402Y1393D02*
Y1472D01*
X2363D01*
X2349Y1459D01*
Y1432D01*
X2363Y1419D01*
X2402D01*
X2376D02*
X2349Y1393D01*
X2269D02*
X2323D01*
X2269Y1446D01*
Y1459D01*
X2283Y1472D01*
X2309D01*
X2323Y1459D01*
X2189Y1393D02*
X2243D01*
X2189Y1446D01*
Y1459D01*
X2203Y1472D01*
X2229D01*
X2243Y1459D01*
X2722Y2216D02*
Y2136D01*
X2762D01*
X2776Y2150D01*
Y2176D01*
X2762Y2190D01*
X2722D01*
X2749D02*
X2776Y2216D01*
X2802D02*
X2829D01*
X2816D01*
Y2136D01*
X2802Y2150D01*
X2869Y2136D02*
X2922D01*
Y2150D01*
X2869Y2203D01*
Y2216D01*
X2530Y2442D02*
X2450D01*
Y2403D01*
X2463Y2389D01*
X2490D01*
X2503Y2403D01*
Y2442D01*
Y2416D02*
X2530Y2389D01*
Y2363D02*
Y2336D01*
Y2349D01*
X2450D01*
X2463Y2363D01*
X2450Y2243D02*
Y2296D01*
X2490D01*
X2477Y2269D01*
Y2256D01*
X2490Y2243D01*
X2517D01*
X2530Y2256D01*
Y2283D01*
X2517Y2296D01*
X2327Y3150D02*
Y3070D01*
X2367D01*
X2381Y3083D01*
Y3110D01*
X2367Y3123D01*
X2327D01*
X2354D02*
X2381Y3150D01*
X2407D02*
X2434D01*
X2421D01*
Y3070D01*
X2407Y3083D01*
X2474D02*
X2487Y3070D01*
X2514D01*
X2527Y3083D01*
Y3097D01*
X2514Y3110D01*
X2501D01*
X2514D01*
X2527Y3123D01*
Y3137D01*
X2514Y3150D01*
X2487D01*
X2474Y3137D01*
X3310Y3090D02*
X3230D01*
Y3050D01*
X3244Y3036D01*
X3270D01*
X3284Y3050D01*
Y3090D01*
Y3063D02*
X3310Y3036D01*
Y3010D02*
Y2983D01*
Y2996D01*
X3230D01*
X3244Y3010D01*
X3310Y2890D02*
Y2943D01*
X3257Y2890D01*
X3244D01*
X3230Y2903D01*
Y2930D01*
X3244Y2943D01*
X2936Y3088D02*
X2856D01*
Y3048D01*
X2869Y3035D01*
X2896D01*
X2909Y3048D01*
Y3088D01*
Y3062D02*
X2936Y3035D01*
Y3008D02*
Y2982D01*
Y2995D01*
X2856D01*
X2869Y3008D01*
X2936Y2942D02*
Y2915D01*
Y2928D01*
X2856D01*
X2869Y2942D01*
X3375Y2625D02*
X3455D01*
Y2665D01*
X3442Y2678D01*
X3415D01*
X3402Y2665D01*
Y2625D01*
Y2652D02*
X3375Y2678D01*
Y2705D02*
Y2732D01*
Y2718D01*
X3455D01*
X3442Y2705D01*
Y2772D02*
X3455Y2785D01*
Y2812D01*
X3442Y2825D01*
X3388D01*
X3375Y2812D01*
Y2785D01*
X3388Y2772D01*
X3442D01*
X4545Y2392D02*
X4465D01*
Y2353D01*
X4478Y2339D01*
X4505D01*
X4518Y2353D01*
Y2392D01*
Y2366D02*
X4545Y2339D01*
X4478Y2313D02*
X4465Y2299D01*
Y2273D01*
X4478Y2259D01*
X4492D01*
X4505Y2273D01*
X4518Y2259D01*
X4532D01*
X4545Y2273D01*
Y2299D01*
X4532Y2313D01*
X4518D01*
X4505Y2299D01*
X4492Y2313D01*
X4478D01*
X4505Y2299D02*
Y2273D01*
X5190Y2298D02*
Y2377D01*
X5150D01*
X5137Y2364D01*
Y2337D01*
X5150Y2324D01*
X5190D01*
X5163D02*
X5137Y2298D01*
X5110Y2377D02*
X5057D01*
Y2364D01*
X5110Y2311D01*
Y2298D01*
X5183Y2070D02*
Y2150D01*
X5143D01*
X5129Y2137D01*
Y2110D01*
X5143Y2097D01*
X5183D01*
X5156D02*
X5129Y2070D01*
X5049Y2150D02*
X5076Y2137D01*
X5103Y2110D01*
Y2083D01*
X5089Y2070D01*
X5063D01*
X5049Y2083D01*
Y2097D01*
X5063Y2110D01*
X5103D01*
X4735Y2087D02*
Y2167D01*
X4695D01*
X4682Y2153D01*
Y2127D01*
X4695Y2113D01*
X4735D01*
X4708D02*
X4682Y2087D01*
X4602Y2167D02*
X4655D01*
Y2127D01*
X4628Y2140D01*
X4615D01*
X4602Y2127D01*
Y2100D01*
X4615Y2087D01*
X4642D01*
X4655Y2100D01*
X4310Y2567D02*
X4230D01*
Y2528D01*
X4243Y2514D01*
X4270D01*
X4283Y2528D01*
Y2567D01*
Y2541D02*
X4310Y2514D01*
Y2448D02*
X4230D01*
X4270Y2488D01*
Y2434D01*
X3705Y2334D02*
X3785D01*
Y2374D01*
X3772Y2388D01*
X3745D01*
X3732Y2374D01*
Y2334D01*
Y2361D02*
X3705Y2388D01*
X3772Y2414D02*
X3785Y2428D01*
Y2454D01*
X3772Y2468D01*
X3758D01*
X3745Y2454D01*
Y2441D01*
Y2454D01*
X3732Y2468D01*
X3718D01*
X3705Y2454D01*
Y2428D01*
X3718Y2414D01*
X2977Y2480D02*
Y2400D01*
X3017D01*
X3031Y2413D01*
Y2440D01*
X3017Y2453D01*
X2977D01*
X3004D02*
X3031Y2480D01*
X3111D02*
X3057D01*
X3111Y2427D01*
Y2413D01*
X3097Y2400D01*
X3071D01*
X3057Y2413D01*
X3875Y2753D02*
X3822D01*
X3808Y2766D01*
Y2793D01*
X3822Y2806D01*
X3875D01*
X3888Y2793D01*
Y2766D01*
X3862Y2780D02*
X3888Y2753D01*
Y2766D02*
X3875Y2753D01*
X3888Y2726D02*
Y2700D01*
Y2713D01*
X3808D01*
X3822Y2726D01*
X4792Y1170D02*
Y1090D01*
X4739D01*
X4659D02*
X4713D01*
X4659Y1143D01*
Y1156D01*
X4673Y1170D01*
X4699D01*
X4713Y1156D01*
X1890Y1118D02*
X1970D01*
Y1064D01*
Y1038D02*
Y1011D01*
Y1024D01*
X1890D01*
X1903Y1038D01*
X5416Y3292D02*
X5403Y3305D01*
Y3332D01*
X5416Y3345D01*
X5469D01*
X5483Y3332D01*
Y3305D01*
X5469Y3292D01*
X5403Y3212D02*
X5416Y3238D01*
X5443Y3265D01*
X5469D01*
X5483Y3252D01*
Y3225D01*
X5469Y3212D01*
X5456D01*
X5443Y3225D01*
Y3265D01*
X5416Y3185D02*
X5403Y3172D01*
Y3145D01*
X5416Y3132D01*
X5429D01*
X5443Y3145D01*
X5456Y3132D01*
X5469D01*
X5483Y3145D01*
Y3172D01*
X5469Y3185D01*
X5456D01*
X5443Y3172D01*
X5429Y3185D01*
X5416D01*
X5443Y3172D02*
Y3145D01*
X5843Y789D02*
X5830Y803D01*
Y829D01*
X5843Y842D01*
X5897D01*
X5910Y829D01*
Y803D01*
X5897Y789D01*
X5830Y709D02*
X5843Y736D01*
X5870Y763D01*
X5897D01*
X5910Y749D01*
Y723D01*
X5897Y709D01*
X5883D01*
X5870Y723D01*
Y763D01*
X5830Y629D02*
X5843Y656D01*
X5870Y683D01*
X5897D01*
X5910Y669D01*
Y643D01*
X5897Y629D01*
X5883D01*
X5870Y643D01*
Y683D01*
X5317Y52D02*
X5330Y65D01*
X5357D01*
X5370Y52D01*
Y-2D01*
X5357Y-15D01*
X5330D01*
X5317Y-2D01*
X5237Y65D02*
X5263Y52D01*
X5290Y25D01*
Y-2D01*
X5277Y-15D01*
X5250D01*
X5237Y-2D01*
Y12D01*
X5250Y25D01*
X5290D01*
X5157Y65D02*
X5210D01*
Y25D01*
X5183Y38D01*
X5170D01*
X5157Y25D01*
Y-2D01*
X5170Y-15D01*
X5197D01*
X5210Y-2D01*
X5483Y87D02*
X5469Y74D01*
X5443D01*
X5429Y87D01*
Y141D01*
X5443Y154D01*
X5469D01*
X5483Y141D01*
X5563Y74D02*
X5536Y87D01*
X5509Y114D01*
Y141D01*
X5523Y154D01*
X5549D01*
X5563Y141D01*
Y127D01*
X5549Y114D01*
X5509D01*
X5629Y154D02*
Y74D01*
X5589Y114D01*
X5643D01*
X5314Y169D02*
X5328Y182D01*
X5354D01*
X5367Y169D01*
Y116D01*
X5354Y102D01*
X5328D01*
X5314Y116D01*
X5234Y182D02*
X5261Y169D01*
X5288Y142D01*
Y116D01*
X5274Y102D01*
X5248D01*
X5234Y116D01*
Y129D01*
X5248Y142D01*
X5288D01*
X5208Y169D02*
X5194Y182D01*
X5168D01*
X5154Y169D01*
Y156D01*
X5168Y142D01*
X5181D01*
X5168D01*
X5154Y129D01*
Y116D01*
X5168Y102D01*
X5194D01*
X5208Y116D01*
X5314Y627D02*
X5328Y613D01*
Y587D01*
X5314Y574D01*
X5261D01*
X5248Y587D01*
Y613D01*
X5261Y627D01*
X5328Y707D02*
X5314Y680D01*
X5288Y653D01*
X5261D01*
X5248Y667D01*
Y693D01*
X5261Y707D01*
X5274D01*
X5288Y693D01*
Y653D01*
X5248Y787D02*
Y733D01*
X5301Y787D01*
X5314D01*
X5328Y773D01*
Y747D01*
X5314Y733D01*
X5261Y994D02*
X5248Y1008D01*
Y1034D01*
X5261Y1048D01*
X5314D01*
X5328Y1034D01*
Y1008D01*
X5314Y994D01*
X5248Y914D02*
X5261Y941D01*
X5288Y968D01*
X5314D01*
X5328Y954D01*
Y928D01*
X5314Y914D01*
X5301D01*
X5288Y928D01*
Y968D01*
X5328Y888D02*
Y861D01*
Y874D01*
X5248D01*
X5261Y888D01*
X5271Y1234D02*
X5258Y1248D01*
Y1274D01*
X5271Y1287D01*
X5324D01*
X5338Y1274D01*
Y1248D01*
X5324Y1234D01*
X5258Y1154D02*
X5271Y1181D01*
X5298Y1208D01*
X5324D01*
X5338Y1194D01*
Y1168D01*
X5324Y1154D01*
X5311D01*
X5298Y1168D01*
Y1208D01*
X5271Y1128D02*
X5258Y1114D01*
Y1088D01*
X5271Y1074D01*
X5324D01*
X5338Y1088D01*
Y1114D01*
X5324Y1128D01*
X5271D01*
X5312Y1389D02*
X5325Y1402D01*
X5352D01*
X5365Y1389D01*
Y1336D01*
X5352Y1322D01*
X5325D01*
X5312Y1336D01*
X5232Y1402D02*
X5285D01*
Y1362D01*
X5258Y1376D01*
X5245D01*
X5232Y1362D01*
Y1336D01*
X5245Y1322D01*
X5272D01*
X5285Y1336D01*
X5205D02*
X5192Y1322D01*
X5165D01*
X5152Y1336D01*
Y1389D01*
X5165Y1402D01*
X5192D01*
X5205Y1389D01*
Y1376D01*
X5192Y1362D01*
X5152D01*
X5864Y2072D02*
X5878Y2085D01*
X5904D01*
X5917Y2072D01*
Y2018D01*
X5904Y2005D01*
X5878D01*
X5864Y2018D01*
X5784Y2085D02*
X5838D01*
Y2045D01*
X5811Y2058D01*
X5798D01*
X5784Y2045D01*
Y2018D01*
X5798Y2005D01*
X5824D01*
X5838Y2018D01*
X5718Y2005D02*
Y2085D01*
X5758Y2045D01*
X5704D01*
X5820Y2210D02*
X5834Y2224D01*
X5860D01*
X5874Y2210D01*
Y2157D01*
X5860Y2144D01*
X5834D01*
X5820Y2157D01*
X5740Y2224D02*
X5794D01*
Y2184D01*
X5767Y2197D01*
X5754D01*
X5740Y2184D01*
Y2157D01*
X5754Y2144D01*
X5780D01*
X5794Y2157D01*
X5714Y2210D02*
X5700Y2224D01*
X5674D01*
X5660Y2210D01*
Y2197D01*
X5674Y2184D01*
X5687D01*
X5674D01*
X5660Y2170D01*
Y2157D01*
X5674Y2144D01*
X5700D01*
X5714Y2157D01*
X257Y1507D02*
X270Y1520D01*
X297D01*
X310Y1507D01*
Y1453D01*
X297Y1440D01*
X270D01*
X257Y1453D01*
X177Y1520D02*
X230D01*
Y1480D01*
X203Y1493D01*
X190D01*
X177Y1480D01*
Y1453D01*
X190Y1440D01*
X217D01*
X230Y1453D01*
X150Y1507D02*
X137Y1520D01*
X110D01*
X97Y1507D01*
Y1453D01*
X110Y1440D01*
X137D01*
X150Y1453D01*
Y1507D01*
X292Y1309D02*
X305Y1322D01*
X332D01*
X345Y1309D01*
Y1256D01*
X332Y1243D01*
X305D01*
X292Y1256D01*
X225Y1243D02*
Y1322D01*
X265Y1282D01*
X212D01*
X185Y1256D02*
X172Y1243D01*
X145D01*
X132Y1256D01*
Y1309D01*
X145Y1322D01*
X172D01*
X185Y1309D01*
Y1296D01*
X172Y1282D01*
X132D01*
X1946Y-116D02*
X1933Y-102D01*
Y-76D01*
X1946Y-62D01*
X1999D01*
X2012Y-76D01*
Y-102D01*
X1999Y-116D01*
X2012Y-182D02*
X1933D01*
X1973Y-142D01*
Y-196D01*
X1946Y-222D02*
X1933Y-236D01*
Y-262D01*
X1946Y-276D01*
X1959D01*
X1973Y-262D01*
X1986Y-276D01*
X1999D01*
X2012Y-262D01*
Y-236D01*
X1999Y-222D01*
X1986D01*
X1973Y-236D01*
X1959Y-222D01*
X1946D01*
X1973Y-236D02*
Y-262D01*
X721Y1037D02*
X708Y1050D01*
Y1077D01*
X721Y1090D01*
X774D01*
X788Y1077D01*
Y1050D01*
X774Y1037D01*
X788Y970D02*
X708D01*
X748Y1010D01*
Y957D01*
X708Y877D02*
X721Y903D01*
X748Y930D01*
X774D01*
X788Y917D01*
Y890D01*
X774Y877D01*
X761D01*
X748Y890D01*
Y930D01*
X189Y858D02*
X202Y845D01*
Y818D01*
X189Y805D01*
X136D01*
X123Y818D01*
Y845D01*
X136Y858D01*
X123Y925D02*
X202D01*
X162Y885D01*
Y938D01*
X202Y1018D02*
Y965D01*
X162D01*
X176Y992D01*
Y1005D01*
X162Y1018D01*
X136D01*
X123Y1005D01*
Y978D01*
X136Y965D01*
X236Y432D02*
X223Y445D01*
Y472D01*
X236Y485D01*
X289D01*
X303Y472D01*
Y445D01*
X289Y432D01*
X303Y365D02*
X223D01*
X263Y405D01*
Y352D01*
X303Y285D02*
X223D01*
X263Y325D01*
Y272D01*
X870Y388D02*
X884Y401D01*
X910D01*
X924Y388D01*
Y335D01*
X910Y321D01*
X884D01*
X870Y335D01*
X804Y321D02*
Y401D01*
X844Y361D01*
X790D01*
X764Y388D02*
X750Y401D01*
X724D01*
X710Y388D01*
Y375D01*
X724Y361D01*
X737D01*
X724D01*
X710Y348D01*
Y335D01*
X724Y321D01*
X750D01*
X764Y335D01*
X773Y24D02*
X760Y38D01*
Y64D01*
X773Y77D01*
X827D01*
X840Y64D01*
Y38D01*
X827Y24D01*
X840Y-42D02*
X760D01*
X800Y-2D01*
Y-56D01*
X840Y-136D02*
Y-82D01*
X787Y-136D01*
X773D01*
X760Y-122D01*
Y-96D01*
X773Y-82D01*
X1467Y729D02*
X1480Y742D01*
X1507D01*
X1520Y729D01*
Y676D01*
X1507Y662D01*
X1480D01*
X1467Y676D01*
X1400Y662D02*
Y742D01*
X1440Y702D01*
X1387D01*
X1360Y729D02*
X1347Y742D01*
X1320D01*
X1307Y729D01*
Y676D01*
X1320Y662D01*
X1347D01*
X1360Y676D01*
Y729D01*
X2029Y3842D02*
X2043Y3855D01*
X2069D01*
X2083Y3842D01*
Y3788D01*
X2069Y3775D01*
X2043D01*
X2029Y3788D01*
X2003Y3842D02*
X1989Y3855D01*
X1963D01*
X1949Y3842D01*
Y3828D01*
X1963Y3815D01*
X1976D01*
X1963D01*
X1949Y3802D01*
Y3788D01*
X1963Y3775D01*
X1989D01*
X2003Y3788D01*
X1923D02*
X1909Y3775D01*
X1883D01*
X1869Y3788D01*
Y3842D01*
X1883Y3855D01*
X1909D01*
X1923Y3842D01*
Y3828D01*
X1909Y3815D01*
X1869D01*
X1342Y3729D02*
X1355Y3742D01*
X1382D01*
X1395Y3729D01*
Y3676D01*
X1382Y3662D01*
X1355D01*
X1342Y3676D01*
X1315Y3729D02*
X1302Y3742D01*
X1275D01*
X1262Y3729D01*
Y3716D01*
X1275Y3702D01*
X1288D01*
X1275D01*
X1262Y3689D01*
Y3676D01*
X1275Y3662D01*
X1302D01*
X1315Y3676D01*
X1235Y3729D02*
X1222Y3742D01*
X1195D01*
X1182Y3729D01*
Y3716D01*
X1195Y3702D01*
X1182Y3689D01*
Y3676D01*
X1195Y3662D01*
X1222D01*
X1235Y3676D01*
Y3689D01*
X1222Y3702D01*
X1235Y3716D01*
Y3729D01*
X1222Y3702D02*
X1195D01*
X774Y3194D02*
X788Y3207D01*
X814D01*
X827Y3194D01*
Y3141D01*
X814Y3127D01*
X788D01*
X774Y3141D01*
X748Y3194D02*
X734Y3207D01*
X708D01*
X694Y3194D01*
Y3181D01*
X708Y3167D01*
X721D01*
X708D01*
X694Y3154D01*
Y3141D01*
X708Y3127D01*
X734D01*
X748Y3141D01*
X668Y3207D02*
X614D01*
Y3194D01*
X668Y3141D01*
Y3127D01*
X2869Y224D02*
X2883Y237D01*
X2909D01*
X2923Y224D01*
Y171D01*
X2909Y158D01*
X2883D01*
X2869Y171D01*
X2843Y224D02*
X2829Y237D01*
X2803D01*
X2789Y224D01*
Y211D01*
X2803Y197D01*
X2816D01*
X2803D01*
X2789Y184D01*
Y171D01*
X2803Y158D01*
X2829D01*
X2843Y171D01*
X2709Y237D02*
X2736Y224D01*
X2763Y197D01*
Y171D01*
X2749Y158D01*
X2723D01*
X2709Y171D01*
Y184D01*
X2723Y197D01*
X2763D01*
X4344Y249D02*
X4358Y262D01*
X4384D01*
X4397Y249D01*
Y196D01*
X4384Y183D01*
X4358D01*
X4344Y196D01*
X4318Y249D02*
X4304Y262D01*
X4278D01*
X4264Y249D01*
Y236D01*
X4278Y222D01*
X4291D01*
X4278D01*
X4264Y209D01*
Y196D01*
X4278Y183D01*
X4304D01*
X4318Y196D01*
X4184Y262D02*
X4238D01*
Y222D01*
X4211Y236D01*
X4198D01*
X4184Y222D01*
Y196D01*
X4198Y183D01*
X4224D01*
X4238Y196D01*
X2111Y1122D02*
X2098Y1136D01*
Y1162D01*
X2111Y1176D01*
X2164D01*
X2178Y1162D01*
Y1136D01*
X2164Y1122D01*
X2111Y1096D02*
X2098Y1082D01*
Y1056D01*
X2111Y1042D01*
X2124D01*
X2138Y1056D01*
Y1069D01*
Y1056D01*
X2151Y1042D01*
X2164D01*
X2178Y1056D01*
Y1082D01*
X2164Y1096D01*
X2178Y976D02*
X2098D01*
X2138Y1016D01*
Y962D01*
X2409Y1262D02*
X2423Y1275D01*
X2449D01*
X2462Y1262D01*
Y1208D01*
X2449Y1195D01*
X2423D01*
X2409Y1208D01*
X2383Y1262D02*
X2369Y1275D01*
X2343D01*
X2329Y1262D01*
Y1248D01*
X2343Y1235D01*
X2356D01*
X2343D01*
X2329Y1222D01*
Y1208D01*
X2343Y1195D01*
X2369D01*
X2383Y1208D01*
X2303Y1262D02*
X2289Y1275D01*
X2263D01*
X2249Y1262D01*
Y1248D01*
X2263Y1235D01*
X2276D01*
X2263D01*
X2249Y1222D01*
Y1208D01*
X2263Y1195D01*
X2289D01*
X2303Y1208D01*
X2607Y923D02*
X2620Y936D01*
X2647D01*
X2660Y923D01*
Y870D01*
X2647Y856D01*
X2620D01*
X2607Y870D01*
X2580Y923D02*
X2567Y936D01*
X2540D01*
X2527Y923D01*
Y910D01*
X2540Y896D01*
X2553D01*
X2540D01*
X2527Y883D01*
Y870D01*
X2540Y856D01*
X2567D01*
X2580Y870D01*
X2447Y856D02*
X2500D01*
X2447Y910D01*
Y923D01*
X2460Y936D01*
X2487D01*
X2500Y923D01*
X2704Y1272D02*
X2718Y1285D01*
X2744D01*
X2758Y1272D01*
Y1218D01*
X2744Y1205D01*
X2718D01*
X2704Y1218D01*
X2678Y1272D02*
X2664Y1285D01*
X2638D01*
X2624Y1272D01*
Y1258D01*
X2638Y1245D01*
X2651D01*
X2638D01*
X2624Y1232D01*
Y1218D01*
X2638Y1205D01*
X2664D01*
X2678Y1218D01*
X2598Y1205D02*
X2571D01*
X2584D01*
Y1285D01*
X2598Y1272D01*
X2132Y197D02*
X2145Y210D01*
X2172D01*
X2185Y197D01*
Y143D01*
X2172Y130D01*
X2145D01*
X2132Y143D01*
X2105Y197D02*
X2092Y210D01*
X2065D01*
X2052Y197D01*
Y183D01*
X2065Y170D01*
X2078D01*
X2065D01*
X2052Y157D01*
Y143D01*
X2065Y130D01*
X2092D01*
X2105Y143D01*
X2025Y197D02*
X2012Y210D01*
X1985D01*
X1972Y197D01*
Y143D01*
X1985Y130D01*
X2012D01*
X2025Y143D01*
Y197D01*
X2127Y74D02*
X2140Y87D01*
X2167D01*
X2180Y74D01*
Y21D01*
X2167Y8D01*
X2140D01*
X2127Y21D01*
X2047Y8D02*
X2100D01*
X2047Y61D01*
Y74D01*
X2060Y87D01*
X2087D01*
X2100Y74D01*
X2020Y21D02*
X2007Y8D01*
X1980D01*
X1967Y21D01*
Y74D01*
X1980Y87D01*
X2007D01*
X2020Y74D01*
Y61D01*
X2007Y47D01*
X1967D01*
X3911Y1416D02*
X3897Y1403D01*
X3871D01*
X3858Y1416D01*
Y1469D01*
X3871Y1482D01*
X3897D01*
X3911Y1469D01*
X3991Y1482D02*
X3937D01*
X3991Y1429D01*
Y1416D01*
X3977Y1403D01*
X3951D01*
X3937Y1416D01*
X4017D02*
X4031Y1403D01*
X4057D01*
X4071Y1416D01*
Y1429D01*
X4057Y1443D01*
X4071Y1456D01*
Y1469D01*
X4057Y1482D01*
X4031D01*
X4017Y1469D01*
Y1456D01*
X4031Y1443D01*
X4017Y1429D01*
Y1416D01*
X4031Y1443D02*
X4057D01*
X3688Y1697D02*
X3675Y1710D01*
Y1737D01*
X3688Y1750D01*
X3742D01*
X3755Y1737D01*
Y1710D01*
X3742Y1697D01*
X3755Y1617D02*
Y1670D01*
X3702Y1617D01*
X3688D01*
X3675Y1630D01*
Y1657D01*
X3688Y1670D01*
X3675Y1590D02*
Y1537D01*
X3688D01*
X3742Y1590D01*
X3755D01*
X1952Y684D02*
X1939Y698D01*
Y724D01*
X1952Y738D01*
X2005D01*
X2019Y724D01*
Y698D01*
X2005Y684D01*
X2019Y604D02*
Y658D01*
X1965Y604D01*
X1952D01*
X1939Y618D01*
Y644D01*
X1952Y658D01*
X1939Y524D02*
X1952Y551D01*
X1979Y578D01*
X2005D01*
X2019Y564D01*
Y538D01*
X2005Y524D01*
X1992D01*
X1979Y538D01*
Y578D01*
X1952Y450D02*
X1939Y464D01*
Y490D01*
X1952Y504D01*
X2005D01*
X2019Y490D01*
Y464D01*
X2005Y450D01*
X2019Y370D02*
Y424D01*
X1965Y370D01*
X1952D01*
X1939Y384D01*
Y410D01*
X1952Y424D01*
X1939Y290D02*
Y344D01*
X1979D01*
X1965Y317D01*
Y304D01*
X1979Y290D01*
X2005D01*
X2019Y304D01*
Y330D01*
X2005Y344D01*
X1457Y1601D02*
X1444Y1615D01*
Y1641D01*
X1457Y1655D01*
X1511D01*
X1524Y1641D01*
Y1615D01*
X1511Y1601D01*
X1524Y1521D02*
Y1575D01*
X1471Y1521D01*
X1457D01*
X1444Y1535D01*
Y1561D01*
X1457Y1575D01*
X1524Y1495D02*
Y1468D01*
Y1481D01*
X1444D01*
X1457Y1495D01*
X1897Y1753D02*
X1910Y1740D01*
Y1713D01*
X1897Y1700D01*
X1843D01*
X1830Y1713D01*
Y1740D01*
X1843Y1753D01*
X1830Y1833D02*
Y1780D01*
X1883Y1833D01*
X1897D01*
X1910Y1820D01*
Y1793D01*
X1897Y1780D01*
Y1860D02*
X1910Y1873D01*
Y1900D01*
X1897Y1913D01*
X1843D01*
X1830Y1900D01*
Y1873D01*
X1843Y1860D01*
X1897D01*
X2621Y3141D02*
X2607Y3128D01*
X2581D01*
X2567Y3141D01*
Y3194D01*
X2581Y3208D01*
X2607D01*
X2621Y3194D01*
X2647Y3208D02*
X2674D01*
X2661D01*
Y3128D01*
X2647Y3141D01*
X2754Y3208D02*
Y3128D01*
X2714Y3168D01*
X2767D01*
X2336Y2914D02*
X2323Y2928D01*
Y2954D01*
X2336Y2967D01*
X2389D01*
X2402Y2954D01*
Y2928D01*
X2389Y2914D01*
X2402Y2888D02*
Y2861D01*
Y2874D01*
X2323D01*
X2336Y2888D01*
Y2821D02*
X2323Y2808D01*
Y2781D01*
X2336Y2768D01*
X2349D01*
X2363Y2781D01*
Y2794D01*
Y2781D01*
X2376Y2768D01*
X2389D01*
X2402Y2781D01*
Y2808D01*
X2389Y2821D01*
X4421Y3664D02*
X4408Y3678D01*
Y3704D01*
X4421Y3717D01*
X4474D01*
X4488Y3704D01*
Y3678D01*
X4474Y3664D01*
X4488Y3638D02*
Y3611D01*
Y3624D01*
X4408D01*
X4421Y3638D01*
X4488Y3518D02*
Y3571D01*
X4434Y3518D01*
X4421D01*
X4408Y3531D01*
Y3558D01*
X4421Y3571D01*
X4251Y3644D02*
X4238Y3658D01*
Y3684D01*
X4251Y3697D01*
X4304D01*
X4317Y3684D01*
Y3658D01*
X4304Y3644D01*
X4317Y3618D02*
Y3591D01*
Y3604D01*
X4238D01*
X4251Y3618D01*
X4317Y3551D02*
Y3524D01*
Y3538D01*
X4238D01*
X4251Y3551D01*
X5152Y2735D02*
X5165Y2748D01*
X5192D01*
X5205Y2735D01*
Y2682D01*
X5192Y2668D01*
X5165D01*
X5152Y2682D01*
X5125Y2668D02*
X5099D01*
X5112D01*
Y2748D01*
X5125Y2735D01*
X5059D02*
X5045Y2748D01*
X5019D01*
X5005Y2735D01*
Y2682D01*
X5019Y2668D01*
X5045D01*
X5059Y2682D01*
Y2735D01*
X4972Y3125D02*
X4985Y3138D01*
X5012D01*
X5025Y3125D01*
Y3072D01*
X5012Y3058D01*
X4985D01*
X4972Y3072D01*
X4945D02*
X4932Y3058D01*
X4905D01*
X4892Y3072D01*
Y3125D01*
X4905Y3138D01*
X4932D01*
X4945Y3125D01*
Y3112D01*
X4932Y3098D01*
X4892D01*
X4821Y1934D02*
X4808Y1948D01*
Y1974D01*
X4821Y1988D01*
X4874D01*
X4888Y1974D01*
Y1948D01*
X4874Y1934D01*
X4821Y1908D02*
X4808Y1894D01*
Y1868D01*
X4821Y1854D01*
X4834D01*
X4848Y1868D01*
X4861Y1854D01*
X4874D01*
X4888Y1868D01*
Y1894D01*
X4874Y1908D01*
X4861D01*
X4848Y1894D01*
X4834Y1908D01*
X4821D01*
X4848Y1894D02*
Y1868D01*
X4456Y1822D02*
X4443Y1835D01*
Y1862D01*
X4456Y1875D01*
X4509D01*
X4522Y1862D01*
Y1835D01*
X4509Y1822D01*
X4443Y1795D02*
Y1742D01*
X4456D01*
X4509Y1795D01*
X4522D01*
X3929Y1892D02*
X3943Y1905D01*
X3969D01*
X3983Y1892D01*
Y1838D01*
X3969Y1825D01*
X3943D01*
X3929Y1838D01*
X3849Y1905D02*
X3876Y1892D01*
X3903Y1865D01*
Y1838D01*
X3889Y1825D01*
X3863D01*
X3849Y1838D01*
Y1852D01*
X3863Y1865D01*
X3903D01*
X3749Y1892D02*
X3763Y1905D01*
X3789D01*
X3803Y1892D01*
Y1838D01*
X3789Y1825D01*
X3763D01*
X3749Y1838D01*
X3669Y1905D02*
X3723D01*
Y1865D01*
X3696Y1878D01*
X3683D01*
X3669Y1865D01*
Y1838D01*
X3683Y1825D01*
X3709D01*
X3723Y1838D01*
X4479Y1247D02*
Y1327D01*
X4439D01*
X4426Y1313D01*
Y1287D01*
X4439Y1273D01*
X4479D01*
X4452D02*
X4426Y1247D01*
X4399Y1260D02*
X4386Y1247D01*
X4359D01*
X4346Y1260D01*
Y1313D01*
X4359Y1327D01*
X4386D01*
X4399Y1313D01*
Y1300D01*
X4386Y1287D01*
X4346D01*
X4266Y1247D02*
X4319D01*
X4266Y1300D01*
Y1313D01*
X4279Y1327D01*
X4306D01*
X4319Y1313D01*
X4782Y-317D02*
Y-238D01*
X4742D01*
X4729Y-251D01*
Y-278D01*
X4742Y-291D01*
X4782D01*
X4755D02*
X4729Y-317D01*
X4702Y-304D02*
X4689Y-317D01*
X4662D01*
X4649Y-304D01*
Y-251D01*
X4662Y-238D01*
X4689D01*
X4702Y-251D01*
Y-264D01*
X4689Y-278D01*
X4649D01*
X4622Y-251D02*
X4609Y-238D01*
X4582D01*
X4569Y-251D01*
Y-264D01*
X4582Y-278D01*
X4595D01*
X4582D01*
X4569Y-291D01*
Y-304D01*
X4582Y-317D01*
X4609D01*
X4622Y-304D01*
X2538Y1980D02*
Y2060D01*
X2498D01*
X2484Y2046D01*
Y2020D01*
X2498Y2006D01*
X2538D01*
X2511D02*
X2484Y1980D01*
X2458Y1993D02*
X2444Y1980D01*
X2418D01*
X2404Y1993D01*
Y2046D01*
X2418Y2060D01*
X2444D01*
X2458Y2046D01*
Y2033D01*
X2444Y2020D01*
X2404D01*
X2338Y1980D02*
Y2060D01*
X2378Y2020D01*
X2324D01*
X4783Y106D02*
Y186D01*
X4743D01*
X4730Y173D01*
Y146D01*
X4743Y133D01*
X4783D01*
X4756D02*
X4730Y106D01*
X4703Y119D02*
X4690Y106D01*
X4663D01*
X4650Y119D01*
Y173D01*
X4663Y186D01*
X4690D01*
X4703Y173D01*
Y159D01*
X4690Y146D01*
X4650D01*
X4570Y186D02*
X4623D01*
Y146D01*
X4596Y159D01*
X4583D01*
X4570Y146D01*
Y119D01*
X4583Y106D01*
X4610D01*
X4623Y119D01*
X2779Y1736D02*
Y1816D01*
X2739D01*
X2725Y1803D01*
Y1776D01*
X2739Y1763D01*
X2779D01*
X2752D02*
X2725Y1736D01*
X2699Y1749D02*
X2685Y1736D01*
X2659D01*
X2646Y1749D01*
Y1803D01*
X2659Y1816D01*
X2685D01*
X2699Y1803D01*
Y1789D01*
X2685Y1776D01*
X2646D01*
X2566Y1816D02*
X2592Y1803D01*
X2619Y1776D01*
Y1749D01*
X2606Y1736D01*
X2579D01*
X2566Y1749D01*
Y1763D01*
X2579Y1776D01*
X2619D01*
X1207Y2200D02*
Y2120D01*
X1168D01*
X1154Y2133D01*
Y2187D01*
X1168Y2200D01*
X1207D01*
X1128Y2120D02*
X1101D01*
X1114D01*
Y2200D01*
X1128Y2187D01*
X1710Y2190D02*
Y2110D01*
X1670D01*
X1657Y2123D01*
Y2177D01*
X1670Y2190D01*
X1710D01*
X1577Y2110D02*
X1630D01*
X1577Y2163D01*
Y2177D01*
X1590Y2190D01*
X1617D01*
X1630Y2177D01*
X1252Y2583D02*
X1173D01*
Y2543D01*
X1186Y2529D01*
X1213D01*
X1226Y2543D01*
Y2583D01*
Y2556D02*
X1252Y2529D01*
Y2449D02*
Y2503D01*
X1199Y2449D01*
X1186D01*
X1173Y2463D01*
Y2489D01*
X1186Y2503D01*
Y2423D02*
X1173Y2409D01*
Y2383D01*
X1186Y2369D01*
X1239D01*
X1252Y2383D01*
Y2409D01*
X1239Y2423D01*
X1186D01*
X1627Y2565D02*
X1548D01*
Y2525D01*
X1561Y2512D01*
X1588D01*
X1601Y2525D01*
Y2565D01*
Y2538D02*
X1627Y2512D01*
Y2432D02*
Y2485D01*
X1574Y2432D01*
X1561D01*
X1548Y2445D01*
Y2472D01*
X1561Y2485D01*
X1627Y2405D02*
Y2378D01*
Y2392D01*
X1548D01*
X1561Y2405D01*
X3463Y4542D02*
X3383D01*
Y4502D01*
X3397Y4489D01*
X3423D01*
X3437Y4502D01*
Y4542D01*
Y4516D02*
X3463Y4489D01*
Y4462D02*
Y4436D01*
Y4449D01*
X3383D01*
X3397Y4462D01*
Y4396D02*
X3383Y4382D01*
Y4356D01*
X3397Y4342D01*
X3410D01*
X3423Y4356D01*
X3437Y4342D01*
X3450D01*
X3463Y4356D01*
Y4382D01*
X3450Y4396D01*
X3437D01*
X3423Y4382D01*
X3410Y4396D01*
X3397D01*
X3423Y4382D02*
Y4356D01*
X2971Y4525D02*
Y4605D01*
X2931D01*
X2917Y4591D01*
Y4565D01*
X2931Y4551D01*
X2971D01*
X2837Y4605D02*
X2891D01*
Y4565D01*
X2864Y4578D01*
X2851D01*
X2837Y4565D01*
Y4538D01*
X2851Y4525D01*
X2877D01*
X2891Y4538D01*
X3101Y4458D02*
X3088Y4445D01*
X3062D01*
X3048Y4458D01*
Y4511D01*
X3062Y4525D01*
X3088D01*
X3101Y4511D01*
X3181Y4445D02*
X3155Y4458D01*
X3128Y4485D01*
Y4511D01*
X3141Y4525D01*
X3168D01*
X3181Y4511D01*
Y4498D01*
X3168Y4485D01*
X3128D01*
X3208Y4511D02*
X3221Y4525D01*
X3248D01*
X3261Y4511D01*
Y4458D01*
X3248Y4445D01*
X3221D01*
X3208Y4458D01*
Y4471D01*
X3221Y4485D01*
X3261D01*
X2587Y4516D02*
X2573Y4530D01*
Y4556D01*
X2587Y4570D01*
X2640D01*
X2653Y4556D01*
Y4530D01*
X2640Y4516D01*
X2573Y4436D02*
X2587Y4463D01*
X2613Y4490D01*
X2640D01*
X2653Y4476D01*
Y4450D01*
X2640Y4436D01*
X2627D01*
X2613Y4450D01*
Y4490D01*
X2573Y4410D02*
Y4356D01*
X2587D01*
X2640Y4410D01*
X2653D01*
X5248Y1858D02*
X5314D01*
X5328Y1844D01*
Y1818D01*
X5314Y1804D01*
X5248D01*
X5328Y1778D02*
Y1751D01*
Y1764D01*
X5248D01*
X5261Y1778D01*
X5328Y1658D02*
Y1711D01*
X5274Y1658D01*
X5261D01*
X5248Y1671D01*
Y1698D01*
X5261Y1711D01*
D185*
X2901Y330D02*
G03*
X2899Y325I-8J0D01*
G01*
X3982Y246D02*
Y341D01*
X3887Y1272D02*
X3982D01*
X2956Y1175D02*
Y1272D01*
Y246D02*
Y342D01*
X3886Y246D02*
X3982D01*
Y1177D02*
Y1272D01*
X2956D02*
X3055D01*
X2956Y246D02*
X3051D01*
D186*
X1950Y1852D02*
G03*
X1950Y1852I-13J0D01*
G01*
D187*
X4553Y3418D02*
X4566Y3431D01*
X4557Y3217D02*
X4566Y3209D01*
X4570Y3204D01*
X4553Y3222D02*
Y3418D01*
Y3222D02*
X4557Y3217D01*
D188*
X1293Y2165D02*
X1352D01*
X1323Y2135D02*
X1352Y2165D01*
X1293D02*
X1323Y2135D01*
X1293Y2165D02*
X1323Y2135D01*
X1450Y2165D02*
X1510D01*
X1480Y2135D02*
X1510Y2165D01*
X1450D02*
X1480Y2135D01*
X1450Y2165D02*
X1480Y2135D01*
D189*
X2334Y-328D02*
X2346Y-316D01*
X2369D01*
X2381Y-328D01*
Y-374D01*
X2369Y-386D01*
X2346D01*
X2334Y-374D01*
X2276Y-386D02*
Y-316D01*
X2311Y-351D01*
X2264D01*
X2241Y-316D02*
X2194D01*
Y-328D01*
X2241Y-374D01*
Y-386D01*
M02*
