M48
;Layer_Color=9474304
;FILE_FORMAT=4:2
METRIC,LZ
;TYPE=PLATED
T1F00S00C0.30
T2F00S00C0.60
T4F00S00C0.80
T6F00S00C1.00
T7F00S00C3.20
%
T01
X005828Y000948
X005658Y00106
X005535Y000568
X00573Y000158
X005719Y-000079
X005625Y-000073
X005372Y-00012
X005197Y-000123
X005117Y-000025
X004925Y000003
X004932Y000199
X005048Y000192
X004805Y0002
X004552Y000216
X00445Y000055
X004471Y-000026
X004463Y-000235
X00426Y-00025
X004116Y-000245
X004167Y000177
X004283Y000242
X004065Y000303
X003933Y000358
X003948Y00021
X0039Y000725
X003824Y000794
X003805Y001018
X003795Y00115
X003692Y001084
X003578Y00106
X003612Y000985
X00358Y000858
X003442Y000778
X00328Y00084
X003343Y000921
X003165Y000993
X003033Y000975
X0031Y000805
X00308Y000638
X003179Y000624
X00315Y00049
X003053Y000465
X003055Y000305
X002817Y000228
X00264Y000208
X00249Y000203
X002685Y000447
X00263Y000645
X002733Y000835
X002405Y000855
X002319Y00086
X002241Y000895
X002328Y000658
X002392Y001352
X002497Y001349
X002552Y001227
X002659Y001385
X00278Y001363
X00289Y001207
X003239Y001161
X003411Y0012
X003369Y001479
X003439Y001546
X003578Y001545
X003508Y00162
X00345Y00172
X00361Y001692
X003522Y001923
X00351Y002002
X003375Y00222
X003445Y002308
X003278Y002317
X003125Y00222
X003135Y00269
X003079Y002806
X002881Y002917
X003354Y00296
X003507Y002467
X00378Y00248
X003855Y00257
X003773Y002268
X004005Y002295
X0039Y001877
X003765
X003065Y00172
X003065Y001585
X002845Y001745
X002854Y001993
X002575Y002177
X002473Y002103
X00231Y00201
X002248Y002167
X00207Y002138
X00185Y00184
X002167Y001593
X002434Y001574
X002312Y00142
X002042Y001223
X002015Y000195
X002561Y-000214
X002748
Y-000129
X002883
Y-000214
X00309Y-00018
X00338Y-000308
X003523Y-000163
X003583Y-00022
X003635Y-0001
X003588Y-000018
X003497Y-000005
X00345Y000342
X003356Y000426
X003565Y000488
X003644Y00053
X003728Y000643
X004298Y000984
X004565Y00104
X00463Y00119
X004306Y001301
X004225Y001362
X00461Y00176
X004682Y001719
X00488Y002002
X004883Y002208
X004595Y002244
X004597Y002642
X004311Y002636
X00531Y00264
X005183Y002975
X005792Y00273
X005766Y002055
X005645Y001814
Y001729
X00551
Y001814
X005442Y00153
X005265Y002198
X005275Y-000312
X002599Y002504
X002383Y002398
X001565Y002837
X00116
Y002965
X000476Y002872
X00029Y002712
X000162Y002708
X000658Y002618
X000704Y002526
X000735Y002439
X000625Y002015
X000586Y001814
Y001729
X000451
Y001814
X000285Y002023
X000163Y00203
X000565Y00136
X00043Y000585
X00047Y-000013
X000562Y-000278
X000255Y-000242
X000923Y000185
X000835Y000333
X00126Y00058
X001453Y000838
X001517Y001032
X001532Y001148
X001733Y001007
X001777Y000841
X001737Y000678
X001626Y000671
X001635Y000447
X001282Y001633
X00135Y00185
X001457Y00181
X001162Y001845
X00116Y003115
X001248Y003515
X00181Y003592
X0017Y003175
X00159Y003173
X000405Y003252
X000262Y003399
X000488Y00357
X00085Y00383
X00243Y003405
X002465Y00303
X00225Y00316
X002167Y00314
X003152Y00316
X003628Y00309
X003972Y003278
X004072Y003662
X004447Y003177
X00503Y003055
X005205Y003085
X00483Y003533
X003537Y004641
X003178Y004592
Y004507
X003043
Y004592
X002811Y004588
X002721Y004648
X002872Y004343
T02
X00075Y-000305
X00112
X001649Y-00014
X001839
T04
X002662Y003584
X002862
X003062
X003262
X003199Y004852
X002999
X002799
X003399
T06
X000145Y00319
X000435Y003712
X00337Y003133
X00383Y003061
X005692Y00332
T07
X0062Y0
X0Y0
Y00355
X0062Y00355
M30
